<svg xmlns="http://www.w3.org/2000/svg" width="18" height="18" viewBox="0 0 18 18">
    <g data-name="그룹 5585">
        <g data-name="그룹 966">
            <g data-name="그룹 965">
                <g data-name="패스 830" style="fill:#ff008e;stroke-linecap:round;stroke-linejoin:round">
                    <path d="M285.56 110.786c-.393-.337-.767-.654-1.108-.942l-.024-.02c-2.646-2.238-4.142-3.586-4.142-5.295v-.02a1.4 1.4 0 0 0 0-.085c-.015-.632.22-1.23.663-1.687a2.422 2.422 0 0 1 1.686-.737c.442 0 .875.15 1.22.42.342.272.619.603.824.984l.88 1.634.88-1.634c.206-.381.484-.712.826-.985a1.99 1.99 0 0 1 1.308-.415c.656.042 1.25.333 1.677.819.415.472.62 1.074.58 1.695l-.003.033v.033c0 1.743-1.555 3.058-4.132 5.237-.331.28-.723.612-1.135.965z" style="stroke:none" transform="translate(-276.655 -97.295)"/>
                    <path d="M288.473 103a.985.985 0 0 0-.59.205 2.187 2.187 0 0 0-.563.674 2 2 0 0 1-3.521 0c-.14-.26-.33-.487-.564-.674a.985.985 0 0 0-.588-.205 1.428 1.428 0 0 0-.98.433c-.254.262-.39.605-.381.964v.132c0 1.266 1.368 2.485 3.788 4.531l.024.02.462.392.49-.414c2.55-2.158 3.777-3.25 3.777-4.474 0-.044.001-.088.004-.132a1.329 1.329 0 0 0-.332-.97 1.422 1.422 0 0 0-1.026-.482m-5.84-2c.669 0 1.319.224 1.842.635a4.2 4.2 0 0 1 1.085 1.295c.269-.5.637-.94 1.084-1.295a2.983 2.983 0 0 1 1.996-.629c1.883.12 3.31 1.723 3.187 3.578 0 2.207-1.785 3.716-4.488 6.003-.46.388-.98.828-1.52 1.297a.395.395 0 0 1-.517 0c-.541-.47-1.061-.909-1.52-1.297-2.704-2.287-4.496-3.85-4.496-6.058-.003-.046.002-.038 0-.084-.044-1.86 1.45-3.402 3.336-3.445h.01z" style="fill:#ff008e;stroke:none" transform="translate(-276.655 -97.295)"/>
                </g>
            </g>
        </g>
    </g>
</svg>
