<svg xmlns="http://www.w3.org/2000/svg" width="18" height="18" viewBox="0 0 18 18">
    <g data-name="그룹 5579">
        <g data-name="그룹 966">
            <g data-name="그룹 965">
                <g data-name="패스 830" style="fill:none;stroke-linecap:round;stroke-linejoin:round">
                    <path d="M288.5 101a2.984 2.984 0 0 0-1.853.635 4.2 4.2 0 0 0-1.084 1.294 4.2 4.2 0 0 0-1.084-1.294 2.983 2.983 0 0 0-1.853-.635 3.389 3.389 0 0 0-3.335 3.445v.085c0 2.207 1.793 3.771 4.5 6.057.459.388.979.828 1.52 1.3a.4.4 0 0 0 .516 0c.541-.469 1.061-.909 1.521-1.3 2.7-2.286 4.488-3.8 4.488-6a3.383 3.383 0 0 0-3.187-3.578c-.057-.009-.104-.009-.149-.009z" style="stroke:none" transform="translate(-276.655 -97.295)"/>
                    <path d="M288.486 102c-.443 0-.877.15-1.222.42a3.182 3.182 0 0 0-.824.984 1 1 0 0 1-1.76 0 3.183 3.183 0 0 0-.825-.984 1.99 1.99 0 0 0-1.22-.42 2.423 2.423 0 0 0-1.686.737 2.327 2.327 0 0 0-.663 1.687 1.404 1.404 0 0 1 0 .105c0 1.709 1.496 3.057 4.142 5.294l.024.02c.34.289.715.606 1.108.943.412-.353.804-.685 1.135-.965 2.577-2.179 4.132-3.494 4.132-5.237 0-.022 0-.044.002-.066a2.322 2.322 0 0 0-.579-1.695 2.417 2.417 0 0 0-1.764-.823m-5.854-1c.67 0 1.32.224 1.843.635a4.2 4.2 0 0 1 1.085 1.295c.269-.5.637-.94 1.084-1.295a2.983 2.983 0 0 1 1.996-.629c1.883.12 3.31 1.723 3.187 3.578 0 2.207-1.785 3.716-4.488 6.003-.46.388-.98.828-1.52 1.297a.395.395 0 0 1-.517 0c-.541-.47-1.061-.909-1.52-1.297-2.704-2.287-4.496-3.85-4.496-6.058-.003-.046.002-.038 0-.084-.044-1.86 1.45-3.402 3.336-3.445h.01z" style="fill:#000;stroke:none" transform="translate(-276.655 -97.295)"/>
                </g>
            </g>
        </g>
    </g>
</svg>
