<svg xmlns="http://www.w3.org/2000/svg" width="24" height="24" viewBox="0 0 24 24">
    <defs>
        <clipPath id="clip-path">
            <path id="사각형_2809" data-name="사각형 2809" style="fill:none" d="M0 0h24v24H0z"/>
        </clipPath>
        <style>
            .cls-5{fill:#b2b2b2}
        </style>
    </defs>
    <g id="그룹_7060" data-name="그룹 7060" transform="translate(16309 4928)">
        <path id="패스_2291" data-name="패스 2291" class="cls-5" d="M12 6.4c4.373 0 8.211 4.051 9.518 5.6-1.307 1.549-5.145 5.6-9.518 5.6S3.789 13.549 2.482 12C3.789 10.451 7.627 6.4 12 6.4m0-1C6.035 5.4 1.2 12 1.2 12s4.835 6.6 10.8 6.6S22.8 12 22.8 12 17.965 5.4 12 5.4" transform="translate(-16309 -4928)"/>
        <path id="패스_2292" data-name="패스 2292" class="cls-5" d="M12 9.4A2.6 2.6 0 1 1 9.4 12 2.6 2.6 0 0 1 12 9.4m0-1a3.6 3.6 0 1 0 3.6 3.6A3.6 3.6 0 0 0 12 8.4" transform="translate(-16309 -4928)"/>
    </g>
</svg>
