<?xml version="1.0" encoding="utf-8"?>
<!-- Generator: Adobe Illustrator 26.0.1, SVG Export Plug-In . SVG Version: 6.00 Build 0)  -->
<svg version="1.1" id="레이어_1" xmlns="http://www.w3.org/2000/svg" xmlns:xlink="http://www.w3.org/1999/xlink" x="0px"
	 y="0px" viewBox="0 0 48 18" style="enable-background:new 0 0 48 18;" xml:space="preserve">
<style type="text/css">
	.st0{fill:#B2B2B2;}
	.st1{fill:none;stroke:#FFFFFF;}
	.st2{enable-background:new    ;}
	.st3{fill:#FFFFFF;}
</style>
<g>
	<g>
		<path class="st0" d="M3,0h42c1.7,0,3,1.3,3,3v12c0,1.7-1.3,3-3,3H3c-1.7,0-3-1.3-3-3V3C0,1.3,1.3,0,3,0z"/>
		<path class="st1" d="M3,0.5h42c1.4,0,2.5,1.1,2.5,2.5v12c0,1.4-1.1,2.5-2.5,2.5H3c-1.4,0-2.5-1.1-2.5-2.5V3C0.5,1.6,1.6,0.5,3,0.5
			z"/>
	</g>
	<g class="st2">
		<path class="st3" d="M14.3,9.8H6.1V9h8.2V9.8z M11.5,7.7c-0.6-0.3-1-0.7-1.3-1.2C9.9,7,9.5,7.4,8.9,7.7C8.3,8,7.7,8.2,6.9,8.4
			L6.6,7.6C7,7.5,7.4,7.4,7.8,7.2c0.4-0.2,0.7-0.3,1-0.5C9.1,6.5,9.3,6.3,9.4,6c0.2-0.3,0.2-0.5,0.2-0.8V4.9h1.1v0.3
			c0,0.3,0.1,0.5,0.2,0.8c0.2,0.3,0.4,0.5,0.6,0.7c0.3,0.2,0.6,0.4,1,0.5c0.4,0.1,0.8,0.3,1.2,0.3l-0.4,0.8C12.7,8.2,12,8,11.5,7.7z
			 M12.5,11c0.5,0.3,0.8,0.7,0.8,1.2c0,0.5-0.3,0.9-0.8,1.2c-0.5,0.3-1.3,0.4-2.3,0.4c-1,0-1.8-0.1-2.3-0.4
			c-0.5-0.3-0.8-0.7-0.8-1.2c0-0.3,0.1-0.5,0.2-0.7c0.1-0.2,0.3-0.4,0.6-0.5s0.6-0.2,1-0.3c0.4-0.1,0.8-0.1,1.3-0.1
			C11.2,10.5,11.9,10.7,12.5,11z M11.7,12.8c0.4-0.1,0.5-0.3,0.5-0.6s-0.2-0.5-0.5-0.6c-0.4-0.1-0.9-0.2-1.5-0.2S9,11.4,8.6,11.5
			c-0.4,0.1-0.5,0.3-0.5,0.6s0.2,0.5,0.5,0.6C9,12.9,9.5,13,10.2,13S11.3,12.9,11.7,12.8z"/>
		<path class="st3" d="M20.1,8.5C20,8.8,19.8,9,19.6,9.2c-0.2,0.2-0.5,0.4-0.8,0.5s-0.6,0.2-0.9,0.2s-0.7-0.1-1-0.2
			s-0.5-0.3-0.8-0.5s-0.4-0.4-0.5-0.7c-0.1-0.3-0.2-0.6-0.2-0.9c0-0.3,0.1-0.6,0.2-0.9C15.8,6.4,16,6.2,16.2,6s0.5-0.4,0.8-0.5
			s0.6-0.2,1-0.2s0.7,0.1,0.9,0.2s0.5,0.3,0.8,0.5c0.2,0.2,0.4,0.4,0.5,0.7c0.1,0.3,0.2,0.6,0.2,0.9C20.3,7.9,20.2,8.2,20.1,8.5z
			 M16.6,8.2c0.1,0.2,0.2,0.3,0.3,0.4s0.3,0.2,0.4,0.3S17.7,9,17.9,9c0.2,0,0.4,0,0.5-0.1s0.3-0.2,0.4-0.3c0.1-0.1,0.2-0.3,0.3-0.4
			c0.1-0.2,0.1-0.4,0.1-0.6c0-0.2,0-0.4-0.1-0.6c-0.1-0.2-0.2-0.3-0.3-0.4c-0.1-0.1-0.3-0.2-0.4-0.3s-0.4-0.1-0.5-0.1
			c-0.4,0-0.7,0.1-1,0.4c-0.3,0.2-0.4,0.6-0.4,1C16.5,7.8,16.5,8,16.6,8.2z M23,13.6h-6.2v-3h1v2.1H23V13.6z M21.7,11.3V4.7h1v6.6
			H21.7z"/>
		<path class="st3" d="M28.8,9c-0.5,0-0.9,0.1-1.4,0.1c-0.5,0-0.9,0-1.4,0c-0.4,0-0.9,0-1.3,0l-0.1-0.8h0.5c0.2,0,0.4,0,0.5,0V6.1
			h-0.8V5.3h4.9v0.8H29v2.1c0.4,0,0.8-0.1,1.2-0.1l0.1,0.7C29.8,8.9,29.3,8.9,28.8,9z M32.3,13.7H26v-2.4h5v-0.7h-5V9.8h6v2.3H27
			v0.8h5.2V13.7z M27.3,8.3c0.2,0,0.4,0,0.6,0V6.1h-1.2v2.2C26.9,8.3,27.1,8.3,27.3,8.3z M30.9,9.4V4.7h1v4.7H30.9z"/>
		<path class="st3" d="M41.9,12.7h-8.2v-0.8h1.9V9.5C35.3,9.3,35,9,34.8,8.7c-0.2-0.3-0.3-0.7-0.3-1.1c0-0.4,0.1-0.7,0.2-1
			c0.2-0.3,0.4-0.5,0.7-0.7c0.3-0.2,0.6-0.4,1.1-0.5c0.4-0.1,0.8-0.2,1.3-0.2c0.5,0,0.9,0.1,1.3,0.2c0.4,0.1,0.8,0.3,1,0.5
			c0.3,0.2,0.5,0.5,0.7,0.7c0.2,0.3,0.2,0.6,0.2,1c0,0.4-0.1,0.8-0.3,1.1S40.3,9.3,40,9.5v2.4h1.9V12.7z M36.8,6.2
			c-0.3,0.1-0.5,0.2-0.7,0.3c-0.2,0.1-0.4,0.3-0.5,0.5c-0.1,0.2-0.2,0.4-0.2,0.6s0.1,0.5,0.2,0.6c0.1,0.2,0.3,0.4,0.5,0.5
			c0.2,0.1,0.4,0.2,0.7,0.3c0.3,0.1,0.6,0.1,0.9,0.1s0.7,0,0.9-0.1s0.5-0.2,0.7-0.3c0.2-0.1,0.4-0.3,0.5-0.5
			c0.1-0.2,0.2-0.4,0.2-0.6S40,7.2,39.9,7c-0.1-0.2-0.3-0.4-0.5-0.5c-0.2-0.1-0.4-0.2-0.7-0.3c-0.3-0.1-0.6-0.1-0.9-0.1
			S37.1,6.1,36.8,6.2z M38.9,11.8v-2c-0.2,0-0.4,0.1-0.5,0.1c-0.2,0-0.4,0-0.6,0c-0.4,0-0.8,0-1.1-0.1v2H38.9z"/>
	</g>
</g>
</svg>
