<svg xmlns="http://www.w3.org/2000/svg" xmlns:xlink="http://www.w3.org/1999/xlink" width="26" height="22" viewBox="0 0 26 22">
  <defs>
    <style>
      .cls-1 {
        fill: none;
      }

      .cls-2 {
        clip-path: url(#clip-path);
      }

      .cls-3 {
        fill: #03cf5d;
      }

      .cls-4 {
        fill: #fff;
      }
    </style>
    <clipPath id="clip-path">
      <rect id="사각형_5330" data-name="사각형 5330" class="cls-1" width="26" height="22" transform="translate(0 0)"/>
    </clipPath>
  </defs>
  <g id="그룹_5947" data-name="그룹 5947" transform="translate(0 0)">
    <g id="그룹_5946" data-name="그룹 5946" class="cls-2" transform="translate(0 0)">
      <path id="패스_2710" data-name="패스 2710" class="cls-3" d="M21.894,0H4.107A4.126,4.126,0,0,0,0,4.146v9.833a4.125,4.125,0,0,0,4.107,4.145h6.126l2.091,3.425a.778.778,0,0,0,.068.1.7.7,0,0,0,1.213,0,.491.491,0,0,0,.071-.1l2.091-3.424h6.127A4.126,4.126,0,0,0,26,13.979V4.146A4.126,4.126,0,0,0,21.894,0" transform="translate(0 0)"/>
      <path id="패스_2711" data-name="패스 2711" class="cls-4" d="M14.522,23.46a2.107,2.107,0,0,0-1.353.63V21.551H11.577v6.671h1.609V27.7a1.525,1.525,0,0,0,1.337.688A2.351,2.351,0,0,0,16.766,25.9s-.083-2.439-2.243-2.439m-.35,3.52a1.029,1.029,0,1,1,1.023-1.029,1.026,1.026,0,0,1-1.023,1.029" transform="translate(-8.748 -16.254)"/>
      <path id="패스_2712" data-name="패스 2712" class="cls-4" d="M34.9,20.943v1.544s.726-.033.726,1.327v3.949h1.534V23.449s.066-2.506-2.261-2.506" transform="translate(-26.375 -15.795)"/>
      <path id="패스_2713" data-name="패스 2713" class="cls-4" d="M51.373,29.4s-2.63,0-2.63,2.472a2.385,2.385,0,0,0,2.63,2.437s2.691,0,2.691-2.437A2.427,2.427,0,0,0,51.373,29.4m0,3.5A1.029,1.029,0,1,1,52.4,31.869,1.026,1.026,0,0,1,51.374,32.9" transform="translate(-36.832 -22.172)"/>
      <path id="패스_2714" data-name="패스 2714" class="cls-4" d="M77.4,29.558v.448a1.738,1.738,0,0,0-1.336-.611,2.2,2.2,0,0,0-2.252,2.455s-.025,2.375,2.19,2.375a1.816,1.816,0,0,0,1.4-.61v.373s.112,1.169-1.015,1.169H76v1.419h.618a2.317,2.317,0,0,0,2.326-2.5V29.558ZM76.446,32.9a1.029,1.029,0,1,1,1.023-1.029A1.026,1.026,0,0,1,76.446,32.9" transform="translate(-55.774 -22.17)"/>
    </g>
  </g>
</svg>
