<svg xmlns="http://www.w3.org/2000/svg" width="12" height="12" viewBox="0 0 12 12">
  <defs>
    <style>
      .cls-1 {
        fill: #fe6de7;
      }

      .cls-2 {
        fill: #fff;
      }
    </style>
  </defs>
  <g id="그룹_5513" data-name="그룹 5513" transform="translate(-455.059 -302.364)">
    <path id="패스_2686" data-name="패스 2686" class="cls-1" d="M2,0h8a2,2,0,0,1,2,2v8a2,2,0,0,1-2,2H2a2,2,0,0,1-2-2V2A2,2,0,0,1,2,0Z" transform="translate(455.059 302.364)"/>
    <g id="그룹_5390" data-name="그룹 5390">
      <path id="패스_2679" data-name="패스 2679" class="cls-2" d="M464.251,308.052v.6h-.78l-.444,2.611H461.9l-.172-.857q-.078-.375-.171-.838c-.063-.309-.122-.615-.179-.916h-.64c-.057.3-.116.607-.175.916s-.116.588-.168.838l-.171.857h-1.092l-.468-2.611h-.8v-.6h.686l-.459-2.588h1.021l.358,2.588h.7q.039-.2.12-.588c.055-.258.121-.573.2-.948l.149-.709h.9l.14.709c.079.375.145.69.2.948s.1.453.121.588h.709l.335-2.588H464l-.436,2.588Zm-4.506,2.09h.016a.272.272,0,0,0,.015-.063q.008-.047.024-.117.023-.132.117-.584c.026-.151.052-.286.077-.406s.05-.226.07-.319h-.514c.01.1.042.329.093.693.026.182.048.34.063.472Zm1.1-2.09h.413l-.194-1.068Zm1.778.6h-.507c.021.093.039.184.055.272s.033.175.054.258c.032.166.06.316.086.448s.06.3.1.511h.03c.011-.083.031-.247.059-.491S462.57,309.074,462.622,308.653Z"/>
    </g>
  </g>
</svg>
