<svg xmlns="http://www.w3.org/2000/svg" width="320" height="152" viewBox="0 0 320 152">
    <defs>
        <clipPath id="clip-path">
            <path id="사각형_2637" data-name="사각형 2637" transform="translate(0 .394)" style="fill:none" d="M0 0h16v16H0z"/>
        </clipPath>
        <style>
            .cls-3{fill:#ff0b84}.cls-4{fill:#575757}.cls-5{clip-path:url(#clip-path)}
        </style>
    </defs>
    <g id="그룹_4481" data-name="그룹 4481" transform="translate(-20 -216)">
        <rect id="사각형_3186" data-name="사각형 3186" width="320" height="152" rx="5" transform="translate(20 216)" style="fill:#ff6eb6;opacity:.1"/>
        <path id="패스_2472" data-name="패스 2472" class="cls-3" d="M8.1-10.02h1.6v6.66H8.1zm-.7 5.076-.8 1.212a4.12 4.12 0 0 1-1.56-.846 4.449 4.449 0 0 1-1.008-1.314A4.405 4.405 0 0 1 3-4.452a4.287 4.287 0 0 1-1.632.924l-.8-1.236a4.058 4.058 0 0 0 1.16-.576 3.711 3.711 0 0 0 .816-.8 3.329 3.329 0 0 0 .486-.948 3.59 3.59 0 0 0 .17-1.024H.984V-9.36H7v1.248H4.812a3.242 3.242 0 0 0 .174.96 3.153 3.153 0 0 0 .474.894 3.531 3.531 0 0 0 .8.756 4.3 4.3 0 0 0 1.14.558zM2.172-1.608v-1.26H9.7v3.912H8.1v-2.652zm17.04-8.412H20.8V1.032h-1.588V-4.5h-2.136v-1.284h2.136zm-7.26 1.14h5.2a12.154 12.154 0 0 1-.228 2.388 7.408 7.408 0 0 1-.786 2.148 7.523 7.523 0 0 1-1.5 1.878 10.319 10.319 0 0 1-2.37 1.59L11.424-2.1A10.258 10.258 0 0 0 13.2-3.2a6.377 6.377 0 0 0 1.236-1.272 5.534 5.534 0 0 0 .756-1.464 7.358 7.358 0 0 0 .348-1.68h-3.588zm18.624-1.152h1.5V1.02h-1.5v-5.6h-1V.5H28.1V-9.828h1.48v3.972h1zm-6.144 5.364v1.956q.756-.024 1.5-.072t1.572-.18l.12 1.284a19.765 19.765 0 0 1-2.01.216q-.93.048-1.938.048H22.9v-4.5h2.64V-7.68h-2.656v-1.272h4.176v4.284zM41.34-4.7a7.031 7.031 0 0 1-1.614-.174 4.291 4.291 0 0 1-1.266-.5 2.529 2.529 0 0 1-.822-.78 1.842 1.842 0 0 1-.294-1.02 1.842 1.842 0 0 1 .294-1.02 2.529 2.529 0 0 1 .822-.78 4.291 4.291 0 0 1 1.266-.5 7.031 7.031 0 0 1 1.614-.174 7.01 7.01 0 0 1 1.62.174 4.3 4.3 0 0 1 1.26.5 2.529 2.529 0 0 1 .822.78 1.842 1.842 0 0 1 .294 1.02 1.842 1.842 0 0 1-.294 1.02 2.529 2.529 0 0 1-.822.78 4.3 4.3 0 0 1-1.26.5 7.01 7.01 0 0 1-1.62.174zm0-3.684a4.014 4.014 0 0 0-1.734.312.977.977 0 0 0-.642.9.969.969 0 0 0 .642.912 4.155 4.155 0 0 0 1.734.3 4.112 4.112 0 0 0 1.728-.3.969.969 0 0 0 .636-.912.977.977 0 0 0-.636-.9 3.973 3.973 0 0 0-1.728-.316zm5.028 4.512v1.284h-2.316V1.02h-1.608v-3.612h-2.22V1.02h-1.6v-3.612H36.36v-1.284zm6.816 2.364h4.224v1.3H47.4v-1.3h4.2v-2.3h-3.036v-5.456h7.692v1.272h-6.1v2.9h6.18v1.272h-3.152zm9.036-3.04-.576-1.236a6.678 6.678 0 0 0 1.494-.348A4.648 4.648 0 0 0 64.23-6.7a2.605 2.605 0 0 0 .7-.714 2.046 2.046 0 0 0 .306-.786h-3.18v-1.26h8.2v1.26h-3.14a2.046 2.046 0 0 0 .306.786 2.637 2.637 0 0 0 .69.714 4.523 4.523 0 0 0 1.086.564 6.671 6.671 0 0 0 1.482.348l-.564 1.236a6.732 6.732 0 0 1-2.448-.78 4 4 0 0 1-1.5-1.44 4 4 0 0 1-1.5 1.44 6.732 6.732 0 0 1-2.448.784zm8.94.636v1.26h-4.236v3.708H65.34v-3.708h-4.164v-1.26zm8.676-6.12h1.584V1.056h-1.584zm-4.08.744a3.486 3.486 0 0 1 1.206.2 3 3 0 0 1 .966.564 2.614 2.614 0 0 1 .642.858 2.55 2.55 0 0 1 .234 1.1 2.561 2.561 0 0 1-.234 1.092 2.6 2.6 0 0 1-.642.864 3 3 0 0 1-.966.564 3.486 3.486 0 0 1-1.206.2 3.486 3.486 0 0 1-1.206-.2 2.928 2.928 0 0 1-.96-.564 2.635 2.635 0 0 1-.636-.864 2.561 2.561 0 0 1-.234-1.092 2.55 2.55 0 0 1 .234-1.1 2.654 2.654 0 0 1 .636-.858 2.928 2.928 0 0 1 .96-.564 3.486 3.486 0 0 1 1.206-.2zm0 1.356a1.606 1.606 0 0 0-1.074.36 1.248 1.248 0 0 0-.426 1.008 1.248 1.248 0 0 0 .426 1.008 1.606 1.606 0 0 0 1.074.36 1.606 1.606 0 0 0 1.074-.36 1.248 1.248 0 0 0 .426-1.008 1.248 1.248 0 0 0-.426-1.008 1.606 1.606 0 0 0-1.074-.36zm-3.3 6.744-.2-1.284q.732 0 1.584-.006t1.76-.042q.912-.036 1.836-.108t1.8-.2l.1 1.14q-.888.18-1.806.282t-1.806.15q-.888.048-1.716.06t-1.552.008zm22.212-5.664h1.464v1.3h-1.464v3.572h-1.584v-8.04h1.584zM92.04-6.5a2.718 2.718 0 0 1-.228 1.122 2.7 2.7 0 0 1-.636.888 2.956 2.956 0 0 1-.948.588 3.217 3.217 0 0 1-1.176.21 3.265 3.265 0 0 1-1.182-.21 2.941 2.941 0 0 1-.954-.588 2.7 2.7 0 0 1-.636-.888 2.718 2.718 0 0 1-.228-1.122 2.76 2.76 0 0 1 .228-1.128 2.62 2.62 0 0 1 .636-.888 3 3 0 0 1 .954-.584 3.265 3.265 0 0 1 1.182-.21 3.217 3.217 0 0 1 1.176.21 3.013 3.013 0 0 1 .948.582 2.62 2.62 0 0 1 .636.888 2.76 2.76 0 0 1 .228 1.13zm-4.44 0a1.365 1.365 0 0 0 .414 1.062 1.481 1.481 0 0 0 1.038.378 1.487 1.487 0 0 0 1.032-.378A1.355 1.355 0 0 0 90.5-6.5a1.355 1.355 0 0 0-.42-1.062 1.487 1.487 0 0 0-1.032-.378 1.481 1.481 0 0 0-1.038.378A1.365 1.365 0 0 0 87.6-6.5zm1.524 3.7v2.38h5.94V.84H87.54v-3.648zm15.84-7.224h1.512V1.02h-1.512v-5.508h-1V.5h-1.476V-9.828h1.476v4.056h1zM99.024-8.8v5.772q.648-.024 1.362-.084t1.506-.2l.132 1.332a17.006 17.006 0 0 1-2.04.264q-.948.06-1.776.06h-.768V-8.8z" transform="translate(137 249)"/>
        <path id="패스_2473" data-name="패스 2473" class="cls-4" d="M-72.47-5.59h1.28v.85h-1.28v3.13h-1.03v-6.65h1.03zm-1.62 1.61.07.75q-.67.11-1.38.175t-1.41.105q-.7.04-1.365.05t-1.245.01l-.11-.85h.515q.265 0 .545-.01v-2.88h-.82v-.84h4.83v.84h-.82v2.77q.64-.05 1.19-.12zm-3.39-2.65v2.87l.595-.02q.3-.01.605-.03v-2.82zm.33 4.4v1.99h5.04V.6h-6.08v-2.83zm13.56-6.03h.98V.76h-.98V-3.9h-1.03V.34h-.97v-8.43h.97v3.35h1.03zm-6.43 6.68v-5.69h3.48v5.69zm.96-4.87v4.05h1.56v-4.05zm16.34 1.75v.85h-1.41V.77h-1.03v-9.03h1.03v3.56zm-5.24-1.81v.87a3.771 3.771 0 0 0 .16 1.065 4.5 4.5 0 0 0 .455 1.04 4.313 4.313 0 0 0 .715.9 3.45 3.45 0 0 0 .93.645l-.57.81a3.763 3.763 0 0 1-1.32-1.05 5.222 5.222 0 0 1-.87-1.57 5.608 5.608 0 0 1-.875 1.71A3.734 3.734 0 0 1-60.7-.95l-.59-.82a3.437 3.437 0 0 0 .945-.675 4.482 4.482 0 0 0 .725-.95 4.948 4.948 0 0 0 .465-1.105 4.154 4.154 0 0 0 .165-1.14v-.87h-1.97v-.85h4.91v.85zm14.4 1.81v.86h-1.37v4.6h-1.03v-9.03h1.03v3.57zm-7.92-2.61h4.19a8.141 8.141 0 0 1-.22 1.9 6.172 6.172 0 0 1-.71 1.74 6.8 6.8 0 0 1-1.26 1.525A8.3 8.3 0 0 1-51.36-.88l-.57-.79a5.971 5.971 0 0 0 3.61-4.8h-3.16zm16.34-.19v.78h-5.33v-.78h2.15v-.85h1.03v.85zm1.71 1.28h1.28v.85h-1.28v2.04h-1.03v-4.95h1.03zm-2.19 1.3a1.225 1.225 0 0 1-.595 1.08 2.874 2.874 0 0 1-1.6.39 3.734 3.734 0 0 1-.9-.1 2.238 2.238 0 0 1-.695-.29 1.344 1.344 0 0 1-.445-.465A1.231 1.231 0 0 1-40-4.92a1.251 1.251 0 0 1 .155-.625 1.344 1.344 0 0 1 .445-.465 2.324 2.324 0 0 1 .695-.3 3.564 3.564 0 0 1 .9-.1 2.818 2.818 0 0 1 1.6.4 1.249 1.249 0 0 1 .585 1.09zm-3.39 0a.6.6 0 0 0 .325.54 1.73 1.73 0 0 0 .875.19 1.748 1.748 0 0 0 .89-.19.6.6 0 0 0 .32-.54.608.608 0 0 0-.32-.545 1.711 1.711 0 0 0-.89-.195 1.693 1.693 0 0 0-.875.195.606.606 0 0 0-.325.545zm.78 4.13v.71h5.1v.77h-6.11v-2.2h4.79v-.65h-4.81v-.76h5.83v2.13zm14.39-7.47v6.56h-1.03v-6.56zm-2.48 2.86a2.25 2.25 0 0 1-.18.905 2.1 2.1 0 0 1-.5.715 2.391 2.391 0 0 1-.76.47 2.574 2.574 0 0 1-.945.17 2.613 2.613 0 0 1-.95-.17 2.32 2.32 0 0 1-.76-.47 2.191 2.191 0 0 1-.5-.715 2.2 2.2 0 0 1-.195-.905 2.222 2.222 0 0 1 .185-.915 2.191 2.191 0 0 1 .5-.715 2.254 2.254 0 0 1 .76-.465 2.684 2.684 0 0 1 .95-.165 2.643 2.643 0 0 1 .945.165 2.321 2.321 0 0 1 .77.465 2.1 2.1 0 0 1 .505.715 2.275 2.275 0 0 1 .175.915zm-3.78 0a1.308 1.308 0 0 0 .395 1 1.388 1.388 0 0 0 1 .375 1.468 1.468 0 0 0 .55-.1 1.376 1.376 0 0 0 .44-.28 1.253 1.253 0 0 0 .3-.43 1.433 1.433 0 0 0 .1-.56 1.461 1.461 0 0 0-.1-.57 1.253 1.253 0 0 0-.3-.43 1.309 1.309 0 0 0-.44-.275 1.537 1.537 0 0 0-.55-.095 1.4 1.4 0 0 0-1 .37 1.3 1.3 0 0 0-.395.995zm1.4 5.16h5.12V.6h-6.16v-2.96h1.04zM-18-5.01a5.658 5.658 0 0 1-2.4-.4 1.25 1.25 0 0 1-.825-1.15 1.256 1.256 0 0 1 .825-1.16 5.658 5.658 0 0 1 2.4-.4 5.664 5.664 0 0 1 2.39.4 1.256 1.256 0 0 1 .83 1.16 1.251 1.251 0 0 1-.83 1.15 5.664 5.664 0 0 1-2.39.4zm0-2.34a4.911 4.911 0 0 0-1.6.2q-.545.2-.545.59t.545.58a4.911 4.911 0 0 0 1.6.2 4.911 4.911 0 0 0 1.6-.2q.545-.2.545-.58t-.545-.59a4.911 4.911 0 0 0-1.6-.2zm-4.09 2.87h8.18v.82h-8.18zm2.01 3.63v.75h5.4v.79h-6.42v-2.27h5.15v-.65h-5.17v-.78h6.18v2.16zm10.22-2.09-.43-.82a4.789 4.789 0 0 0 1.24-.38 4.1 4.1 0 0 0 1.015-.66 3.1 3.1 0 0 0 .685-.865 2.089 2.089 0 0 0 .25-.985v-.02h-2.87v-.83h6.82v.83h-2.87v.02a2.028 2.028 0 0 0 .255.98 3.143 3.143 0 0 0 .69.855 4.016 4.016 0 0 0 1.025.65 5.063 5.063 0 0 0 1.26.375l-.42.82a5.438 5.438 0 0 1-2.025-.805A3.865 3.865 0 0 1-6.56-5.24a4.011 4.011 0 0 1-1.315 1.48 5.2 5.2 0 0 1-1.985.82zm3.83 1.76h3.57v.84h-8.18v-.84h3.57v-2.11h1.04zm9.26-4.37h1.78v-2.71h1.03v6.65H5.01V-4.7H3.23zM-.86-7.57h4.14a4.7 4.7 0 0 1-.29 1.67 4.66 4.66 0 0 1-.83 1.4A5.731 5.731 0 0 1 .85-3.385a7.947 7.947 0 0 1-1.73.805l-.45-.82a7.38 7.38 0 0 0 1.365-.585A5.247 5.247 0 0 0 1.1-4.76a3.861 3.861 0 0 0 .725-.93 2.923 2.923 0 0 0 .345-1.04H-.86zM1.28-.24h4.99V.6H.25v-2.88h1.03zm10.56-7.51a4.478 4.478 0 0 1 1.315.185 3.364 3.364 0 0 1 1.05.52 2.482 2.482 0 0 1 .7.8A2.145 2.145 0 0 1 15.16-5.2a2.166 2.166 0 0 1-.255 1.05 2.482 2.482 0 0 1-.7.8 3.285 3.285 0 0 1-1.05.515 4.594 4.594 0 0 1-1.315.18 4.609 4.609 0 0 1-1.31-.18 3.278 3.278 0 0 1-1.055-.515 2.482 2.482 0 0 1-.7-.8A2.166 2.166 0 0 1 8.52-5.2a2.145 2.145 0 0 1 .255-1.04 2.482 2.482 0 0 1 .7-.8 3.356 3.356 0 0 1 1.055-.52 4.492 4.492 0 0 1 1.31-.19zm0 .85a3.394 3.394 0 0 0-.925.12 2.372 2.372 0 0 0-.735.34 1.612 1.612 0 0 0-.485.535 1.427 1.427 0 0 0-.175.7 1.427 1.427 0 0 0 .175.7 1.612 1.612 0 0 0 .485.535 2.372 2.372 0 0 0 .735.34 3.394 3.394 0 0 0 .925.12 3.394 3.394 0 0 0 .925-.12 2.372 2.372 0 0 0 .735-.34 1.612 1.612 0 0 0 .485-.535 1.427 1.427 0 0 0 .175-.7 1.427 1.427 0 0 0-.175-.7 1.612 1.612 0 0 0-.485-.535 2.372 2.372 0 0 0-.735-.34 3.394 3.394 0 0 0-.925-.12zM7.76-1.22h8.18v.85H7.76zm13.79.08h3.59v.85h-8.18v-.85h3.56v-1.54h-2.57v-2.91h5.2V-6.8h-5.22v-.83h6.24v2.86h-5.21v1.26h5.41v.83h-2.82zm13.97-6.72v3.26h-6.09v-3.26zm-1.01 2.44v-1.62h-4.07v1.62zm-6.12 1.71h8.19v.83h-3.5v1.69h-1.03v-1.69h-3.66zm2.03 1.7v1.77h5.25V.6h-6.28v-2.61zM46-4.7v.85h-1.41V.77h-1.03v-9.03h1.03v3.56zm-5.24-1.81v.87a3.771 3.771 0 0 0 .16 1.065 4.5 4.5 0 0 0 .455 1.04 4.313 4.313 0 0 0 .715.9 3.45 3.45 0 0 0 .93.645l-.57.81a3.763 3.763 0 0 1-1.32-1.05 5.222 5.222 0 0 1-.87-1.57 5.608 5.608 0 0 1-.875 1.71A3.734 3.734 0 0 1 38.02-.95l-.59-.82a3.437 3.437 0 0 0 .945-.675 4.482 4.482 0 0 0 .725-.95 4.948 4.948 0 0 0 .465-1.105 4.154 4.154 0 0 0 .165-1.14v-.87h-1.97v-.85h4.91v.85zm5.65 7.81 2.78-9.78h.8L47.21 1.3zm12.65-6v.86h-1.37v4.6h-1.03v-9.03h1.03v3.57zm-7.81-2.66h4.11a10.717 10.717 0 0 1-.175 1.96 6.157 6.157 0 0 1-.63 1.795 6.263 6.263 0 0 1-1.245 1.6A8.506 8.506 0 0 1 51.29-.65l-.56-.8a7.928 7.928 0 0 0 1.93-1.3 5.162 5.162 0 0 0 1.13-1.54l-2.86.28-.14-.89 3.31-.21a7.68 7.68 0 0 0 .24-1.41h-3.09zm13.24 3.94h3.57v.83h-8.18v-.83h3.57v-.83h-2.52v-3.78h6.16v.79h-5.13v.7h4.91v.77h-4.91v.73h5.19v.79h-2.66zM60.8-1.1v-.82h6.23V.77H66V-1.1zm17.77-4.52v.83h-6.21v-3.16h6.15v.83h-5.13v1.5zm-7.22 1.58h8.16v.85h-8.16zm4.05 1.52a5.006 5.006 0 0 1 2.285.43 1.326 1.326 0 0 1 .825 1.21 1.334 1.334 0 0 1-.805 1.22A4.985 4.985 0 0 1 75.4.77a7.007 7.007 0 0 1-1.3-.11 3.524 3.524 0 0 1-.98-.32 1.677 1.677 0 0 1-.615-.52 1.2 1.2 0 0 1-.215-.7 1.177 1.177 0 0 1 .215-.7 1.7 1.7 0 0 1 .615-.515 3.524 3.524 0 0 1 .98-.32 7.007 7.007 0 0 1 1.3-.105zm0 2.49a4.282 4.282 0 0 0 1.535-.215q.535-.215.535-.635t-.535-.635A4.282 4.282 0 0 0 75.4-1.73a4.24 4.24 0 0 0-1.53.215q-.53.215-.53.635t.53.635a4.24 4.24 0 0 0 1.53.215zm-192.075 11.77h.98v9.02h-.98zm-1.81 3.35v-3.18h.96v8.43h-.96v-4.41h-1.14v2.49h-3.48v-5.69h3.48v2.36zm-2.1 2.51v-4.05h-1.56v4.05zm13.11-5.86h.98v9.03h-.98zm-1.84 3.16v-2.99h.97v8.44h-.97v-4.61h-1.33v-.84zm-2.12-2.33v1.58a5.775 5.775 0 0 0 .105 1.1 4.955 4.955 0 0 0 .32 1.04 3.941 3.941 0 0 0 .55.91 3.3 3.3 0 0 0 .785.7l-.58.8a3.171 3.171 0 0 1-1.035-1.005 5.415 5.415 0 0 1-.635-1.385 5.443 5.443 0 0 1-.68 1.52 3.437 3.437 0 0 1-1.1 1.07l-.63-.78a3.262 3.262 0 0 0 .835-.72 4.343 4.343 0 0 0 .6-.95 4.893 4.893 0 0 0 .355-1.1 5.875 5.875 0 0 0 .115-1.155V12.57zm12.82-.83h1.04v9.03h-1.04zm-3.06 1.75v.86a3.928 3.928 0 0 0 .165 1.125 4.08 4.08 0 0 0 .475 1.04 4.311 4.311 0 0 0 .74.875 3.485 3.485 0 0 0 .96.62l-.57.81a3.813 3.813 0 0 1-1.375-1.04 5.1 5.1 0 0 1-.9-1.57 5.509 5.509 0 0 1-.885 1.7 3.794 3.794 0 0 1-1.385 1.14l-.59-.82a3.269 3.269 0 0 0 .955-.66 4.636 4.636 0 0 0 .735-.945 4.643 4.643 0 0 0 .475-1.115 4.294 4.294 0 0 0 .165-1.16v-.86h-2.01v-.85h5.06v.85zm10.46 5.37h3.59v.85h-8.18v-.85h3.56v-1.54h-2.57v-2.91h5.2V13.2h-5.22v-.83h6.24v2.86h-5.21v1.26h5.41v.83h-2.82zm11.88-6.09v.82h-5.01v-.82h2.03v-1.05h1.03v1.05zm1.42 5.86v-1.81h-1.38v-.83h1.38v-1.08h-1.38v-.84h1.38v-2.33h1.03v6.89zm-1.81-2.87a1.652 1.652 0 0 1-.15.71 1.638 1.638 0 0 1-.425.555 1.917 1.917 0 0 1-.655.36 2.711 2.711 0 0 1-.85.125 2.677 2.677 0 0 1-.84-.125 1.918 1.918 0 0 1-.655-.36 1.638 1.638 0 0 1-.425-.555 1.652 1.652 0 0 1-.15-.71 1.686 1.686 0 0 1 .15-.715 1.576 1.576 0 0 1 .425-.555 1.966 1.966 0 0 1 .655-.355 2.677 2.677 0 0 1 .84-.125 2.711 2.711 0 0 1 .85.125 1.966 1.966 0 0 1 .655.355 1.576 1.576 0 0 1 .425.555 1.686 1.686 0 0 1 .15.715zm-3.18 0a.84.84 0 0 0 .305.695 1.231 1.231 0 0 0 .795.245 1.243 1.243 0 0 0 .81-.245.846.846 0 0 0 .3-.695.861.861 0 0 0-.3-.7 1.226 1.226 0 0 0-.81-.25 1.214 1.214 0 0 0-.795.25.855.855 0 0 0-.3.7zm1.18 4h5.05v.84h-6.09v-2.55h1.04zm13.49-4.29h1.25v.84h-8.18v-.84h5.9a9.09 9.09 0 0 0 .21-1.35q.04-.59.04-1.1h-5.12v-.84h6.13v.7q0 .54-.03 1.16a9.246 9.246 0 0 1-.2 1.43zm-5.94 5.19V17.4h6.17v3.26zm1.01-2.44v1.62h4.15v-1.62zm13.65-4.45h-2.09a3.793 3.793 0 0 1-1.38 1.735 6.914 6.914 0 0 1-2.5 1.015l-.36-.84a5.626 5.626 0 0 0 2.45-1.05 2.5 2.5 0 0 0 .94-1.66h-2.9v-.83h4.04a4.009 4.009 0 0 1-.07.83h1.87v-1.23h1.03v4.58h-1.03v-.82h-2.21v-.8h2.21zm-3.8 6.09h5.08v.83h-6.11v-2.43h4.83v-.75h-4.85v-.82h5.88v2.34h-4.83zm13.27-8.13h.98v9.03h-.98zm-1.82 3.18v-3h.97v8.42h-.97v-4.58h-1.33v-.84zm-2.16-1.34v.65a6 6 0 0 0 .11 1.14 4.925 4.925 0 0 0 .335 1.075 4.04 4.04 0 0 0 .57.925 2.893 2.893 0 0 0 .825.69l-.6.75a3.292 3.292 0 0 1-1.065-1.015 5.329 5.329 0 0 1-.665-1.425 5.618 5.618 0 0 1-.675 1.56 3.555 3.555 0 0 1-1.095 1.1l-.62-.76a3.34 3.34 0 0 0 .835-.74 4.161 4.161 0 0 0 .585-.975 5.489 5.489 0 0 0 .345-1.13 6.283 6.283 0 0 0 .115-1.2v-.65h-1.59v-.85h4.08v.85zm12.59-.29v-.61h-5.11v-.71h6.13v1.99h-5.1v.64h5.26v.72h-6.27v-2.03zm-6.14 2.6h8.19v.76h-8.19zm1.99 3.39v.69h5.47v.71h-6.49V18.6h5.2v-.64h-5.22v-.71h6.24v2.02zm13.53-3.21a5.68 5.68 0 0 1-1.31-.14 3.4 3.4 0 0 1-1.01-.4 2.014 2.014 0 0 1-.655-.63 1.516 1.516 0 0 1-.235-.83 1.5 1.5 0 0 1 .235-.82 2.014 2.014 0 0 1 .655-.63 3.4 3.4 0 0 1 1.01-.4 5.68 5.68 0 0 1 1.31-.14 5.632 5.632 0 0 1 1.3.14 3.4 3.4 0 0 1 1.01.4 2.014 2.014 0 0 1 .655.63 1.5 1.5 0 0 1 .235.82 1.516 1.516 0 0 1-.235.83 2.014 2.014 0 0 1-.655.63 3.4 3.4 0 0 1-1.01.4 5.632 5.632 0 0 1-1.3.14zm0-3.16a3.361 3.361 0 0 0-1.56.31.943.943 0 0 0-.59.85.949.949 0 0 0 .575.86 3.344 3.344 0 0 0 1.575.31 3.33 3.33 0 0 0 1.555-.31.949.949 0 0 0 .585-.86.809.809 0 0 0-.155-.485 1.252 1.252 0 0 0-.435-.365 2.464 2.464 0 0 0-.675-.23 4.419 4.419 0 0 0-.875-.08zm4.11 3.93.01.85h-2.04v3.09h-1.05v-3.09h-2.06v3.09h-1.05v-3.09h-2v-.85zm5.61 2.01h3.59v.85h-8.18v-.85h3.56v-2.13h-2.56v-4.29h6.18v.83h-5.15v2.63h5.23v.83h-2.67zm13.01-3.47v.86h-1.39v4.55h-1.04v-9.04h1.04v3.63zm-5.27-3.5v1.26h2.11v.84h-5.29v-.84h2.15v-1.26zm-.5 2.74a2.5 2.5 0 0 1 .89.155 2.133 2.133 0 0 1 .71.435 2.009 2.009 0 0 1 .47.665 2.094 2.094 0 0 1 .17.855 2.1 2.1 0 0 1-.17.85 2 2 0 0 1-.47.67 2.133 2.133 0 0 1-.71.435 2.5 2.5 0 0 1-.89.155 2.526 2.526 0 0 1-.9-.155 2.133 2.133 0 0 1-.71-.435 1.937 1.937 0 0 1-.465-.67 2.159 2.159 0 0 1-.165-.85 2.149 2.149 0 0 1 .165-.855 1.949 1.949 0 0 1 .47-.665 2.133 2.133 0 0 1 .71-.435 2.526 2.526 0 0 1 .89-.155zm0 3.37a1.245 1.245 0 0 0 .9-.345 1.218 1.218 0 0 0 .355-.915 1.218 1.218 0 0 0-.355-.915 1.245 1.245 0 0 0-.9-.345 1.245 1.245 0 0 0-.9.345 1.218 1.218 0 0 0-.355.915 1.218 1.218 0 0 0 .355.915 1.245 1.245 0 0 0 .895.345zm13.82-3.65v.84h-6.2v-3.11h1.03v2.27zm-7.26 1.92h8.2v.83h-8.2zm2.03 1.66v1.83h5.28v.83h-6.31v-2.66zm15.87-3.78h-2.1a5.264 5.264 0 0 1-3.84 3.02l-.41-.82A5.8 5.8 0 0 0 5.5 15.08a3.066 3.066 0 0 0 .985-1.86h-3v-.83h4.1q0 .24-.02.465t-.06.435h1.86v-1.55h1.03v5.31h-1.03v-1.04h-2.19v-.84h2.19zm-1.93 3.03a5.682 5.682 0 0 1 1.245.125 3.341 3.341 0 0 1 .95.355 1.776 1.776 0 0 1 .61.56 1.326 1.326 0 0 1 .215.74 1.343 1.343 0 0 1-.215.75 1.776 1.776 0 0 1-.61.56 3.341 3.341 0 0 1-.95.355 5.682 5.682 0 0 1-1.245.125 5.682 5.682 0 0 1-1.245-.13 3.268 3.268 0 0 1-.945-.355 1.789 1.789 0 0 1-.605-.56 1.343 1.343 0 0 1-.215-.75 1.326 1.326 0 0 1 .215-.74 1.789 1.789 0 0 1 .605-.56 3.268 3.268 0 0 1 .945-.355 5.682 5.682 0 0 1 1.245-.12zm0 2.76a3.515 3.515 0 0 0 1.47-.25.789.789 0 0 0 .53-.73.78.78 0 0 0-.53-.725 3.579 3.579 0 0 0-1.47-.245 3.542 3.542 0 0 0-1.465.245.779.779 0 0 0-.525.725.789.789 0 0 0 .525.73 3.48 3.48 0 0 0 1.465.25zm8.75-3.84a5.68 5.68 0 0 1-1.31-.14 3.316 3.316 0 0 1-1.01-.405 2.062 2.062 0 0 1-.655-.635 1.583 1.583 0 0 1 0-1.66 2.014 2.014 0 0 1 .655-.63 3.4 3.4 0 0 1 1.01-.4 6.152 6.152 0 0 1 2.61 0 3.4 3.4 0 0 1 1.01.4 2.014 2.014 0 0 1 .655.63 1.583 1.583 0 0 1 0 1.66 2.062 2.062 0 0 1-.655.635 3.316 3.316 0 0 1-1.01.405 5.632 5.632 0 0 1-1.3.14zm0-3.18a3.344 3.344 0 0 0-1.575.31.942.942 0 0 0 0 1.735 3.391 3.391 0 0 0 1.575.305 3.376 3.376 0 0 0 1.555-.305.936.936 0 0 0 0-1.735 3.33 3.33 0 0 0-1.555-.31zm4.11 3.95v.85h-3.61v3.07h-1.03V17.7h-3.55v-.85zm.71 3.96.38-2.08h1.18l-.64 2.08zm13.1-5.49v.85h-1.41v4.6h-1.03v-9.03h1.03v3.58zm-5.24-2.83v1.48a4.723 4.723 0 0 0 .155 1.195 4.857 4.857 0 0 0 .44 1.115 4.269 4.269 0 0 0 .69.935 3.3 3.3 0 0 0 .915.665l-.63.82a3.8 3.8 0 0 1-1.26-1.065 5.121 5.121 0 0 1-.82-1.595 5.518 5.518 0 0 1-.845 1.685 3.838 3.838 0 0 1-1.335 1.145l-.63-.83a3.457 3.457 0 0 0 .955-.7 4.42 4.42 0 0 0 .72-.975 5.052 5.052 0 0 0 .455-1.155 4.925 4.925 0 0 0 .16-1.245V12.49zm12.46-.75h1.03v9.03h-1.03zm-5.91.95h4.28a8.522 8.522 0 0 1-.215 1.935 5.974 5.974 0 0 1-.71 1.745 6.554 6.554 0 0 1-1.295 1.53 8.6 8.6 0 0 1-1.96 1.265l-.55-.82a6.992 6.992 0 0 0 2.66-2.055 5.291 5.291 0 0 0 1.01-2.755h-3.22zm15.08-.96h1.04v9.05h-1.04zm-3.48.64a2.906 2.906 0 0 1 .98.16 2.419 2.419 0 0 1 .78.445 2.008 2.008 0 0 1 .515.685 2.185 2.185 0 0 1 0 1.76 2.008 2.008 0 0 1-.515.685 2.419 2.419 0 0 1-.78.445 3.081 3.081 0 0 1-1.96 0 2.36 2.36 0 0 1-.775-.445 2.038 2.038 0 0 1-.51-.685 2.185 2.185 0 0 1 0-1.76 2.038 2.038 0 0 1 .51-.685 2.36 2.36 0 0 1 .775-.445 2.906 2.906 0 0 1 .98-.16zm0 .88a1.54 1.54 0 0 0-1.035.345 1.3 1.3 0 0 0 0 1.885 1.526 1.526 0 0 0 1.035.35 1.546 1.546 0 0 0 1.04-.35 1.288 1.288 0 0 0 0-1.885 1.56 1.56 0 0 0-1.04-.345zm-2.74 5.62-.13-.85q.61 0 1.32-.005t1.465-.035q.755-.03 1.525-.09t1.5-.17l.07.75q-.75.14-1.515.22t-1.51.12q-.74.04-1.435.05t-1.29.01zM63.9 15.3v.86h-1.37v4.6H61.5v-9.03h1.03v3.57zm-7.92-2.61h4.19a8.141 8.141 0 0 1-.22 1.9 6.172 6.172 0 0 1-.71 1.74 6.8 6.8 0 0 1-1.26 1.525 8.3 8.3 0 0 1-1.88 1.265l-.57-.79a5.971 5.971 0 0 0 3.61-4.8h-3.16zm16 1.45v.83h-6.17v-3.06h1.03v2.23zm-7.24 1.74h8.17v.84h-8.17zm4.06 1.54a4.985 4.985 0 0 1 2.305.43 1.339 1.339 0 0 1-.02 2.465 4.957 4.957 0 0 1-2.285.435 7.007 7.007 0 0 1-1.3-.11 3.414 3.414 0 0 1-.98-.325 1.72 1.72 0 0 1-.615-.525 1.2 1.2 0 0 1-.215-.7 1.349 1.349 0 0 1 .83-1.235 4.962 4.962 0 0 1 2.28-.435zm0 2.53a4.193 4.193 0 0 0 1.535-.22q.535-.22.535-.64t-.535-.645a4.282 4.282 0 0 0-1.535-.215 4.24 4.24 0 0 0-1.53.215q-.53.215-.53.645t.53.64a4.151 4.151 0 0 0 1.53.22zm11.6-2.89v-2.68h-1.83v-.84h1.83v-1.81h1.03v5.33zm-1.09-1.17-.55.81a3.48 3.48 0 0 1-1.25-.755 3.551 3.551 0 0 1-.81-1.155 3.928 3.928 0 0 1-.865 1.32 3.614 3.614 0 0 1-1.385.86l-.54-.83a3.429 3.429 0 0 0 .96-.49 3.163 3.163 0 0 0 .705-.71 3.028 3.028 0 0 0 .43-.87 3.239 3.239 0 0 0 .145-.96v-.89h1.04v.84a2.936 2.936 0 0 0 .14.905 2.89 2.89 0 0 0 1.075 1.47 3.34 3.34 0 0 0 .9.455zm-.89 1.42a6.422 6.422 0 0 1 1.275.115 3.241 3.241 0 0 1 .96.34 1.726 1.726 0 0 1 .605.545 1.374 1.374 0 0 1 0 1.46 1.726 1.726 0 0 1-.605.545 3.241 3.241 0 0 1-.96.34 7.07 7.07 0 0 1-2.54 0 3.241 3.241 0 0 1-.96-.34 1.726 1.726 0 0 1-.6-.545 1.374 1.374 0 0 1 0-1.46 1.726 1.726 0 0 1 .6-.545 3.241 3.241 0 0 1 .96-.34 6.366 6.366 0 0 1 1.26-.115zm0 2.65a3.773 3.773 0 0 0 1.495-.235.709.709 0 0 0 0-1.37 3.773 3.773 0 0 0-1.495-.235 3.735 3.735 0 0 0-1.49.235.711.711 0 0 0 0 1.37 3.735 3.735 0 0 0 1.485.235zm11.12-8.23h1.04v9.06h-1.04zm-3.77.67a1.967 1.967 0 0 1 .935.225 2.2 2.2 0 0 1 .735.64 3.176 3.176 0 0 1 .485 1 4.584 4.584 0 0 1 .175 1.315 4.688 4.688 0 0 1-.175 1.325 3.1 3.1 0 0 1-.485 1 2.219 2.219 0 0 1-.735.635 1.967 1.967 0 0 1-.935.225 1.946 1.946 0 0 1-.925-.225 2.219 2.219 0 0 1-.735-.635 3.1 3.1 0 0 1-.485-1 4.688 4.688 0 0 1-.175-1.325 4.583 4.583 0 0 1 .175-1.315 3.176 3.176 0 0 1 .485-1 2.2 2.2 0 0 1 .735-.64 1.946 1.946 0 0 1 .92-.225zm0 .93a1.1 1.1 0 0 0-.965.595 3.165 3.165 0 0 0-.365 1.655 3.207 3.207 0 0 0 .365 1.68 1.1 1.1 0 0 0 .965.59 1.109 1.109 0 0 0 .97-.59 3.171 3.171 0 0 0 .37-1.68 3.13 3.13 0 0 0-.37-1.655 1.108 1.108 0 0 0-.975-.595zm16.26-1.58v5.13H101v-5.13zm-4.87 4.75a2.871 2.871 0 0 1-.96-.155 2.3 2.3 0 0 1-.76-.435 1.972 1.972 0 0 1-.5-.675 2.168 2.168 0 0 1 0-1.73 1.972 1.972 0 0 1 .5-.675 2.3 2.3 0 0 1 .76-.435 2.871 2.871 0 0 1 .96-.155 2.827 2.827 0 0 1 .955.155 2.31 2.31 0 0 1 .755.435 1.972 1.972 0 0 1 .5.675 2.168 2.168 0 0 1 0 1.73 1.972 1.972 0 0 1-.5.675 2.31 2.31 0 0 1-.755.435 2.827 2.827 0 0 1-.96.155zm0-3.41a1.445 1.445 0 0 0-1 .35 1.3 1.3 0 0 0 0 1.865 1.607 1.607 0 0 0 1.99 0 1.3 1.3 0 0 0 0-1.865 1.445 1.445 0 0 0-.995-.35zm3.91 4.18v.4a2.211 2.211 0 0 0 .44 1.315 2.454 2.454 0 0 0 .55.53 2.759 2.759 0 0 0 .77.375l-.51.76a2.994 2.994 0 0 1-1.1-.65 2.848 2.848 0 0 1-.67-.97 3.431 3.431 0 0 1-.62.99 2.76 2.76 0 0 1-1.03.71 2.754 2.754 0 0 1-1.045-.69 3.064 3.064 0 0 1-.615-.99 3.122 3.122 0 0 1-.69.95 3.02 3.02 0 0 1-1.065.645l-.5-.76a2.687 2.687 0 0 0 1.31-.935 2.212 2.212 0 0 0 .33-.625 2.076 2.076 0 0 0 .11-.66v-.4h1v.4a2.579 2.579 0 0 0 .27 1.13 2.293 2.293 0 0 0 .87.94 2.549 2.549 0 0 0 .52-.455 3.042 3.042 0 0 0 .37-.53 2.347 2.347 0 0 0 .22-.555 2.188 2.188 0 0 0 .07-.53v-.4zm6.8-5.02a4.478 4.478 0 0 1 1.315.185 3.364 3.364 0 0 1 1.05.52 2.482 2.482 0 0 1 .7.805 2.269 2.269 0 0 1 0 2.09 2.482 2.482 0 0 1-.7.8 3.285 3.285 0 0 1-1.05.515 4.875 4.875 0 0 1-2.625 0 3.278 3.278 0 0 1-1.055-.515 2.482 2.482 0 0 1-.7-.8 2.269 2.269 0 0 1 0-2.09 2.482 2.482 0 0 1 .7-.805 3.356 3.356 0 0 1 1.055-.52 4.492 4.492 0 0 1 1.305-.185zm0 .85a3.394 3.394 0 0 0-.925.12 2.372 2.372 0 0 0-.735.34 1.612 1.612 0 0 0-.485.535 1.508 1.508 0 0 0 0 1.41 1.612 1.612 0 0 0 .485.535 2.372 2.372 0 0 0 .735.34 3.625 3.625 0 0 0 1.85 0 2.372 2.372 0 0 0 .735-.34 1.612 1.612 0 0 0 .485-.535 1.508 1.508 0 0 0 0-1.41 1.612 1.612 0 0 0-.485-.535 2.372 2.372 0 0 0-.735-.34 3.394 3.394 0 0 0-.93-.12zm-4.08 5.68h8.18v.85h-8.18zm15.63-7.04h1.03v9.03h-1.03zm-4.88.88v4.99q.97-.01 1.965-.1a19.384 19.384 0 0 0 2.085-.31l.11.86a20.238 20.238 0 0 1-2.265.335q-1.085.1-2.145.095h-.77v-5.87zM-128 33.68h1.59v-1.94h1.04v4.63h-1.04v-1.85H-128zm.48 1.84-.48.8a3.7 3.7 0 0 1-1.305-.7 3.226 3.226 0 0 1-.835-1.075 3.537 3.537 0 0 1-.86 1.2 3.63 3.63 0 0 1-1.37.775l-.5-.8a3.468 3.468 0 0 0 .925-.455 3.346 3.346 0 0 0 .69-.64 2.739 2.739 0 0 0 .435-.755 2.264 2.264 0 0 0 .15-.8v-.09h-1.9v-.83h4.83v.83h-1.89v.1a2.04 2.04 0 0 0 .145.75 2.456 2.456 0 0 0 .415.69 3.069 3.069 0 0 0 .665.58 3.675 3.675 0 0 0 .88.42zm-2.7 4.35h5.15v.81h-6.17v-2.37h4.85v-.72h-4.86v-.81h5.88v2.29h-4.85zm13.29-8.14h.98v9.03h-.98v-4.62H-118v4.18h-.97v-8.4h.97v3.38h1.07zm-5.41 1.92v4.12q.78-.01 1.435-.06a11.3 11.3 0 0 0 1.355-.19l.09.85q-.41.08-.795.13t-.78.075q-.395.025-.815.035t-.9.01h-.6v-5.81h3.34v.84zm16.58.12h-2.09a3.793 3.793 0 0 1-1.38 1.735 6.913 6.913 0 0 1-2.5 1.015l-.36-.84a5.626 5.626 0 0 0 2.45-1.05 2.5 2.5 0 0 0 .94-1.66h-2.9v-.83h4.04a4.009 4.009 0 0 1-.07.83h1.87v-1.23h1.03v4.58h-1.03v-.82h-2.21v-.8h2.21zm-3.8 6.09h5.08v.83h-6.11v-2.43h4.83v-.75h-4.85v-.82h5.88v2.34h-4.83zm13.27-8.13h.98v9.03h-.98zm-1.82 3.18v-3h.97v8.42h-.97v-4.58h-1.33v-.84zm-2.16-1.34v.65a6 6 0 0 0 .11 1.14 4.924 4.924 0 0 0 .335 1.075 4.04 4.04 0 0 0 .57.925 2.893 2.893 0 0 0 .825.69l-.6.75a3.292 3.292 0 0 1-1.065-1.015 5.329 5.329 0 0 1-.665-1.425 5.618 5.618 0 0 1-.675 1.56 3.555 3.555 0 0 1-1.1 1.1l-.62-.76a3.34 3.34 0 0 0 .835-.74 4.161 4.161 0 0 0 .585-.975 5.49 5.49 0 0 0 .345-1.13 6.283 6.283 0 0 0 .115-1.195v-.65h-1.59v-.85h4.08v.85zm14.86 1.8v.86h-1.39v4.55h-1.04v-9.04h1.04v3.63zm-5.27-3.5v1.26h2.11v.84h-5.29v-.84h2.15v-1.26zm-.5 2.74a2.5 2.5 0 0 1 .89.155 2.133 2.133 0 0 1 .71.435 2.009 2.009 0 0 1 .47.665 2.094 2.094 0 0 1 .17.855 2.1 2.1 0 0 1-.17.85 2 2 0 0 1-.47.67 2.133 2.133 0 0 1-.71.435 2.5 2.5 0 0 1-.89.155 2.526 2.526 0 0 1-.9-.155 2.133 2.133 0 0 1-.71-.435 1.937 1.937 0 0 1-.465-.67 2.159 2.159 0 0 1-.165-.85 2.149 2.149 0 0 1 .165-.855 1.949 1.949 0 0 1 .465-.665 2.133 2.133 0 0 1 .71-.435 2.526 2.526 0 0 1 .895-.155zm0 3.37a1.245 1.245 0 0 0 .9-.345 1.218 1.218 0 0 0 .355-.915 1.218 1.218 0 0 0-.355-.915 1.245 1.245 0 0 0-.9-.345 1.245 1.245 0 0 0-.9.345 1.218 1.218 0 0 0-.355.915 1.218 1.218 0 0 0 .355.915 1.245 1.245 0 0 0 .895.345zm12.96-6.24h1.04v9.03h-1.04zm-3.06 1.75v.86a3.928 3.928 0 0 0 .165 1.125 4.08 4.08 0 0 0 .475 1.04 4.311 4.311 0 0 0 .74.875 3.485 3.485 0 0 0 .96.62l-.57.81a3.813 3.813 0 0 1-1.375-1.04 5.1 5.1 0 0 1-.9-1.57 5.509 5.509 0 0 1-.885 1.7 3.794 3.794 0 0 1-1.385 1.14l-.59-.82a3.269 3.269 0 0 0 .955-.66 4.636 4.636 0 0 0 .735-.945 4.643 4.643 0 0 0 .475-1.115 4.294 4.294 0 0 0 .165-1.16v-.86h-2.01v-.85h5.06v.85zm16.51 1.78v.85h-1.41v4.66h-1.03v-9.04h1.03v3.53zm-8.09 3.25v-5.9h4.23v5.9zm1.02-5.08v4.26h2.19v-4.26zm14.26-1.71h1.04v9.06h-1.04zm-3.06.76v1.48a4.673 4.673 0 0 0 .165 1.235 4.7 4.7 0 0 0 .47 1.13 4.226 4.226 0 0 0 .74.94 3.457 3.457 0 0 0 .965.655l-.6.82a3.909 3.909 0 0 1-1.355-1.07 5.042 5.042 0 0 1-.885-1.64 5.488 5.488 0 0 1-.9 1.755 3.958 3.958 0 0 1-1.4 1.155l-.61-.86a3.33 3.33 0 0 0 .98-.67 4.344 4.344 0 0 0 .75-.98 5.075 5.075 0 0 0 .48-1.185 4.948 4.948 0 0 0 .17-1.285v-1.48zm12.11.98v-.05h-5.39v-.84h6.43v.89q0 .42-.005.87t-.04.965q-.035.515-.1 1.11t-.2 1.295l-1.04-.11a16.137 16.137 0 0 0 .305-2.33q.035-1 .035-1.8zm-2.16 5.27h4.08v.85h-8.16v-.85h3.04v-3.18h1.04zm15-7v4.77h-.98v-4.77zm-2.75 4.7v-2.3h-1.23v-.84h1.23v-1.4h.97v4.54zm-.47-1.01-.53.79a3 3 0 0 1-1.005-.69 3.177 3.177 0 0 1-.635-1 3.819 3.819 0 0 1-.67 1.145 3.152 3.152 0 0 1-1.06.805l-.57-.78a2.862 2.862 0 0 0 .79-.515 3.147 3.147 0 0 0 .565-.69 3.03 3.03 0 0 0 .335-.795 3.266 3.266 0 0 0 .11-.83v-.77h1v.8a2.97 2.97 0 0 0 .1.785 2.687 2.687 0 0 0 .31.715 2.5 2.5 0 0 0 .52.595 2.712 2.712 0 0 0 .735.435zm-1.77 4.45h5.32v.81h-6.34v-2.33h5v-.68h-5.02v-.8h6.03v2.24h-4.99zm13-8.16h1.03v9.06h-1.03v-4.82h-1.58v-.85h1.58zm-5.12 4.09v1.99q1.04 0 1.915-.055a16.531 16.531 0 0 0 1.8-.215l.09.84q-.51.09-.99.145t-.975.085q-.495.03-1.02.04t-1.115.01h-.71v-3.67h3.02v-1.61h-3.04v-.83h4.05v3.27zm14.98-3.92v3.01h-6.06v-3.01h1.02v.75h4.02v-.75zm-1.02 2.23v-.72h-4.02v.72zm-6.1 1.42h8.18v.82h-8.18zm2.01 3.64v.72h5.4v.79h-6.42v-2.24h5.15v-.64h-5.17v-.77h6.18v2.14zm13.61-7.46h1.04v9.07h-1.04zm-4.86 4.17v1.9q1.07-.01 2.055-.075t2.055-.235l.11.84q-.58.1-1.13.165t-1.1.1q-.55.035-1.105.045t-1.155.01h-.77v-3.58h3.15v-1.68h-3.17v-.84h4.21v3.35zm16.13-2.42v-.05h-5.39v-.84h6.43v1.76q0 .45-.04.965-.035.515-.105 1.11t-.2 1.295L1.6 37.6a16.137 16.137 0 0 0 .3-2.33q.045-1 .045-1.8zm-2.16 5.27h4.08v.85h-8.16v-.85h3.04v-3.18h1.04zm11.78-7h.98v5.3h-.98v-2.27h-1V37H9.6v-5.09h.97v2.02h1zm-6.28.65h3.54a4.784 4.784 0 0 1-.835 2.87 5.663 5.663 0 0 1-2.615 1.86l-.49-.74a5.29 5.29 0 0 0 2.06-1.32 3.322 3.322 0 0 0 .82-1.84H5.285zm1.12 5.89v-.83h6.14v3.33h-1.03v-2.5zm15.34-6.54v6.77h-.98v-6.77zM19 38.25v-3.48h-1.27v-.85H19v-2.01h.97v6.34zm-.47-1.99-.56.78a2.879 2.879 0 0 1-.97-.71 3.486 3.486 0 0 1-.63-1.02 4.257 4.257 0 0 1-.68 1.15 2.963 2.963 0 0 1-1.06.81l-.57-.78a3.111 3.111 0 0 0 .79-.545 3.3 3.3 0 0 0 .565-.705 3.11 3.11 0 0 0 .335-.8 3.23 3.23 0 0 0 .11-.82v-1.26h1v1.26a2.989 2.989 0 0 0 .415 1.525 2.784 2.784 0 0 0 1.25 1.115zm-1.71 3.5H22v.84h-6.22v-2.89h1.04zm12.95-8.04h1.04v9.06h-1.04v-4.89h-1.73v-.85h1.73zm-5.03 4.16v1.95q.54 0 1.01-.015t.91-.045q.44-.03.865-.08t.865-.12l.09.83q-.48.09-.945.145t-.955.08q-.49.025-1.02.035t-1.14.01h-.71v-6.15h4.19v.85h-3.16v1.69h2.79v.82zm12.36 2.98h3.59v.85h-8.18v-.85h3.56v-1.54H33.5v-2.91h5.2V33.2h-5.22v-.83h6.24v2.86h-5.21v1.26h5.41v.83H37.1zm13.97-6.72v3.26h-6.09v-3.26zm-1.01 2.44v-1.62h-4.07v1.62zm-6.12 1.71h8.19v.83h-3.5v1.69H47.6v-1.69h-3.66zm2.03 1.7v1.77h5.25v.84h-6.28v-2.61zm13.57-6.26h1.04v9.05h-1.04zm-3.48.64a2.906 2.906 0 0 1 .98.16 2.419 2.419 0 0 1 .78.445 2.008 2.008 0 0 1 .515.685 2.185 2.185 0 0 1 0 1.76 2.008 2.008 0 0 1-.515.685 2.419 2.419 0 0 1-.78.445 3.081 3.081 0 0 1-1.96 0 2.36 2.36 0 0 1-.78-.45 2.038 2.038 0 0 1-.51-.685 2.185 2.185 0 0 1 0-1.76 2.038 2.038 0 0 1 .51-.685 2.36 2.36 0 0 1 .775-.445 2.906 2.906 0 0 1 .98-.155zm0 .88a1.54 1.54 0 0 0-1.035.345 1.3 1.3 0 0 0 0 1.885 1.526 1.526 0 0 0 1.035.35 1.546 1.546 0 0 0 1.04-.35 1.288 1.288 0 0 0 0-1.885 1.56 1.56 0 0 0-1.045-.345zm-2.74 5.62-.13-.85q.61 0 1.32-.005t1.465-.035q.755-.03 1.525-.09t1.5-.17l.07.75q-.75.14-1.515.22t-1.505.12q-.74.04-1.435.05t-1.3.01zm12.09-2.71-.37-.81a5.276 5.276 0 0 0 1.19-.305 4 4 0 0 0 .955-.52 2.671 2.671 0 0 0 .645-.675 1.541 1.541 0 0 0 .26-.77h-2.75v-.83h6.65v.83h-2.73a1.541 1.541 0 0 0 .26.77 2.671 2.671 0 0 0 .645.675 4 4 0 0 0 .955.52 5.276 5.276 0 0 0 1.19.305l-.37.81a5.578 5.578 0 0 1-1.98-.69 3.47 3.47 0 0 1-1.29-1.27 3.489 3.489 0 0 1-1.28 1.27 5.33 5.33 0 0 1-1.985.69zm7.35.66-.01.83h-3.59v3.13h-1.03v-3.13h-3.54v-.83zm7.42-5.09h1.04v9.06h-1.04zm-3.06.76v1.48a4.739 4.739 0 0 0 .635 2.365 4.226 4.226 0 0 0 .74.94 3.457 3.457 0 0 0 .965.655l-.6.82a3.909 3.909 0 0 1-1.36-1.07 5.042 5.042 0 0 1-.885-1.64 5.488 5.488 0 0 1-.895 1.755 3.958 3.958 0 0 1-1.4 1.155l-.61-.86a3.33 3.33 0 0 0 .98-.67 4.344 4.344 0 0 0 .75-.98 5.075 5.075 0 0 0 .48-1.185 4.948 4.948 0 0 0 .17-1.285v-1.48zm12.29-.75h1.03v9.03h-1.03zm-5.91.95h4.28a8.522 8.522 0 0 1-.215 1.935 5.974 5.974 0 0 1-.71 1.745 6.554 6.554 0 0 1-1.3 1.53 8.6 8.6 0 0 1-1.955 1.26l-.55-.82a6.993 6.993 0 0 0 2.66-2.055 5.291 5.291 0 0 0 1.01-2.755H83.5zm19.33 2.52v.86h-1.41v4.71h-1.03v-9.04h1.03v3.47zm-4.82-.43v-2.3h1.02v6.16h-4.29v-6.16h1.03v2.3zm0 3.03V35.6h-2.24v2.21zm13.95-3.98v.85h-1.28v2.05h-1.03v-4.98h1.03v2.08zm-3.08 1.6.11.84q-.51.09-1 .145t-1 .09q-.51.035-1.065.045t-1.205.01h-.73v-2.64h3.06V33h-3.08v-.83h4.1v2.54H105v1.01q.58 0 1.085-.01t.97-.045q.465-.035.915-.09t.905-.145zm.78 2.65v-.97h1.02v3.55h-5.77v-3.55h1.02v.97zm0 1.75v-.94h-3.73v.94zm9.6-8.09h1.03v9.03h-1.03zm-4.88.88v4.99q.97-.01 1.965-.1a19.385 19.385 0 0 0 2.085-.31l.11.86a20.239 20.239 0 0 1-2.265.335q-1.085.1-2.145.1h-.77V32.62zm16.05 2.59v.85h-1.41v4.72h-1.03v-9.05h1.03v3.48zm-7.01-1.78v4.27q1.08 0 1.98-.065t1.84-.225l.11.85q-.51.09-1.005.15t-1 .09q-.51.03-1.055.045t-1.155.015h-.74v-5.97h4.2v.84zm8.92 5.46v1.24h-1.18v-1.24z" transform="translate(180 272)"/>
        <path id="패스_2474" data-name="패스 2474" class="cls-4" d="M-41.475-8.27h1.03v5.46h-1.03zm-.84 4.3-.52.8a3.66 3.66 0 0 1-1.34-.75 3.438 3.438 0 0 1-.86-1.17 3.686 3.686 0 0 1-.865 1.26 3.827 3.827 0 0 1-1.375.83l-.54-.81a3.515 3.515 0 0 0 .955-.48 3.236 3.236 0 0 0 .7-.68 2.942 2.942 0 0 0 .435-.82 2.741 2.741 0 0 0 .15-.89v-.17h-1.96v-.83h4.94v.83h-1.93v.17a2.469 2.469 0 0 0 .15.845 2.748 2.748 0 0 0 .435.775 3.126 3.126 0 0 0 .695.64 3.649 3.649 0 0 0 .93.45zm-4.22 2.44v-.83h6.09V.77h-1.03v-2.3zm14.29-6.73h1.04V.78h-1.04v-4.64h-1.94v-.85h1.94zm-6.09.95h4.19a8.967 8.967 0 0 1-.2 1.91 6.006 6.006 0 0 1-.67 1.735 6.349 6.349 0 0 1-1.245 1.52A8.358 8.358 0 0 1-38.185-.87l-.55-.8a8.434 8.434 0 0 0 1.52-.955 5.7 5.7 0 0 0 1.07-1.115 4.863 4.863 0 0 0 .66-1.28 5.952 5.952 0 0 0 .29-1.45h-3.14zm15.57-.95h.98V.76h-.98v-4.69h-1.07V.32h-.97v-8.4h.97v3.31h1.07zm-5.45 4.25v1.84q.72-.01 1.395-.055t1.455-.175l.09.84a13.925 13.925 0 0 1-1.695.2q-.785.04-1.625.04h-.61v-3.52h2.38v-1.65h-2.4v-.84h3.39v3.32zm14.24.07a5.68 5.68 0 0 1-1.31-.14 3.4 3.4 0 0 1-1.01-.4 2.014 2.014 0 0 1-.655-.63 1.516 1.516 0 0 1-.235-.83 1.5 1.5 0 0 1 .235-.82 2.014 2.014 0 0 1 .655-.63 3.4 3.4 0 0 1 1.01-.4 5.68 5.68 0 0 1 1.31-.14 5.632 5.632 0 0 1 1.3.14 3.4 3.4 0 0 1 1.01.4 2.014 2.014 0 0 1 .655.63 1.5 1.5 0 0 1 .235.82 1.516 1.516 0 0 1-.235.83 2.014 2.014 0 0 1-.655.63 3.4 3.4 0 0 1-1.01.4 5.632 5.632 0 0 1-1.3.14zm0-3.16a3.361 3.361 0 0 0-1.56.31.943.943 0 0 0-.59.85.949.949 0 0 0 .575.86 3.344 3.344 0 0 0 1.575.31 3.33 3.33 0 0 0 1.555-.31.949.949 0 0 0 .585-.86.809.809 0 0 0-.155-.485 1.252 1.252 0 0 0-.435-.365 2.464 2.464 0 0 0-.675-.23 4.419 4.419 0 0 0-.875-.08zm4.11 3.93.01.85H-11.9V.77h-1.05v-3.09h-2.06V.77h-1.05v-3.09h-2v-.85zm5.61 2.01h3.59v.85h-8.18v-.85h3.56v-2.13h-2.56v-4.29h6.18v.83h-5.15v2.63h5.23v.83h-2.67zm7.67-2.68-.37-.81a5.276 5.276 0 0 0 1.19-.3 4 4 0 0 0 .955-.52 2.671 2.671 0 0 0 .645-.675 1.541 1.541 0 0 0 .26-.77h-2.75v-.83h6.65v.83h-2.73a1.541 1.541 0 0 0 .26.77 2.671 2.671 0 0 0 .645.675 4 4 0 0 0 .955.52 5.276 5.276 0 0 0 1.19.3l-.37.81a5.578 5.578 0 0 1-1.98-.69 3.47 3.47 0 0 1-1.29-1.27 3.489 3.489 0 0 1-1.28 1.27 5.33 5.33 0 0 1-1.98.69zm7.35.66-.01.83h-3.59V.78h-1.03v-3.13h-3.54v-.83zm7.42-5.09h1.04V.78h-1.04zm-3.48.64a2.906 2.906 0 0 1 .98.16 2.419 2.419 0 0 1 .78.445 2.008 2.008 0 0 1 .515.685 2.071 2.071 0 0 1 .185.88 2.071 2.071 0 0 1-.185.88 2.008 2.008 0 0 1-.515.685 2.419 2.419 0 0 1-.78.445 2.906 2.906 0 0 1-.98.16 2.906 2.906 0 0 1-.98-.16 2.36 2.36 0 0 1-.775-.445 2.038 2.038 0 0 1-.51-.685 2.071 2.071 0 0 1-.185-.88 2.071 2.071 0 0 1 .185-.88 2.038 2.038 0 0 1 .51-.685 2.36 2.36 0 0 1 .775-.445 2.906 2.906 0 0 1 .975-.16zm0 .88a1.54 1.54 0 0 0-1.035.345 1.176 1.176 0 0 0-.405.945 1.179 1.179 0 0 0 .405.94 1.526 1.526 0 0 0 1.035.35 1.546 1.546 0 0 0 1.04-.35 1.173 1.173 0 0 0 .41-.94 1.169 1.169 0 0 0-.41-.945A1.56 1.56 0 0 0 14.7-6.75zm-2.74 5.62-.13-.85q.61 0 1.32-.005t1.465-.035q.755-.03 1.525-.09t1.5-.17l.07.75q-.75.14-1.515.22t-1.505.12q-.74.04-1.435.05t-1.295.01zm18.17-3.54-1.01-.11a6.757 6.757 0 0 0 .2-1.19q.035-.52.035-1.03h-5.18v-.83h6.2v.76q0 .54-.03 1.12a6.138 6.138 0 0 1-.215 1.28zm-2.65.54h3.9v.83h-8.14v-.83h3.2v-1.66h1.04zm-.2 1.53a6.789 6.789 0 0 1 1.305.115 3.553 3.553 0 0 1 1 .335 1.842 1.842 0 0 1 .635.53 1.162 1.162 0 0 1 .225.7 1.184 1.184 0 0 1-.225.705 1.817 1.817 0 0 1-.635.535 3.553 3.553 0 0 1-1 .335 6.789 6.789 0 0 1-1.305.115 6.927 6.927 0 0 1-1.32-.115 3.553 3.553 0 0 1-1-.335 1.817 1.817 0 0 1-.635-.535 1.184 1.184 0 0 1-.225-.705 1.162 1.162 0 0 1 .225-.7 1.842 1.842 0 0 1 .635-.53 3.553 3.553 0 0 1 1-.335 6.927 6.927 0 0 1 1.32-.115zm0 2.58a4.189 4.189 0 0 0 1.565-.235q.565-.235.565-.665t-.565-.655a4.189 4.189 0 0 0-1.565-.235 4.292 4.292 0 0 0-1.595.235q-.565.235-.565.655t.565.665a4.292 4.292 0 0 0 1.595.235zm11.54-8.24h1.04V.77h-1.04zm-3.06 1.75v.86a3.928 3.928 0 0 0 .165 1.125 4.081 4.081 0 0 0 .475 1.04 4.312 4.312 0 0 0 .74.875 3.485 3.485 0 0 0 .96.62l-.57.81a3.813 3.813 0 0 1-1.375-1.04 5.1 5.1 0 0 1-.905-1.57 5.509 5.509 0 0 1-.885 1.7 3.794 3.794 0 0 1-1.385 1.14l-.59-.82a3.269 3.269 0 0 0 .955-.66 4.636 4.636 0 0 0 .735-.945 4.642 4.642 0 0 0 .475-1.115 4.294 4.294 0 0 0 .165-1.16v-.86h-2.01v-.85h5.06v.85zm12.25 2.52v.81l-4.03 2.75v-1.08l3.15-2.06-3.15-2.19v-1.07z" transform="translate(180 345)"/>
        <g id="그룹_3872" data-name="그룹 3872" transform="translate(116 235.606)">
            <g id="그룹_3095" data-name="그룹 3095" class="cls-5">
                <g id="그룹_3094" data-name="그룹 3094">
                    <g id="그룹_3093" data-name="그룹 3093" class="cls-5">
                        <path id="패스_2218" data-name="패스 2218" class="cls-3" d="M8.577 1.883a6.694 6.694 0 1 1-6.694 6.694 6.7 6.7 0 0 1 6.694-6.694m0-.683a7.377 7.377 0 1 0 7.377 7.377A7.377 7.377 0 0 0 8.577 1.2" transform="translate(-.38 -.38)"/>
                        <path id="패스_2219" data-name="패스 2219" class="cls-3" d="M12.326 14.121H11.1v-1.28h1.218zm-.011-7.907-.206 5.647h-.8l-.164-4.426-.031-1.218z" transform="translate(-3.52 -1.969)"/>
                    </g>
                </g>
            </g>
        </g>
    </g>
</svg>
