<?xml version="1.0" encoding="utf-8"?>
<!-- Generator: Adobe Illustrator 26.0.1, SVG Export Plug-In . SVG Version: 6.00 Build 0)  -->
<svg version="1.1" id="레이어_1" xmlns="http://www.w3.org/2000/svg" xmlns:xlink="http://www.w3.org/1999/xlink" x="0px"
	 y="0px" viewBox="0 0 64 18" style="enable-background:new 0 0 64 18;" xml:space="preserve">
<style type="text/css">
	.st0{fill:#B2B2B2;}
	.st1{fill:none;stroke:#FFFFFF;}
	.st2{enable-background:new    ;}
	.st3{fill:#FFFFFF;}
</style>
<g>
	<g>
		<path class="st0" d="M3,0h58c1.7,0,3,1.3,3,3v12c0,1.7-1.3,3-3,3H3c-1.7,0-3-1.3-3-3V3C0,1.3,1.3,0,3,0z"/>
		<path class="st1" d="M3,0.5h58c1.4,0,2.5,1.1,2.5,2.5v12c0,1.4-1.1,2.5-2.5,2.5H3c-1.4,0-2.5-1.1-2.5-2.5V3C0.5,1.6,1.6,0.5,3,0.5
			z"/>
	</g>
	<g class="st2">
		<path class="st3" d="M9.3,7.6C9.2,8.2,8.9,8.8,8.6,9.3s-0.7,1.1-1.3,1.5c-0.5,0.5-1.1,0.9-1.9,1.3l-0.6-0.8
			c2.2-1.1,3.4-2.7,3.6-4.8H5.4V5.7h4.2C9.5,6.3,9.5,7,9.3,7.6z M11.9,9.2v4.6h-1v-9h1v3.6h1.4v0.9H11.9z"/>
		<path class="st3" d="M21.6,10.1h-1V9h-2.2V8.2h2.2V7.1h-2c-0.3,0.7-0.8,1.3-1.4,1.8c-0.6,0.5-1.5,0.9-2.5,1.1l-0.4-0.8
			C15.3,9,16.1,8.5,16.7,8c0.6-0.5,0.9-1.1,1-1.9h-3.1V5.3h4.2c0,0.2,0,0.3,0,0.5s0,0.3-0.1,0.5h1.8V4.7h1V10.1z M21.6,10.5v3.2h-1
			v-2.4h-5.1v-0.8H21.6z"/>
		<path class="st3" d="M26.8,8.5c-0.3-0.3-0.6-0.7-0.8-1.1c-0.2,0.5-0.5,0.9-0.9,1.2c-0.4,0.3-0.8,0.6-1.4,0.8l-0.5-0.8
			c0.4-0.1,0.7-0.3,0.9-0.5s0.5-0.4,0.7-0.7c0.2-0.2,0.3-0.5,0.4-0.8c0.1-0.3,0.1-0.6,0.1-0.9V5h1v0.8c0,0.3,0,0.6,0.1,0.8
			c0.1,0.3,0.2,0.5,0.4,0.8c0.2,0.2,0.4,0.4,0.7,0.6c0.3,0.2,0.6,0.3,0.9,0.4l-0.5,0.8C27.6,9.1,27.2,8.8,26.8,8.5z M31.1,13.7h-6.2
			v-2.3h4.8v-0.7h-4.9V9.8h5.9v2.3h-4.8v0.8h5.1V13.7z M27.9,7.1V6.2h1.8V4.7h1v4.6h-1V7.1H27.9z"/>
		<path class="st3" d="M36.1,9.1c-0.4-0.3-0.6-0.7-0.8-1.2c-0.2,0.5-0.5,0.9-0.9,1.3C34,9.6,33.6,9.9,33,10.1l-0.5-0.8
			c0.4-0.1,0.7-0.3,0.9-0.5s0.5-0.4,0.7-0.7c0.2-0.3,0.3-0.5,0.4-0.8s0.2-0.6,0.2-0.9V6.2h-1.9V5.3h4.8v0.8h-1.9v0.1
			c0,0.3,0,0.6,0.1,0.8c0.1,0.3,0.2,0.5,0.4,0.8c0.2,0.2,0.4,0.5,0.7,0.6c0.3,0.2,0.6,0.3,0.9,0.5l-0.5,0.8
			C36.9,9.7,36.4,9.4,36.1,9.1z M38.3,10.5c0.4,0.1,0.7,0.2,1,0.3c0.3,0.1,0.5,0.3,0.6,0.5s0.2,0.5,0.2,0.7c0,0.3-0.1,0.5-0.2,0.7
			s-0.3,0.4-0.6,0.5c-0.3,0.1-0.6,0.3-1,0.3c-0.4,0.1-0.8,0.1-1.3,0.1s-0.9,0-1.3-0.1c-0.4-0.1-0.7-0.2-1-0.3
			c-0.3-0.1-0.5-0.3-0.6-0.5c-0.1-0.2-0.2-0.5-0.2-0.7c0-0.3,0.1-0.5,0.2-0.7c0.1-0.2,0.3-0.4,0.6-0.5c0.3-0.1,0.6-0.3,1-0.3
			c0.4-0.1,0.8-0.1,1.3-0.1S37.9,10.4,38.3,10.5z M38.5,12.8c0.3-0.2,0.5-0.4,0.5-0.7c0-0.3-0.2-0.5-0.5-0.7s-0.8-0.2-1.5-0.2
			s-1.1,0.1-1.5,0.2c-0.3,0.2-0.5,0.4-0.5,0.7c0,0.3,0.2,0.5,0.5,0.7c0.4,0.2,0.8,0.2,1.5,0.2S38.1,12.9,38.5,12.8z M39,4.7h1v5.4
			h-1V7.8h-1.6V7H39V4.7z"/>
		<path class="st3" d="M46.3,10.1h2.5v2.1h-5.1v0.7h5.4v0.8h-6.4v-2.2h5.1v-0.6h-5.2v-0.8h2.6V9.3h-3.6V8.5h8.2v0.8h-3.6V10.1z
			 M42.8,7.9v-3h1v0.8h4V4.9h1v3H42.8z M43.8,6.4v0.7h4V6.4H43.8z"/>
		<path class="st3" d="M55.3,7.6c-0.1,0.6-0.4,1.2-0.7,1.7c-0.3,0.5-0.7,1.1-1.3,1.5c-0.5,0.5-1.1,0.9-1.9,1.3l-0.6-0.8
			c2.2-1.1,3.4-2.7,3.6-4.8h-3.2V5.7h4.2C55.5,6.3,55.5,7,55.3,7.6z M57.9,9.2v4.6h-1v-9h1v3.6h1.4v0.9H57.9z"/>
	</g>
</g>
</svg>
