<svg xmlns="http://www.w3.org/2000/svg" width="200" height="50" viewBox="0 0 200 50">
    <defs>
        <style>
            .cls-2{fill:#231815}
        </style>
    </defs>
    <g id="그룹_4143" data-name="그룹 4143" transform="translate(-120 -53.127)">
        <g id="그룹_4135" data-name="그룹 4135" transform="translate(139.978 62.989)">
            <g id="그룹_4133" data-name="그룹 4133">
                <path id="패스_2408" data-name="패스 2408" class="cls-2" d="M71.242 113.433c-4.966 0-7.986-2.592-8.042-6.493h6.041a1.87 1.87 0 0 0 2.119 1.923c.918 0 1.788-.463 1.788-1.394 0-1.038-1.379-1.335-3.131-1.621-2.826-.452-6.571-1.295-6.571-5.663 0-3.608 3.112-5.938 7.782-5.938 4.64 0 7.647 2.438 7.72 6.087H73.07c0-1.15-.783-1.684-1.92-1.684-1.006 0-1.683.492-1.683 1.326 0 1.025 1.393 1.263 3.124 1.568 2.88.506 6.706 1.1 6.706 5.663 0 3.765-3.214 6.226-8.058 6.226z" transform="translate(-63.2 -88.264)"/>
                <path id="패스_2409" data-name="패스 2409" class="cls-2" d="M97.667 103.671a11.11 11.11 0 0 1-.13 1.641H84a3.529 3.529 0 0 0 3.721 3.134 3.668 3.668 0 0 0 3.294-1.689h6.248a9.588 9.588 0 0 1-9.541 6.678c-5.687 0-9.9-4.107-9.9-9.607 0-5.52 4.18-9.579 9.9-9.579 5.875 0 9.942 4.141 9.942 9.422zm-13.552-1.794h7.368a3.657 3.657 0 0 0-3.759-2.771 3.521 3.521 0 0 0-3.608 2.772z" transform="translate(-59.182 -88.264)"/>
                <path id="패스_2410" data-name="패스 2410" class="cls-2" d="M96.158 89.554h6.277v24.805h-6.277z" transform="translate(-54.145 -89.554)"/>
                <path id="패스_2411" data-name="패스 2411" class="cls-2" d="M104.709 89.554h6.277v24.805h-6.277z" transform="translate(-51.795 -89.554)"/>
                <path id="패스_2412" data-name="패스 2412" class="cls-2" d="M112.427 103.841c0-5.582 4.277-9.593 10.218-9.593 5.922 0 10.218 4.011 10.218 9.593 0 5.562-4.3 9.592-10.218 9.592-5.945 0-10.218-4.033-10.218-9.592zm14.148 0a3.931 3.931 0 1 0-3.93 4.021 3.819 3.819 0 0 0 3.93-4.021z" transform="translate(-49.675 -88.264)"/>
                <path id="패스_2413" data-name="패스 2413" class="cls-2" d="m149.523 94.716-7.323 17.992h-5.687l-7.424-17.992h6.879l3.444 10.655 3.406-10.655z" transform="translate(-45.098 -88.136)"/>
                <path id="패스_2414" data-name="패스 2414" class="cls-2" d="M165.6 103.671a11.285 11.285 0 0 1-.129 1.641h-13.537a3.53 3.53 0 0 0 3.722 3.134 3.671 3.671 0 0 0 3.294-1.689h6.25a9.59 9.59 0 0 1-9.542 6.678c-5.687 0-9.9-4.107-9.9-9.607 0-5.52 4.179-9.579 9.9-9.579 5.874 0 9.941 4.141 9.941 9.422zm-13.551-1.794h7.367a3.656 3.656 0 0 0-3.758-2.771 3.52 3.52 0 0 0-3.611 2.772z" transform="translate(-40.518 -88.264)"/>
                <path id="패스_2415" data-name="패스 2415" class="cls-2" d="M164.089 89.554h6.277v24.805h-6.277z" transform="translate(-35.481 -89.554)"/>
                <path id="패스_2416" data-name="패스 2416" class="cls-2" d="m192.121 94.716-7.638 17.414c-2.456 5.577-4.714 7.592-9.42 7.592h-2.149v-5.393h1.725c2.4 0 3.127-.626 3.979-2.894l-7.532-16.72h6.822l3.868 10.04 3.6-10.04z" transform="translate(-33.559 -88.369)"/>
            </g>
        </g>
    </g>
</svg>
