<svg xmlns="http://www.w3.org/2000/svg" width="48" height="48" viewBox="0 0 48 48">
    <defs>
        <linearGradient id="a" x2="1" y2="1" gradientUnits="objectBoundingBox">
            <stop offset="0" stop-color="#ff6700"/>
            <stop offset="1" stop-color="#ff0b84"/>
        </linearGradient>
        <linearGradient id="b" x1=".12" y1=".831" x2=".346" y2=".38" gradientUnits="objectBoundingBox">
            <stop offset="0" stop-color="#ff4a2a"/>
            <stop offset="1" stop-color="#fff" stop-opacity="0"/>
        </linearGradient>
        <linearGradient id="c" x1=".12" y1=".831" x2=".346" y2=".38" gradientUnits="objectBoundingBox">
            <stop offset="0" stop-color="#ff275b"/>
            <stop offset="1" stop-color="#fff" stop-opacity="0"/>
        </linearGradient>
    </defs>
    <g data-name="그룹 6062">
        <path data-name="패스 2165" d="M159 48a24 24 0 1 0-24-24 24 24 0 0 0 24 24" transform="translate(-135)" style="fill:url(#a)"/>
        <g data-name="그룹 6059">
            <path data-name="합치기 2" d="M5.279 25.051a13.1 13.1 0 0 1-4.262-2.709L0 21.377l4.5-5.339 1.174 1.073a8.707 8.707 0 0 0 2.306 1.517 5.78 5.78 0 0 0 2.358.539 3.066 3.066 0 0 0 1.742-.38.724.724 0 0 0 .317-.669.821.821 0 0 0-.04-.3 1.076 1.076 0 0 0-.285-.3 3.738 3.738 0 0 0-.752-.42c-.413-.178-.87-.38-1.369-.6l-3-1.255a13.2 13.2 0 0 1-1.894-1A8.468 8.468 0 0 1 3.29 12.73a7.459 7.459 0 0 1-1.3-2.1 7.167 7.167 0 0 1-.5-2.73 7.22 7.22 0 0 1 .725-3.18 7.609 7.609 0 0 1 2-2.534A9.414 9.414 0 0 1 7.137.578 11.051 11.051 0 0 1 10.762 0a11.75 11.75 0 0 1 4.4.843 10.856 10.856 0 0 1 3.708 2.451l.94.951-4.08 5.006-1.182-.97a7.361 7.361 0 0 0-1.832-1.121 5.032 5.032 0 0 0-1.954-.36 2.684 2.684 0 0 0-1.49.336.507.507 0 0 0-.236.5.379.379 0 0 0 .024.15 1.514 1.514 0 0 0 .381.369 5.322 5.322 0 0 0 .853.471c.393.175.82.349 1.272.515l.057.023 2.928 1.224A10.02 10.02 0 0 1 18.415 13 7 7 0 0 1 20 17.789a7.7 7.7 0 0 1-2.7 5.849 9.589 9.589 0 0 1-3.077 1.735 12.031 12.031 0 0 1-3.979.627 13.556 13.556 0 0 1-4.965-.949z" transform="translate(13.999 11.001)" style="fill:#fff"/>
            <path data-name="교차 1" d="M11.313 8.295A7.269 7.269 0 0 0 9.5 7.172a4.944 4.944 0 0 0-1.937-.361 2.634 2.634 0 0 0-1.476.337.51.51 0 0 0-.233.5.383.383 0 0 0 .023.151c.012.017.024.035.038.052C5.553 7.727.662 6.01.127 4.57A2.081 2.081 0 0 1 0 3.916v-.04a1.809 1.809 0 0 1 .389-1.031 7.746 7.746 0 0 1 .687-.651A8.894 8.894 0 0 1 2.977.987L4.117.53A10.892 10.892 0 0 1 7.561 0a11.512 11.512 0 0 1 4.36.845A10.751 10.751 0 0 1 15.594 3.3l.933.952-4.043 5.015z" transform="translate(17.29 11)" style="fill:url(#b);opacity:.5"/>
            <path data-name="교차 2" d="M8.138 6.9c-2.579.239-1.811 1.235-1.512 1.538v.059C5.865 8.257.725 6.6.145 5.063A2.106 2.106 0 0 1 0 4.338v-.044a1.974 1.974 0 0 1 .439-1.142 8.843 8.843 0 0 1 .779-.722A10.62 10.62 0 0 1 4.5.642 12.527 12.527 0 0 1 8.563 0 13.3 13.3 0 0 1 13.5.936a12.2 12.2 0 0 1 4.16 2.72l1.055 1.056-2.093 2.54-2.417 2.74S11.19 6.616 8.138 6.9z" transform="rotate(180 16.359 18.5)" style="fill:url(#c);opacity:.5"/>
        </g>
    </g>
</svg>
