<svg xmlns="http://www.w3.org/2000/svg" width="24" height="24" viewBox="0 0 24 24">
  <defs>
    <style>
      .cls-1 {
        fill: #fafafa;
        opacity: 0;
      }

      .cls-2 {
        fill: #898989;
        stroke: #898989;
        stroke-width: 0.5px;
      }
    </style>
  </defs>
  <g id="그룹_6951" data-name="그룹 6951" transform="translate(-130 -2924)">
    <rect id="사각형_2193" data-name="사각형 2193" class="cls-1" width="24" height="24" transform="translate(130 2924)"/>
    <g id="그룹_2355" data-name="그룹 2355" transform="translate(133 2929)">
      <path id="패스_693" data-name="패스 693" class="cls-2" d="M961.1,90.962H947.792a2.816,2.816,0,0,1-2.756-2.867v-8.21a2.816,2.816,0,0,1,2.756-2.867H961.1a2.817,2.817,0,0,1,2.756,2.867V88.1A2.817,2.817,0,0,1,961.1,90.962ZM947.792,77.8a2.048,2.048,0,0,0-2,2.085V88.1a2.048,2.048,0,0,0,2,2.085H961.1a2.048,2.048,0,0,0,2-2.085v-8.21a2.048,2.048,0,0,0-2-2.085Z" transform="translate(-945.035 -77.018)"/>
      <path id="패스_694" data-name="패스 694" class="cls-2" d="M1128.211,174.83a.391.391,0,0,1-.391-.391V168.8a.391.391,0,0,1,.586-.339l4.893,2.818a.391.391,0,0,1,0,.678l-4.893,2.818A.39.39,0,0,1,1128.211,174.83Zm.391-5.351v4.283l3.718-2.142Z" transform="translate(-1120.703 -164.649)"/>
    </g>
  </g>
</svg>
