<svg xmlns="http://www.w3.org/2000/svg" width="40" height="40" viewBox="0 0 40 40">
    <defs>
        <clipPath id="clip-path">
            <path id="사각형_4176" data-name="사각형 4176" transform="translate(24.673 501.983)" style="fill:none" d="M0 0h40v40H0z"/>
        </clipPath>
        <style>
            .cls-5{fill:none;stroke:#222221;stroke-linecap:round;stroke-linejoin:round;stroke-width:2px}
        </style>
    </defs>
    <g id="그룹_4977" data-name="그룹 4977" transform="translate(-24.673 -501.983)">
        <path id="패스_2333" data-name="패스 2333" class="cls-5" d="M52.873 529.433a2.816 2.816 0 1 0 2.816-2.818 2.816 2.816 0 0 0-2.816 2.818z"/>
        <path id="패스_2334" data-name="패스 2334" class="cls-5" d="M34.7 529.433a2.816 2.816 0 1 0 2.816-2.818 2.816 2.816 0 0 0-2.816 2.818z"/>
        <path id="패스_2335" data-name="패스 2335" class="cls-5" d="M58.5 529.433h1.72a.449.449 0 0 0 .451-.449h0v-3.514a3.266 3.266 0 0 0-.415-1.593l-3.4-6.1a.966.966 0 0 0-.843-.494h-5.27v12.155h2.13"/>
        <path id="패스_2336" data-name="패스 2336" class="cls-5" d="m53.406 523.533 3.239.005a.189.189 0 0 0 .188-.187.194.194 0 0 0-.025-.091l-1.568-2.877a.543.543 0 0 0-.477-.284h-1.545v3.242a.187.187 0 0 0 .185.189h0z"/>
        <path id="패스_2337" data-name="패스 2337" class="cls-5" d="M40.333 529.433h10.414v-17.2a.514.514 0 0 0-.514-.514H29.186c-.284 0-.514-.02-.514.264v17.447H34.7"/>
    </g>
</svg>
