<svg id="그룹_4081" data-name="그룹 4081" xmlns="http://www.w3.org/2000/svg" width="32" height="32" viewBox="0 0 32 32">
    <defs>
        <clipPath id="clip-path">
            <path id="사각형_2854" data-name="사각형 2854" style="fill:none" d="M0 0h32v32H0z"/>
        </clipPath>
        <style>
            .cls-2{clip-path:url(#clip-path)}
        </style>
    </defs>
    <g id="그룹_3523" data-name="그룹 3523" class="cls-2">
        <g id="그룹_3522" data-name="그룹 3522">
            <g id="그룹_3521" data-name="그룹 3521" class="cls-2">
                <path id="패스_2325" data-name="패스 2325" d="M16 3.6A12.4 12.4 0 1 1 3.6 16 12.415 12.415 0 0 1 16 3.6m0-2A14.4 14.4 0 1 0 30.4 16 14.4 14.4 0 0 0 16 1.6"/>
                <path id="패스_2326" data-name="패스 2326" d="M20.092 16.983a2.94 2.94 0 0 1 .528 1.251 3.015 3.015 0 0 1-.081 1.329 2.855 2.855 0 0 1-.719 1.21 2.482 2.482 0 0 1-.609.509 5.467 5.467 0 0 1-.748.379 5.346 5.346 0 0 1-.79.264 7.591 7.591 0 0 1-.765.147V23.5h-1.4v-1.38q-.365-.033-.847-.125a7.521 7.521 0 0 1-2.174-.78 6.621 6.621 0 0 1-1.146-.788l.946-1.217a3.587 3.587 0 0 0 .673.536 6.027 6.027 0 0 0 .81.419 7.63 7.63 0 0 0 .882.312 5.519 5.519 0 0 0 .854.181V16.4c-.229-.066-.494-.16-.792-.263a9.141 9.141 0 0 1-.909-.395 6.086 6.086 0 0 1-.873-.525 3.009 3.009 0 0 1-.664-.64 2.624 2.624 0 0 1-.48-.888 2.455 2.455 0 0 1-.1-.96 2.829 2.829 0 0 1 .264-.945 2.561 2.561 0 0 1 .6-.8 3.842 3.842 0 0 1 1.382-.848 6.854 6.854 0 0 1 1.566-.369V8.5h1.4v1.267a4.958 4.958 0 0 1 .856.212 10.478 10.478 0 0 1 1.617.706 6.1 6.1 0 0 1 .619.379c-.121.16-.273.357-.456.608a6.8 6.8 0 0 1-.48.608l-.356-.222a5.625 5.625 0 0 0-.519-.279 9.496 9.496 0 0 0-.627-.271 5.517 5.517 0 0 0-.664-.213v3.929c.3.077.627.171.973.288a5.733 5.733 0 0 1 1.081.5 3.352 3.352 0 0 1 1.149.97m-6.521-3.32a2.059 2.059 0 0 0 .528.5 4.518 4.518 0 0 0 .689.378c.25.11.49.2.719.28v-3.565a5.1 5.1 0 0 0-.8.2A2.756 2.756 0 0 0 14 11.8a1.757 1.757 0 0 0-.5.517 1.185 1.185 0 0 0-.173.7 1.323 1.323 0 0 0 .245.651zm4.5 3.574a3.926 3.926 0 0 0-.6-.286 11.354 11.354 0 0 0-.565-.189v3.83a5.78 5.78 0 0 0 .728-.214 2.57 2.57 0 0 0 .664-.354 2.063 2.063 0 0 0 .5-.526 1.356 1.356 0 0 0 .22-.7 1.634 1.634 0 0 0-.948-1.561z"/>
            </g>
        </g>
    </g>
</svg>
