<svg xmlns="http://www.w3.org/2000/svg" width="32" height="32" viewBox="0 0 32 32">
    <defs>
        <clipPath id="clip-path">
            <path id="사각형_4175" data-name="사각형 4175" transform="translate(111.673 505.983)" style="fill:none" d="M0 0h32v32H0z"/>
        </clipPath>
        <style>
            .cls-2{clip-path:url(#clip-path)}
        </style>
    </defs>
    <g id="그룹_4978" data-name="그룹 4978" transform="translate(-111.673 -505.983)">
        <g id="그룹_4988" data-name="그룹 4988">
            <g id="그룹_4987" data-name="그룹 4987" class="cls-2">
                <g id="그룹_3550" data-name="그룹 3550">
                    <g id="그룹_3549" data-name="그룹 3549">
                        <g id="그룹_4986" data-name="그룹 4986">
                            <g id="그룹_4985" data-name="그룹 4985" class="cls-2">
                                <g id="그룹_3548" data-name="그룹 3548">
                                    <path id="패스_2340" data-name="패스 2340" d="M132.717 512.5a5.187 5.187 0 0 0-3.223 1.106 7.308 7.308 0 0 0-1.888 2.253 7.308 7.308 0 0 0-1.888-2.253 5.192 5.192 0 0 0-3.23-1.106 5.9 5.9 0 0 0-5.806 5.992v.008a1.031 1.031 0 0 0 0 .147c0 3.842 3.121 6.565 7.828 10.545.8.675 1.7 1.442 2.647 2.259a.687.687 0 0 0 .9 0c.942-.817 1.848-1.583 2.648-2.259 4.706-3.98 7.814-6.608 7.814-10.45a5.89 5.89 0 0 0-5.532-6.227h-.017c-.088-.015-.17-.015-.253-.015z" style="stroke:#000;stroke-linecap:round;stroke-linejoin:round;stroke-width:2px;fill:none"/>
                                </g>
                            </g>
                        </g>
                    </g>
                </g>
            </g>
        </g>
    </g>
</svg>
