<svg id="그룹_3466" data-name="그룹 3466" xmlns="http://www.w3.org/2000/svg" width="40" height="40" viewBox="0 0 40 40">
    <defs>
        <clipPath id="clip-path">
            <path id="사각형_2819" data-name="사각형 2819" style="fill:none" d="M0 0h40v40H0z"/>
        </clipPath>
        <style>
            .cls-6{fill:none}.cls-2{clip-path:url(#clip-path)}.cls-5{fill:#b2b2b2}.cls-6{stroke:#b2b2b2;stroke-linecap:round;stroke-miterlimit:10}
        </style>
    </defs>
    <g id="그룹_3465" data-name="그룹 3465" class="cls-2">
        <g id="그룹_3464" data-name="그룹 3464">
            <g id="그룹_3463" data-name="그룹 3463" class="cls-2">
                <path id="패스_2296" data-name="패스 2296" class="cls-5" d="M29.818 11.727A1.183 1.183 0 0 1 31 12.909v15.273a1.183 1.183 0 0 1-1.182 1.181H10.182A1.183 1.183 0 0 1 9 28.182V12.909a1.183 1.183 0 0 1 1.182-1.182zm0-1H10.182A2.182 2.182 0 0 0 8 12.909v15.273a2.181 2.181 0 0 0 2.182 2.181h19.636A2.181 2.181 0 0 0 32 28.182V12.909a2.182 2.182 0 0 0-2.182-2.182"/>
                <path id="패스_2297" data-name="패스 2297" class="cls-5" d="M14.637 20.637h-2.364v-2.364h2.364zm.561-3.364h-3.487a.438.438 0 0 0-.438.439V21.2a.439.439 0 0 0 .438.439H15.2a.44.44 0 0 0 .439-.439v-3.488a.439.439 0 0 0-.439-.439"/>
                <path id="패스_2298" data-name="패스 2298" class="cls-5" d="M21.182 20.637h-2.364v-2.364h2.364zm.561-3.364h-3.487a.438.438 0 0 0-.438.439V21.2a.439.439 0 0 0 .438.439h3.487a.44.44 0 0 0 .439-.439v-3.488a.439.439 0 0 0-.439-.439"/>
                <path id="패스_2299" data-name="패스 2299" class="cls-5" d="M14.637 26.091h-2.364v-2.364h2.364zm.561-3.364h-3.487a.438.438 0 0 0-.438.439v3.486a.439.439 0 0 0 .438.439H15.2a.44.44 0 0 0 .439-.439v-3.486a.439.439 0 0 0-.439-.439"/>
                <path id="패스_2300" data-name="패스 2300" class="cls-5" d="M21.182 26.091h-2.364v-2.364h2.364zm.561-3.364h-3.487a.438.438 0 0 0-.438.439v3.486a.439.439 0 0 0 .438.439h3.487a.44.44 0 0 0 .439-.439v-3.486a.439.439 0 0 0-.439-.439"/>
                <path id="패스_2301" data-name="패스 2301" class="cls-5" d="M27.728 20.637h-2.364v-2.364h2.364zm.561-3.364H24.8a.438.438 0 0 0-.438.439V21.2a.439.439 0 0 0 .438.439h3.487a.44.44 0 0 0 .439-.439v-3.488a.439.439 0 0 0-.439-.439"/>
                <path id="선_51" data-name="선 51" class="cls-6" transform="translate(15.636 9.636)" d="M0 0v3.273"/>
                <path id="선_52" data-name="선 52" class="cls-6" transform="translate(9.091 15.091)" d="M21.818 0H0"/>
                <path id="선_53" data-name="선 53" class="cls-6" transform="translate(25.455 9.636)" d="M0 0v3.273"/>
            </g>
        </g>
    </g>
</svg>
