<svg id="그룹_6926" data-name="그룹 6926" xmlns="http://www.w3.org/2000/svg" width="32" height="32" viewBox="0 0 32 32">
    <defs>
        <clipPath id="clip-path">
            <path id="사각형_2831" data-name="사각형 2831" style="fill:none" d="M0 0h32v32H0z"/>
        </clipPath>
        <style>
            .cls-2{clip-path:url(#clip-path)}.cls-5{fill:#fff}
        </style>
    </defs>
    <g id="그룹_3484" data-name="그룹 3484" class="cls-2">
        <path id="사각형_2827" data-name="사각형 2827" transform="translate(7 5)" d="M0 0h2v21H0z"/>
        <g id="그룹_3483" data-name="그룹 3483">
            <g id="그룹_3482" data-name="그룹 3482" class="cls-2">
                <path id="패스_2308" data-name="패스 2308" class="cls-5" d="M9.235 20A3.235 3.235 0 1 1 6 23.235 3.235 3.235 0 0 1 9.235 20" transform="translate(-1.147 -4.176)"/>
                <path id="패스_2309" data-name="패스 2309" d="M9.235 21.618a1.618 1.618 0 1 1-1.618 1.618 1.619 1.619 0 0 1 1.618-1.618m0-1.618a3.235 3.235 0 1 0 3.235 3.235A3.235 3.235 0 0 0 9.235 20" transform="translate(-1.147 -4.176)"/>
                <path id="사각형_2828" data-name="사각형 2828" transform="translate(15 5)" d="M0 0h2v21H0z"/>
                <path id="패스_2310" data-name="패스 2310" class="cls-5" d="M19.235 10A3.235 3.235 0 1 1 16 13.235 3.235 3.235 0 0 1 19.235 10" transform="translate(-3.059 -2.264)"/>
                <path id="패스_2311" data-name="패스 2311" d="M19.235 11.618a1.618 1.618 0 1 1-1.618 1.618 1.619 1.619 0 0 1 1.618-1.618m0-1.618a3.235 3.235 0 1 0 3.235 3.235A3.235 3.235 0 0 0 19.235 10" transform="translate(-3.059 -2.264)"/>
                <path id="사각형_2829" data-name="사각형 2829" transform="translate(23 5)" d="M0 0h2v21H0z"/>
                <path id="패스_2312" data-name="패스 2312" class="cls-5" d="M29.235 17A3.235 3.235 0 1 1 26 20.235 3.235 3.235 0 0 1 29.235 17" transform="translate(-4.971 -3.602)"/>
                <path id="패스_2313" data-name="패스 2313" d="M29.235 18.618a1.618 1.618 0 1 1-1.618 1.618 1.619 1.619 0 0 1 1.618-1.618m0-1.618a3.235 3.235 0 1 0 3.235 3.235A3.235 3.235 0 0 0 29.235 17" transform="translate(-4.971 -3.602)"/>
            </g>
        </g>
    </g>
</svg>
