<svg xmlns="http://www.w3.org/2000/svg" width="48" height="48" viewBox="0 0 48 48">
    <defs>
        <clipPath id="clip-path">
            <path id="사각형_2845" data-name="사각형 2845" transform="translate(0 -.23)" style="fill:none" d="M0 0h48v48H0z"/>
        </clipPath>
        <style>
            .cls-2{clip-path:url(#clip-path)}
        </style>
    </defs>
    <g id="그룹_3508" data-name="그룹 3508" transform="translate(0 .684)">
        <g id="그룹_3507" data-name="그룹 3507" class="cls-2" transform="translate(0 -.453)">
            <g id="그룹_3506" data-name="그룹 3506">
                <g id="그룹_3505" data-name="그룹 3505" class="cls-2">
                    <path id="패스_2317" data-name="패스 2317" d="M37.891 8.975a1.633 1.633 0 0 1 1.631 1.631v12.536a1.633 1.633 0 0 1-1.631 1.631H5.6a1.631 1.631 0 0 1-1.629-1.631V10.606A1.631 1.631 0 0 1 5.6 8.975zm0-1.975H5.6A3.6 3.6 0 0 0 2 10.606v12.536a3.6 3.6 0 0 0 3.6 3.606h32.291a3.606 3.606 0 0 0 3.609-3.606V10.606A3.606 3.606 0 0 0 37.891 7" transform="translate(1.95 7.197)"/>
                    <path id="패스_2318" data-name="패스 2318" d="M8.378 10.16v6.3h3.071v.968H7.232V10.16z" transform="translate(7.051 10.278)"/>
                    <path id="사각형_2843" data-name="사각형 2843" transform="translate(19.794 20.438)" d="M0 0h1.145v7.267H0z"/>
                    <path id="패스_2319" data-name="패스 2319" d="m12.283 10.16 1.076 3.762q.187.622.326 1.185t.335 1.193h.049q.187-.631.336-1.195t.326-1.185l1.076-3.762h1.165L14.7 17.427h-1.351l-2.281-7.267z" transform="translate(10.79 10.278)"/>
                    <path id="패스_2320" data-name="패스 2320" d="M18.833 10.16v.958h-3.15v2.024h2.666v.968h-2.666v2.35h3.259v.968h-4.4V10.16z" transform="translate(14.172 10.278)"/>
                </g>
            </g>
        </g>
    </g>
</svg>
