<svg xmlns="http://www.w3.org/2000/svg" width="31" height="30" viewBox="0 0 31 30">
    <defs>
        <clipPath id="clip-path">
            <path id="사각형_2819" data-name="사각형 2819" class="cls-1" transform="translate(.389 -.317)" d="M0 0h31v30H0z"/>
        </clipPath>
        <clipPath id="clip-path-2">
            <path id="사각형_2818" data-name="사각형 2818" transform="translate(.389 -.317)" style="stroke:#707070;fill:none" d="M0 0h31v30H0z"/>
        </clipPath>
        <style>
            .cls-1{fill:none}.cls-4{clip-path:url(#clip-path-2)}
        </style>
    </defs>
    <g id="그룹_6969" data-name="그룹 6969" transform="translate(-.389 .317)">
        <g id="그룹_3465" data-name="그룹 3465" style="clip-path:url(#clip-path)">
            <g id="그룹_3464" data-name="그룹 3464">
                <g id="그룹_3463" data-name="그룹 3463" class="cls-4">
                    <g id="그룹_5906" data-name="그룹 5906" transform="translate(6.427 6.513)">
                        <path id="패스_2296" data-name="패스 2296" d="M24.612 11.488a.9.9 0 0 1 .9.9v11.629a.9.9 0 0 1-.9.9H9.661a.9.9 0 0 1-.9-.9V12.388a.9.9 0 0 1 .9-.9zm0-.761H9.661A1.661 1.661 0 0 0 8 12.388v11.629a1.661 1.661 0 0 0 1.661 1.661h14.951a1.661 1.661 0 0 0 1.661-1.661V12.388a1.661 1.661 0 0 0-1.661-1.661" transform="translate(-8 -9.344)"/>
                        <path id="패스_2297" data-name="패스 2297" d="M13.834 19.834h-1.8v-1.8h1.8zm.427-2.561h-2.655a.334.334 0 0 0-.333.334v2.654a.334.334 0 0 0 .333.334h2.655a.335.335 0 0 0 .334-.334v-2.654a.334.334 0 0 0-.334-.334" transform="translate(-8.781 -10.905)"/>
                        <path id="패스_2298" data-name="패스 2298" d="M20.379 19.834h-1.8v-1.8h1.8zm.427-2.561h-2.655a.334.334 0 0 0-.333.334v2.654a.334.334 0 0 0 .333.334h2.655a.335.335 0 0 0 .334-.334v-2.654a.334.334 0 0 0-.334-.334" transform="translate(-10.342 -10.905)"/>
                        <path id="패스_2299" data-name="패스 2299" d="M13.834 25.288h-1.8v-1.8h1.8zm.427-2.561h-2.655a.334.334 0 0 0-.333.334v2.654a.334.334 0 0 0 .333.334h2.655a.335.335 0 0 0 .334-.334v-2.654a.334.334 0 0 0-.334-.334" transform="translate(-8.781 -12.207)"/>
                        <path id="패스_2300" data-name="패스 2300" d="M20.379 25.288h-1.8v-1.8h1.8zm.427-2.561h-2.655a.334.334 0 0 0-.333.334v2.654a.334.334 0 0 0 .333.334h2.655a.335.335 0 0 0 .334-.334v-2.654a.334.334 0 0 0-.334-.334" transform="translate(-10.342 -12.207)"/>
                        <path id="패스_2301" data-name="패스 2301" d="M26.925 19.834h-1.8v-1.8h1.8zm.427-2.561H24.7a.334.334 0 0 0-.333.334v2.654a.334.334 0 0 0 .333.334h2.655a.335.335 0 0 0 .334-.334v-2.654a.334.334 0 0 0-.334-.334" transform="translate(-11.905 -10.905)"/>
                        <path id="선_51" data-name="선 51" d="M.053 3.1A.553.553 0 0 1-.5 2.545V.053a.553.553 0 0 1 1.106 0v2.492a.553.553 0 0 1-.553.555z" transform="translate(5.763 .5)"/>
                        <path id="선_52" data-name="선 52" d="M16.665.606H.053a.553.553 0 1 1 0-1.106h16.612a.553.553 0 1 1 0 1.106z" transform="translate(.779 4.653)"/>
                        <path id="선_53" data-name="선 53" d="M.053 3.1A.553.553 0 0 1-.5 2.545V.053a.553.553 0 0 1 1.106 0v2.492a.553.553 0 0 1-.553.555z" transform="translate(13.237 .5)"/>
                    </g>
                </g>
            </g>
        </g>
    </g>
</svg>
