<svg xmlns="http://www.w3.org/2000/svg" width="24" height="24" viewBox="0 0 24 24">
    <g data-name="그룹 2492">
        <g data-name="그룹 2436">
            <path data-name="사각형 2260" style="fill:transparent" d="M0 0h24v24H0z"/>
        </g>
        <path data-name="합치기 1" d="M23838.2 16658.7c-.73-.633-1.418-1.221-2.012-1.723a37.635 37.635 0 0 1-4.4-4.125 6.7 6.7 0 0 1-1.789-4.393 5.642 5.642 0 0 1 1.447-3.871 4.918 4.918 0 0 1 3.664-1.594 4.612 4.612 0 0 1 2.879.994 5.744 5.744 0 0 1 1.01 1.012 6.084 6.084 0 0 1 1.018-1.012 4.612 4.612 0 0 1 2.879-.994 4.93 4.93 0 0 1 3.664 1.594 5.665 5.665 0 0 1 1.441 3.871 6.7 6.7 0 0 1-1.789 4.393 37.693 37.693 0 0 1-4.4 4.119c-.629.531-1.311 1.113-2.012 1.729a1.226 1.226 0 0 1-.8.295 1.21 1.21 0 0 1-.8-.295z" transform="translate(-23826.998 -16638.998)" style="fill:#ff0b84"/>
    </g>
</svg>
