<svg xmlns="http://www.w3.org/2000/svg" width="16" height="16" viewBox="0 0 16 16">
    <defs>
        <clipPath id="a">
            <path data-name="사각형 3054" transform="translate(24.562)" style="fill:none" d="M0 0h16v16H0z"/>
        </clipPath>
    </defs>
    <g data-name="그룹 3926">
        <path data-name="패스 2373" d="M30 4.7a1.1 1.1 0 0 1 .677.23 2.161 2.161 0 0 1 .561.669 1.5 1.5 0 0 0 2.641 0 2.145 2.145 0 0 1 .554-.664 1.109 1.109 0 0 1 .67-.235h.052a1.49 1.49 0 0 1 1.034.5 1.406 1.406 0 0 1 .352 1.028v.1c0 1.181-1.1 2.164-3.392 4.1-.186.157-.383.323-.587.5l-.546-.463-.04-.034c-2.172-1.836-3.4-2.933-3.4-4.15V6.28c0 .038 0 .062-.005.087 0-.027 0-.063.005-.1s0-.054 0-.08v.077-.089a1.414 1.414 0 0 1 .4-1.022A1.481 1.481 0 0 1 30 4.7m5.12-1.5a2.608 2.608 0 0 0-1.611.556 3.686 3.686 0 0 0-.948 1.131 3.658 3.658 0 0 0-.948-1.131A2.6 2.6 0 0 0 30 3.2h-.01a2.962 2.962 0 0 0-2.916 3.011v.075c0 1.929 1.567 3.3 3.931 5.3.4.34.856.725 1.329 1.135a.345.345 0 0 0 .451 0c.473-.41.928-.8 1.33-1.135 2.363-2 3.924-3.318 3.924-5.247A2.959 2.959 0 0 0 35.254 3.2h-.134" transform="translate(-24.562)" style="fill:#898989"/>
    </g>
</svg>
