<?xml version="1.0" encoding="utf-8"?>
<!-- Generator: Adobe Illustrator 26.0.1, SVG Export Plug-In . SVG Version: 6.00 Build 0)  -->
<svg version="1.1" id="레이어_1" xmlns="http://www.w3.org/2000/svg" xmlns:xlink="http://www.w3.org/1999/xlink" x="0px"
	 y="0px" viewBox="0 0 48 18" style="enable-background:new 0 0 48 18;" xml:space="preserve">
<style type="text/css">
	.st0{fill:#FFFFFF;}
	.st1{fill:none;stroke:#898989;}
	.st2{enable-background:new    ;}
	.st3{fill:#898989;}
</style>
<g>
	<g>
		<path class="st0" d="M3,0h42c1.7,0,3,1.3,3,3v12c0,1.7-1.3,3-3,3H3c-1.7,0-3-1.3-3-3V3C0,1.3,1.3,0,3,0z"/>
		<path class="st1" d="M3,0.5h42c1.4,0,2.5,1.1,2.5,2.5v12c0,1.4-1.1,2.5-2.5,2.5H3c-1.4,0-2.5-1.1-2.5-2.5V3C0.5,1.6,1.6,0.5,3,0.5
			z"/>
	</g>
	<g class="st2">
		<path class="st3" d="M14.3,9.3H6.1V8.5h8.2V9.3z M11.5,7.2c-0.6-0.3-1-0.7-1.3-1.2C9.9,6.5,9.5,6.9,8.9,7.2
			c-0.6,0.3-1.2,0.5-2,0.7L6.6,7.1C7,7,7.4,6.9,7.8,6.7c0.4-0.2,0.7-0.3,1-0.5C9.1,6,9.3,5.8,9.4,5.5C9.6,5.3,9.7,5,9.7,4.7V4.4h1.1
			v0.3c0,0.3,0.1,0.5,0.2,0.8c0.2,0.3,0.4,0.5,0.6,0.7c0.3,0.2,0.6,0.4,1,0.5C13,6.9,13.4,7,13.8,7.1l-0.4,0.8
			C12.7,7.7,12,7.5,11.5,7.2z M12.5,10.5c0.5,0.3,0.8,0.7,0.8,1.2c0,0.5-0.3,0.9-0.8,1.2c-0.5,0.3-1.3,0.4-2.3,0.4
			c-1,0-1.8-0.1-2.3-0.4c-0.5-0.3-0.8-0.7-0.8-1.2c0-0.3,0.1-0.5,0.2-0.7c0.1-0.2,0.3-0.4,0.6-0.5s0.6-0.2,1-0.3
			c0.4-0.1,0.8-0.1,1.3-0.1C11.2,10,11.9,10.2,12.5,10.5z M11.7,12.3c0.4-0.1,0.5-0.3,0.5-0.6s-0.2-0.5-0.5-0.6
			c-0.4-0.1-0.9-0.2-1.5-0.2S9,10.9,8.6,11c-0.4,0.1-0.5,0.3-0.5,0.6s0.2,0.5,0.5,0.6c0.4,0.1,0.9,0.2,1.5,0.2S11.3,12.4,11.7,12.3z
			"/>
		<path class="st3" d="M20.1,8c-0.1,0.3-0.3,0.5-0.5,0.7c-0.2,0.2-0.5,0.4-0.8,0.5s-0.6,0.2-0.9,0.2s-0.7-0.1-1-0.2
			s-0.5-0.3-0.8-0.5S15.8,8.3,15.7,8c-0.1-0.3-0.2-0.6-0.2-0.9c0-0.3,0.1-0.6,0.2-0.9c0.1-0.3,0.3-0.5,0.5-0.7s0.5-0.4,0.8-0.5
			s0.6-0.2,1-0.2s0.7,0.1,0.9,0.2s0.5,0.3,0.8,0.5c0.2,0.2,0.4,0.4,0.5,0.7c0.1,0.3,0.2,0.6,0.2,0.9C20.3,7.4,20.2,7.7,20.1,8z
			 M16.6,7.7c0.1,0.2,0.2,0.3,0.3,0.4s0.3,0.2,0.4,0.3s0.4,0.1,0.6,0.1c0.2,0,0.4,0,0.5-0.1s0.3-0.2,0.4-0.3C19,8,19.1,7.8,19.2,7.7
			c0.1-0.2,0.1-0.4,0.1-0.6c0-0.2,0-0.4-0.1-0.6c-0.1-0.2-0.2-0.3-0.3-0.4c-0.1-0.1-0.3-0.2-0.4-0.3s-0.4-0.1-0.5-0.1
			c-0.4,0-0.7,0.1-1,0.4c-0.3,0.2-0.4,0.6-0.4,1C16.5,7.3,16.5,7.5,16.6,7.7z M23,13.1h-6.2v-3h1v2.1H23V13.1z M21.7,10.8V4.2h1v6.6
			H21.7z"/>
		<path class="st3" d="M29,7.8c-0.1,0.2-0.3,0.4-0.5,0.5c-0.2,0.1-0.4,0.3-0.7,0.3c-0.3,0.1-0.5,0.1-0.8,0.1c-0.3,0-0.7-0.1-0.9-0.2
			c-0.3-0.1-0.5-0.2-0.7-0.4c-0.2-0.2-0.4-0.4-0.5-0.7c-0.1-0.3-0.2-0.5-0.2-0.9c0-0.3,0.1-0.6,0.2-0.8c0.1-0.3,0.3-0.5,0.5-0.7
			s0.5-0.3,0.7-0.4c0.3-0.1,0.6-0.2,0.9-0.2c0.3,0,0.6,0,0.8,0.1s0.5,0.2,0.7,0.3s0.4,0.3,0.5,0.5c0.1,0.2,0.2,0.4,0.3,0.7H31v-2h1
			V9h-1V7.1h-1.7C29.2,7.4,29.2,7.6,29,7.8z M28.7,13.2h-3.2V9.5h1v1h1.3v-1h1V13.2z M26,7.6C26.3,7.9,26.6,8,27,8
			c0.2,0,0.4,0,0.5-0.1c0.2-0.1,0.3-0.1,0.4-0.3s0.2-0.2,0.3-0.4c0.1-0.2,0.1-0.3,0.1-0.5c0-0.4-0.1-0.7-0.4-0.9
			c-0.3-0.2-0.6-0.3-1-0.3c-0.4,0-0.7,0.1-1,0.3c-0.3,0.2-0.4,0.5-0.4,0.9S25.7,7.4,26,7.6z M26.5,11.3v1h1.3v-1H26.5z M31.4,10.9
			c0.1,0.2,0.2,0.4,0.3,0.6s0.3,0.4,0.5,0.5s0.4,0.3,0.7,0.4l-0.5,0.8c-0.4-0.2-0.7-0.4-1-0.6c-0.3-0.3-0.5-0.6-0.6-0.9
			c-0.2,0.3-0.4,0.6-0.6,0.9c-0.3,0.3-0.6,0.5-1,0.7l-0.5-0.8c0.3-0.1,0.5-0.3,0.7-0.4c0.2-0.2,0.4-0.4,0.5-0.6s0.2-0.4,0.3-0.6
			c0.1-0.2,0.1-0.4,0.1-0.7V9.5h1v0.7C31.3,10.4,31.4,10.7,31.4,10.9z"/>
		<path class="st3" d="M41.9,9.4h-8.2V8.5h8.2V9.4z M39.1,4.5c0.4,0.1,0.7,0.2,1,0.3c0.3,0.1,0.5,0.3,0.6,0.5
			C40.9,5.6,41,5.9,41,6.2c0,0.3-0.1,0.5-0.2,0.7c-0.2,0.2-0.4,0.4-0.6,0.5c-0.3,0.2-0.6,0.3-1,0.3c-0.4,0.1-0.8,0.1-1.3,0.1
			s-0.9,0-1.3-0.1c-0.4-0.1-0.7-0.2-1-0.3c-0.3-0.1-0.5-0.3-0.6-0.5c-0.2-0.2-0.2-0.5-0.2-0.7c0-0.3,0.1-0.5,0.2-0.7
			c0.2-0.2,0.4-0.4,0.6-0.5c0.3-0.1,0.6-0.3,1-0.3s0.8-0.1,1.3-0.1S38.7,4.5,39.1,4.5z M40.9,13.2h-6.2v-3h6.2V13.2z M36.2,5.5
			c-0.4,0.2-0.6,0.4-0.6,0.7s0.2,0.5,0.6,0.7c0.4,0.2,0.9,0.2,1.6,0.2S39,7,39.4,6.8c0.4-0.2,0.6-0.4,0.6-0.7s-0.2-0.5-0.6-0.7
			s-0.9-0.2-1.6-0.2S36.6,5.3,36.2,5.5z M35.7,12.3h4.2V11h-4.2V12.3z"/>
	</g>
</g>
</svg>
