<svg xmlns="http://www.w3.org/2000/svg" width="80" height="21" viewBox="0 0 80 21">
    <g data-name="그룹 7033">
        <g data-name="사각형 5637" style="fill:#fff;stroke:#06be34">
            <path style="stroke:none" d="M0 0h80v21H0z"/>
            <path style="fill:none" d="M.5.5h79v20H.5z"/>
        </g>
        <path data-name="패스 2747" d="M-26.235-8.36h1.25V.85h-1.25zm-1.95 2.91V-8.2h1.23V.45h-1.23v-4.83h-1.81v-1.07zm-3.07-2.02v5q.63-.02 1.22-.07a12.336 12.336 0 0 0 1.23-.17l.16 1.1a12.071 12.071 0 0 1-1.61.22q-.77.05-1.65.05h-.64v-6.13zm13.86-.89h1.32V.88h-1.32zm-3.63.65a2.071 2.071 0 0 1 .965.23 2.239 2.239 0 0 1 .765.655A3.3 3.3 0 0 1-18.79-5.8a4.663 4.663 0 0 1 .19 1.37 4.714 4.714 0 0 1-.185 1.37 3.359 3.359 0 0 1-.505 1.04 2.218 2.218 0 0 1-.765.66 2.071 2.071 0 0 1-.965.23 2.071 2.071 0 0 1-.965-.23 2.218 2.218 0 0 1-.765-.66 3.359 3.359 0 0 1-.5-1.04 4.714 4.714 0 0 1-.185-1.37 4.663 4.663 0 0 1 .175-1.37 3.3 3.3 0 0 1 .5-1.03 2.239 2.239 0 0 1 .765-.655 2.071 2.071 0 0 1 .97-.225zm0 1.19a.949.949 0 0 0-.83.53 3.062 3.062 0 0 0-.32 1.56 3.091 3.091 0 0 0 .32 1.565.948.948 0 0 0 .83.535.948.948 0 0 0 .83-.535 3.091 3.091 0 0 0 .32-1.565 3.062 3.062 0 0 0-.32-1.56.949.949 0 0 0-.83-.53zm12.93-1.84h1.32V.88h-1.32v-4.94h-1.65v2.77h-4.42v-6.34h1.31v2.22h1.81v-2.22h1.3v2.51h1.65zm-2.95 6.02v-2.04h-1.81v2.04zm16.51-2.5v1.09h-1.29V.84h-1.32v-9.2h1.32v3.52zm-8.08-2.57h4.34a9.265 9.265 0 0 1-.21 1.995 6.322 6.322 0 0 1-.7 1.8A6.729 6.729 0 0 1-.45-2.04 8.326 8.326 0 0 1-2.385-.73l-.74-1.01A7.294 7.294 0 0 0-.65-3.685 5.229 5.229 0 0 0 .4-6.34h-3.01zm15.16-.94 1.32.01v5.45h-1.32v-.96h-2.03v-1.06h2.03v-.9h-1.88a5.418 5.418 0 0 1-3.9 2.92l-.51-1.03A5.6 5.6 0 0 0 8.66-5.045a2.817 2.817 0 0 0 .975-1.675h-2.85v-1.05h4.27q0 .22-.02.445t-.06.455h1.57zm-4.96 6.89V-2.5h6.28V.82h-1.32v-2.28zm14.09-6.9H23V.88h-1.32zm-5.86.74h1.31v2.23h1.92v-2.23h1.31v6.35h-4.54zm1.31 3.26v2.04h1.92v-2.04zm14.71 1.95-1.32-.13a18.015 18.015 0 0 0 .265-2.215q.045-.955.045-1.755h-5.45v-1.05h6.77v.89q0 .42-.005.875t-.03.975q-.025.52-.09 1.115t-.185 1.295zm-1.95 1.1h3.02v1.06h-8.34v-1.06h1.75v-2.91h1.3v2.91h.98v-2.91h1.29z" transform="translate(40 14)" style="fill:#06be34"/>
    </g>
</svg>
