<svg xmlns="http://www.w3.org/2000/svg" width="55" height="55" viewBox="0 0 55 55">
    <defs>
        <clipPath id="clip-path">
            <path id="사각형_2860" data-name="사각형 2860" transform="translate(-.307)" style="fill:none" d="M0 0h55v55H0z"/>
        </clipPath>
        <style>
            .cls-5{fill:none;stroke:#222221;stroke-linecap:round;stroke-linejoin:round;stroke-width:2px}
        </style>
    </defs>
    <g id="그룹_4008" data-name="그룹 4008" transform="translate(.307)">
        <path id="패스_2333" data-name="패스 2333" class="cls-5" d="M118.2 28.479a3.844 3.844 0 1 0 3.844-3.847 3.845 3.845 0 0 0-3.844 3.847z" transform="translate(-79.856 9.176)"/>
        <path id="패스_2334" data-name="패스 2334" class="cls-5" d="M100.029 28.479a3.844 3.844 0 1 0 3.844-3.847 3.845 3.845 0 0 0-3.844 3.847z" transform="translate(-86.49 9.176)"/>
        <path id="패스_2335" data-name="패스 2335" class="cls-5" d="M126.662 31.887h2.348a.615.615 0 0 0 .616-.616v-4.8a4.459 4.459 0 0 0-.567-2.175l-4.64-8.327a1.321 1.321 0 0 0-1.151-.674h-7.2v16.597h2.9" transform="translate(-80.632 5.768)"/>
        <path id="패스_2336" data-name="패스 2336" class="cls-5" d="m118.8 22.8 4.422.007a.256.256 0 0 0 .257-.255.265.265 0 0 0-.034-.124l-2.141-3.923a.743.743 0 0 0-.651-.388h-2.109v4.426a.256.256 0 0 0 .253.258z" transform="translate(-79.729 6.798)"/>
        <path id="패스_2337" data-name="패스 2337" class="cls-5" d="M109.918 33.918h14.217v-23.48a.7.7 0 0 0-.7-.7H94.7c-.388 0-.7-.027-.7.36v23.816h8.232" transform="translate(-88.691 3.737)"/>
    </g>
</svg>
