<svg xmlns="http://www.w3.org/2000/svg" width="12" height="12" viewBox="0 0 12 12">
    <defs>
        <style>
            .cls-1{fill:#fe5124}
        </style>
    </defs>
    <g id="그룹_5517" data-name="그룹 5517" transform="translate(-505.5 -302.364)">
        <g id="그룹_5393" data-name="그룹 5393">
            <path id="패스_2681" data-name="패스 2681" class="cls-1" d="M517.073 306.689h-5.3v2.725h5.3a.416.416 0 0 0 .427-.4v-1.917a.416.416 0 0 0-.427-.408z"/>
            <path id="패스_2682" data-name="패스 2682" class="cls-1" d="M505.5 307.093v1.917a.416.416 0 0 0 .427.4h5.173v-2.725h-5.175a.416.416 0 0 0-.425.408z"/>
            <path id="패스_2683" data-name="패스 2683" class="cls-1" d="M506.239 313.96a.416.416 0 0 0 .427.4h4.434v-4.629h-4.863z"/>
            <path id="패스_2684" data-name="패스 2684" class="cls-1" d="M511.769 314.364h4.437a.416.416 0 0 0 .426-.4v-4.225h-4.863z"/>
            <path id="패스_2685" data-name="패스 2685" class="cls-1" d="M513.073 306.243a3.79 3.79 0 0 0 2.023-.381 1.908 1.908 0 0 0 .82-1.258 1.846 1.846 0 0 0-.36-1.439 2.052 2.052 0 0 0-1.33-.776 2.116 2.116 0 0 0-1.519.341 3.448 3.448 0 0 0-1.03 1.734c-.069.2-.128.389-.177.558-.049-.169-.108-.36-.177-.558a3.448 3.448 0 0 0-1.03-1.734 2.12 2.12 0 0 0-2.849.435 1.846 1.846 0 0 0-.36 1.439 1.908 1.908 0 0 0 .82 1.258 3.79 3.79 0 0 0 2.023.381h.04c.693 0 1.289-.066 1.313-.068l.22-.024.219.024c.025 0 .621.065 1.314.068zm-4.644-1.068a1.068 1.068 0 0 1-.46-.706 1.032 1.032 0 0 1 .2-.807 1.165 1.165 0 0 1 .929-.449 1.186 1.186 0 0 1 .669.2c.076.052.353.3.7 1.3.082.236.15.464.2.652a5.259 5.259 0 0 1-2.238-.19zm4.8-1.757a1.181 1.181 0 0 1 .853-.191 1.144 1.144 0 0 1 .745.435 1.031 1.031 0 0 1 .2.807 1.068 1.068 0 0 1-.46.706 3.024 3.024 0 0 1-1.527.22c-.262 0-.512-.011-.717-.024a4.607 4.607 0 0 1 .908-1.953z"/>
        </g>
    </g>
</svg>
