<svg xmlns="http://www.w3.org/2000/svg" width="16" height="16" viewBox="0 0 16 16">
    <defs>
        <clipPath id="a">
            <path data-name="사각형 3056" style="fill:none" d="M0 0h16v16H0z"/>
        </clipPath>
    </defs>
    <g data-name="그룹 3928">
        <path data-name="패스 2374" d="m8 4.4.6 1.259A2.352 2.352 0 0 0 10.371 7l1.475.224-1.118 1.135a2.416 2.416 0 0 0-.646 2.07l.248 1.511-1.2-.66a2.316 2.316 0 0 0-2.246-.005l-1.211.666.247-1.506a2.423 2.423 0 0 0-.652-2.083L4.155 7.22l1.486-.226A2.338 2.338 0 0 0 7.4 5.67zM8 2a.83.83 0 0 0-.759.494l-1.2 2.535a.851.851 0 0 1-.638.484l-2.675.407a.9.9 0 0 0-.469 1.51L4.2 9.4a.91.91 0 0 1 .244.784l-.457 2.785a.856.856 0 0 0 .667 1.011.893.893 0 0 0 .166.02.844.844 0 0 0 .39-.1l2.39-1.31a.815.815 0 0 1 .793 0l2.398 1.31a.841.841 0 0 0 .39.1.856.856 0 0 0 .838-1.028l-.457-2.785a.91.91 0 0 1 .244-.784l1.936-1.973a.9.9 0 0 0-.469-1.51L10.6 5.513a.851.851 0 0 1-.638-.484L8.76 2.494A.832.832 0 0 0 8 2" style="fill:#898989"/>
    </g>
</svg>
