<svg xmlns="http://www.w3.org/2000/svg" width="28" height="14" viewBox="0 0 28 14">
    <g data-name="그룹 4645">
        <g data-name="사각형 3831" style="fill:#fff;stroke:#ff0b84">
            <rect width="28" height="14" rx="7" style="stroke:none"/>
            <rect x=".5" y=".5" width="27" height="13" rx="6.5" style="fill:none"/>
        </g>
        <path data-name="패스 2452" d="M-7.708 0v-4.48h.96l.08.592h.032a3.425 3.425 0 0 1 .648-.5 1.558 1.558 0 0 1 .808-.208 1.191 1.191 0 0 1 1.056.476A2.309 2.309 0 0 1-3.8-2.792V0h-1.172v-2.648a1.311 1.311 0 0 0-.148-.732.557.557 0 0 0-.484-.2.872.872 0 0 0-.48.128 3.042 3.042 0 0 0-.456.376V0zm7.072.112a2.367 2.367 0 0 1-.872-.16 2.044 2.044 0 0 1-.708-.46 2.131 2.131 0 0 1-.472-.736 2.675 2.675 0 0 1-.172-.988 2.6 2.6 0 0 1 .176-.98 2.341 2.341 0 0 1 .468-.744 2.035 2.035 0 0 1 .668-.472 1.922 1.922 0 0 1 .776-.164 1.927 1.927 0 0 1 .812.16 1.617 1.617 0 0 1 .584.448A1.968 1.968 0 0 1 .98-3.3a2.913 2.913 0 0 1 .12.856 2.866 2.866 0 0 1-.016.308 1.34 1.34 0 0 1-.04.228h-2.76a1.267 1.267 0 0 0 .4.836 1.241 1.241 0 0 0 .836.284 1.672 1.672 0 0 0 .524-.08A2.168 2.168 0 0 0 .532-1.1l.4.72A2.871 2.871 0 0 1 .2-.02a2.638 2.638 0 0 1-.836.132zm-1.1-2.8H.092a1.151 1.151 0 0 0-.208-.724.759.759 0 0 0-.64-.268.915.915 0 0 0-.636.252 1.169 1.169 0 0 0-.34.74zM2.812 0l-1.16-4.48h1.176l.488 2.216q.064.336.112.652t.112.652h.032q.064-.336.128-.66t.152-.644l.536-2.216h1.048L6-2.264q.08.336.144.652t.136.652h.04q.064-.336.112-.652t.112-.652l.484-2.216h1.088L7.012 0H5.628l-.472-1.952q-.072-.32-.132-.632T4.9-3.256h-.04l-.12.676q-.056.316-.128.628L4.156 0z" transform="translate(13.797 9.24)" style="fill:#ff0b84"/>
    </g>
</svg>
