<svg xmlns="http://www.w3.org/2000/svg" width="320" height="218" viewBox="0 0 320 218">
    <defs>
        <clipPath id="clip-path">
            <path id="사각형_2637" data-name="사각형 2637" class="cls-1" transform="translate(0 .394)" d="M0 0h16v16H0z"/>
        </clipPath>
        <style>
            .cls-1{fill:none}.cls-3{fill:#898989}.cls-4{clip-path:url(#clip-path)}
        </style>
    </defs>
    <g id="그룹_4480" data-name="그룹 4480" transform="translate(-20 -388)">
        <g id="사각형_3171" data-name="사각형 3171" transform="translate(20 388)" style="fill:#fff;stroke:#eee">
            <rect width="320" height="218" rx="5" style="stroke:none"/>
            <rect class="cls-1" x=".5" y=".5" width="319" height="217" rx="4.5"/>
        </g>
        <path id="패스_2475" data-name="패스 2475" class="cls-3" d="M9.984-9.228v1.188H1v-1.188h3.72v-.888H6.3v.888zM6.3-4.044h4.212v1.224H.5v-1.224h4.216v-.564a5.686 5.686 0 0 1-2.16-.48 1.184 1.184 0 0 1-.744-1.08q0-1.572 3.7-1.572t3.704 1.572a1.184 1.184 0 0 1-.75 1.08 5.74 5.74 0 0 1-2.166.48zM3.5-6.168q0 .276.474.4a6.907 6.907 0 0 0 1.53.12 6.907 6.907 0 0 0 1.53-.12q.474-.12.474-.4t-.474-.39a7.26 7.26 0 0 0-1.53-.114 7.26 7.26 0 0 0-1.53.114q-.474.114-.474.39zm1.98 3.78a7.448 7.448 0 0 1 2.874.426 1.378 1.378 0 0 1 .966 1.29A1.367 1.367 0 0 1 8.358.612a7.544 7.544 0 0 1-2.874.42 7.5 7.5 0 0 1-2.862-.42 1.367 1.367 0 0 1-.966-1.284 1.378 1.378 0 0 1 .966-1.29 7.407 7.407 0 0 1 2.862-.426zm0 2.292a7.383 7.383 0 0 0 1.696-.138Q7.7-.372 7.7-.672t-.528-.444a7.709 7.709 0 0 0-1.692-.132 7.709 7.709 0 0 0-1.692.132q-.528.132-.528.444t.528.438A7.383 7.383 0 0 0 5.484-.1zm11.86-1.44h4.224v1.284H11.556v-1.284h4.2v-2.028h-3.144v-5.772h1.572v1.716h4.728v-1.716h1.56v5.772H17.34zm-3.156-4.836v1.548h4.728v-1.548zm17.064-.792h1.728v-2.856h1.584v8.064h-1.584V-5.88h-1.728zm.732 2.544-.768 1.236a4.224 4.224 0 0 1-1.536-.864 4.04 4.04 0 0 1-.972-1.32 4.585 4.585 0 0 1-1.026 1.452 4.272 4.272 0 0 1-1.626.948l-.792-1.26a3.857 3.857 0 0 0 1.176-.588 3.684 3.684 0 0 0 .81-.828 3.287 3.287 0 0 0 .468-.978 3.744 3.744 0 0 0 .15-1.038v-.156h-2.172v-1.26h5.94v1.26h-2.148v.144a3.426 3.426 0 0 0 .144.978 3.109 3.109 0 0 0 .45.918 3.539 3.539 0 0 0 .78.786 3.943 3.943 0 0 0 1.122.57zm-3.12 4.2h5.952V.84h-7.536v-3.468h1.584zm11.28-4.128-.576-1.236a6.678 6.678 0 0 0 1.494-.348A4.648 4.648 0 0 0 42.15-6.7a2.605 2.605 0 0 0 .7-.714 2.046 2.046 0 0 0 .306-.786h-3.18v-1.26h8.2v1.26h-3.14a2.046 2.046 0 0 0 .306.786 2.637 2.637 0 0 0 .69.714 4.523 4.523 0 0 0 1.086.564 6.671 6.671 0 0 0 1.482.348l-.564 1.236a6.732 6.732 0 0 1-2.448-.78 4 4 0 0 1-1.5-1.44 4 4 0 0 1-1.5 1.44 6.732 6.732 0 0 1-2.448.784zm8.94.636v1.26h-4.236v3.708H43.26v-3.708H39.1v-1.26zm8.676-6.12h1.584V1.056h-1.584zm-4.08.744a3.486 3.486 0 0 1 1.206.2 3 3 0 0 1 .966.564 2.614 2.614 0 0 1 .642.858 2.549 2.549 0 0 1 .234 1.1 2.561 2.561 0 0 1-.234 1.092 2.6 2.6 0 0 1-.642.864 3 3 0 0 1-.966.564 3.486 3.486 0 0 1-1.206.2 3.486 3.486 0 0 1-1.206-.2 2.928 2.928 0 0 1-.96-.564 2.635 2.635 0 0 1-.636-.864 2.561 2.561 0 0 1-.234-1.092 2.55 2.55 0 0 1 .234-1.1 2.654 2.654 0 0 1 .636-.858 2.928 2.928 0 0 1 .96-.564 3.486 3.486 0 0 1 1.206-.2zm0 1.356a1.606 1.606 0 0 0-1.074.36 1.248 1.248 0 0 0-.426 1.008 1.248 1.248 0 0 0 .424 1.008 1.606 1.606 0 0 0 1.074.36 1.606 1.606 0 0 0 1.074-.36 1.248 1.248 0 0 0 .426-1.008 1.248 1.248 0 0 0-.426-1.008 1.606 1.606 0 0 0-1.072-.36zm-3.3 6.744-.2-1.284q.732 0 1.584-.006t1.76-.042q.912-.036 1.836-.108t1.8-.2l.1 1.14q-.888.18-1.806.282t-1.806.15q-.888.048-1.716.06t-1.552.008zm21.048-4.584v1.32h-1.608v5.484h-1.584V-10.02h1.584v4.248zm-6.192-3.4v1.612a7.334 7.334 0 0 0 .15 1.476 5.9 5.9 0 0 0 .462 1.38 4.7 4.7 0 0 0 .8 1.17 3.9 3.9 0 0 0 1.146.846l-.96 1.248a4.313 4.313 0 0 1-1.452-1.2 6.045 6.045 0 0 1-.936-1.776 6.693 6.693 0 0 1-.99 1.89 4.293 4.293 0 0 1-1.566 1.29l-.95-1.284a3.911 3.911 0 0 0 1.206-.864 4.9 4.9 0 0 0 .84-1.212 6.132 6.132 0 0 0 .492-1.434 7.338 7.338 0 0 0 .162-1.53v-1.608zm13.476.2v1.236H72.2v-1.228h2.448v-1.128h1.6v1.128zM80.9-7.2h1.464v1.3H80.9v2.892h-1.58v-7h1.58zm-2.732 1.812a1.64 1.64 0 0 1-.2.8 1.861 1.861 0 0 1-.558.618 2.79 2.79 0 0 1-.858.4 3.944 3.944 0 0 1-1.1.144 3.944 3.944 0 0 1-1.1-.144 2.79 2.79 0 0 1-.858-.4 1.861 1.861 0 0 1-.558-.618 1.64 1.64 0 0 1-.2-.8 1.675 1.675 0 0 1 .2-.81 1.841 1.841 0 0 1 .558-.624 2.79 2.79 0 0 1 .858-.4 3.944 3.944 0 0 1 1.1-.144 3.944 3.944 0 0 1 1.1.144 2.79 2.79 0 0 1 .858.4 1.841 1.841 0 0 1 .558.624 1.675 1.675 0 0 1 .2.81zm-3.912 0a.686.686 0 0 0 .33.618 1.6 1.6 0 0 0 .87.21 1.6 1.6 0 0 0 .87-.21.686.686 0 0 0 .33-.618.686.686 0 0 0-.33-.618 1.6 1.6 0 0 0-.87-.21 1.6 1.6 0 0 0-.87.21.686.686 0 0 0-.33.618zm3.048 2.5a8.239 8.239 0 0 1 1.542.132 4.228 4.228 0 0 1 1.17.384 2.039 2.039 0 0 1 .738.618 1.412 1.412 0 0 1 .258.834 1.393 1.393 0 0 1-.258.822 2.039 2.039 0 0 1-.738.618 4.228 4.228 0 0 1-1.17.38 8.239 8.239 0 0 1-1.542.132A8.239 8.239 0 0 1 75.762.9a4.228 4.228 0 0 1-1.17-.384 2.039 2.039 0 0 1-.738-.616 1.393 1.393 0 0 1-.254-.824 1.412 1.412 0 0 1 .258-.834 2.039 2.039 0 0 1 .738-.618 4.228 4.228 0 0 1 1.17-.384 8.239 8.239 0 0 1 1.534-.132zm0 2.748q2.136 0 2.136-.78T77.3-1.7q-2.136 0-2.136.78t2.136.776z" transform="translate(149 421)"/>
        <path id="패스_2476" data-name="패스 2476" class="cls-3" d="M-117.135-8.26v4.77h-.98v-4.77zm-2.75 4.7v-2.3h-1.23v-.84h1.23v-1.4h.97v4.54zm-.47-1.01-.53.79a3 3 0 0 1-1.005-.69 3.177 3.177 0 0 1-.635-1 3.819 3.819 0 0 1-.67 1.145 3.152 3.152 0 0 1-1.06.8l-.57-.78a2.862 2.862 0 0 0 .79-.515 3.147 3.147 0 0 0 .565-.69 3.03 3.03 0 0 0 .335-.8 3.266 3.266 0 0 0 .11-.83v-.76h1v.8a2.97 2.97 0 0 0 .1.785 2.687 2.687 0 0 0 .31.715 2.5 2.5 0 0 0 .52.595 2.712 2.712 0 0 0 .74.435zm-1.77 4.45h5.32v.81h-6.34v-2.33h5v-.68h-5.02v-.8h6.03v2.24h-4.99zm13-8.16h1.03V.78h-1.03v-4.82h-1.58v-.85h1.58zm-5.12 4.09v1.99q1.04 0 1.915-.055a16.531 16.531 0 0 0 1.8-.215l.09.84q-.51.09-.99.145t-.975.085q-.5.03-1.02.04t-1.115.01h-.71v-3.67h3.02v-1.61h-3.04v-.83h4.05v3.27zm14.98-3.92v3.01h-6.06v-3.01h1.02v.75h4.02v-.75zm-1.02 2.23v-.72h-4.02v.72zm-6.1 1.42h8.18v.82h-8.18zm2.01 3.64v.72h5.4v.79h-6.42v-2.24h5.15v-.64h-5.17v-.77h6.18v2.14zm13.61-7.46h1.04V.79h-1.04zm-4.86 4.17v1.9q1.07-.01 2.055-.075t2.055-.235l.11.84q-.58.1-1.13.165t-1.1.1q-.55.035-1.105.045t-1.155.01h-.77v-3.58h3.15v-1.68h-3.17v-.84h4.21v3.35zm17.6-3.44v.79h-7.31v-.79h3.16v-.82h1.04v.82zm-3.11 4.26h3.56v.81h-8.17v-.81h3.57v-.59A4.62 4.62 0 0 1-84-4.26a.987.987 0 0 1-.62-.9 1.044 1.044 0 0 1 .745-.98 5.913 5.913 0 0 1 2.225-.32 5.878 5.878 0 0 1 2.215.32 1.044 1.044 0 0 1 .745.98.987.987 0 0 1-.63.9 4.622 4.622 0 0 1-1.81.38zm-2.39-1.87q0 .59 1.87.59t1.87-.59q0-.58-1.87-.58t-1.87.58zm1.85 3.15a5.963 5.963 0 0 1 2.32.35 1.121 1.121 0 0 1 .79 1.04 1.121 1.121 0 0 1-.79 1.04 5.963 5.963 0 0 1-2.32.35 5.963 5.963 0 0 1-2.32-.35 1.121 1.121 0 0 1-.79-1.04 1.121 1.121 0 0 1 .79-1.04 5.963 5.963 0 0 1 2.32-.35zm0 2.03q2.06 0 2.06-.64t-2.06-.64q-2.05 0-2.05.64t2.05.64zm9.73-1.2h3.59v.85h-8.18v-.85h3.56V-3h-2.64v-4.66h1.02v1.52h4.28v-1.52h1.02V-3h-2.65zM-74.6-5.31v1.48h4.28v-1.48zm14.81-2.32v.71h-5.15v-.71h2.06v-.72h1.04v.72zm1.76 1.6h1.24v.85h-1.24v2.23h-1.03v-5.31h1.03zm-1.51 1.95.08.63q-.72.13-1.465.205t-1.47.11q-.725.035-1.4.04t-1.27.005l-.11-.73h1.09q.58 0 1.21-.02v-.51a2.607 2.607 0 0 1-1.21-.375.909.909 0 0 1-.43-.785.952.952 0 0 1 .575-.875 3.391 3.391 0 0 1 1.575-.305 3.391 3.391 0 0 1 1.575.305.952.952 0 0 1 .575.875.909.909 0 0 1-.43.785 2.571 2.571 0 0 1-1.19.375v.47q.6-.03 1.175-.075t1.125-.125zm-4.01-1.43a.441.441 0 0 0 .32.4 2.182 2.182 0 0 0 .86.14 2.176 2.176 0 0 0 .865-.14.44.44 0 0 0 .315-.4.431.431 0 0 0-.31-.39 2.248 2.248 0 0 0-.865-.135 2.255 2.255 0 0 0-.86.135q-.32.13-.32.39zm.61 4.86v.63h5.24v.71h-6.26V-1.3h4.91v-.57h-4.93v-.7h5.95v1.92zM-51.3-3.9h3.57v.84h-8.16v-.84h3.56v-.9h-2.55v-3.06h6.15v.82h-5.13v1.41h5.19v.83h-2.63zm-.54 1.39a5.006 5.006 0 0 1 2.285.43 1.326 1.326 0 0 1 .825 1.21 1.334 1.334 0 0 1-.8 1.22 4.985 4.985 0 0 1-2.305.43 7.007 7.007 0 0 1-1.3-.11 3.524 3.524 0 0 1-.98-.32 1.677 1.677 0 0 1-.615-.52 1.2 1.2 0 0 1-.215-.7 1.177 1.177 0 0 1 .215-.695 1.7 1.7 0 0 1 .615-.515 3.524 3.524 0 0 1 .98-.32 7.007 7.007 0 0 1 1.3-.11zm0 2.49a4.282 4.282 0 0 0 1.54-.215q.535-.215.535-.635t-.535-.63a4.282 4.282 0 0 0-1.535-.215 4.24 4.24 0 0 0-1.53.215q-.53.215-.53.635t.53.635a4.24 4.24 0 0 0 1.53.21zm13.77-8.25h1.04V.79h-1.04zm-3.06.76v1.48a4.673 4.673 0 0 0 .17 1.23 4.7 4.7 0 0 0 .47 1.13 4.226 4.226 0 0 0 .74.94 3.457 3.457 0 0 0 .965.655l-.6.82A3.909 3.909 0 0 1-40.74-2.32a5.042 5.042 0 0 1-.885-1.64 5.488 5.488 0 0 1-.9 1.755 3.958 3.958 0 0 1-1.4 1.155l-.61-.86a3.33 3.33 0 0 0 .98-.67 4.344 4.344 0 0 0 .75-.98 5.075 5.075 0 0 0 .48-1.185 4.948 4.948 0 0 0 .17-1.285v-1.48zm15.16 1.91h1.28v.85h-1.28v3.13H-27v-6.63h1.03zm-2.48-2.01v4.53h-4.25v-4.53h1.03v1.41h2.21v-1.41zm-1.02 3.7V-5.4h-2.21v1.49zm-1.18 1.65v2.02h5.04V.6h-6.08v-2.86zM-16.555-4v.83h-6.26v-4.3h6.19v.84h-5.16V-4zm-7.26 2.76h8.19v.85h-8.19zm15.59-7.03h1.04V.79h-1.04zm-3.06.76v1.48a4.673 4.673 0 0 0 .165 1.23 4.7 4.7 0 0 0 .47 1.13 4.226 4.226 0 0 0 .74.94 3.457 3.457 0 0 0 .965.655l-.6.82A3.909 3.909 0 0 1-10.9-2.32a5.042 5.042 0 0 1-.885-1.64 5.488 5.488 0 0 1-.9 1.755 3.958 3.958 0 0 1-1.4 1.155l-.61-.86a3.33 3.33 0 0 0 .98-.67 4.344 4.344 0 0 0 .75-.98 5.075 5.075 0 0 0 .48-1.185 4.948 4.948 0 0 0 .17-1.285v-1.48zm16.51 2.78v.85h-1.41V.78h-1.03v-9.04h1.03v3.53zm-6-2.87a1.967 1.967 0 0 1 .935.225 2.15 2.15 0 0 1 .73.64 3.236 3.236 0 0 1 .48 1.005 4.635 4.635 0 0 1 .175 1.32 4.635 4.635 0 0 1-.175 1.32 3.171 3.171 0 0 1-.48 1 2.171 2.171 0 0 1-.73.635 1.967 1.967 0 0 1-.935.225 1.967 1.967 0 0 1-.935-.225 2.171 2.171 0 0 1-.73-.635 3.171 3.171 0 0 1-.48-1 4.635 4.635 0 0 1-.175-1.32 4.635 4.635 0 0 1 .175-1.32 3.236 3.236 0 0 1 .48-1.005 2.15 2.15 0 0 1 .73-.64A1.967 1.967 0 0 1-.775-7.6zm0 5.45a1.1 1.1 0 0 0 .965-.6 3.193 3.193 0 0 0 .365-1.66A3.193 3.193 0 0 0 .19-6.07a1.1 1.1 0 0 0-.965-.6 1.1 1.1 0 0 0-.965.6 3.193 3.193 0 0 0-.36 1.66 3.193 3.193 0 0 0 .36 1.66 1.1 1.1 0 0 0 .965.6zm13.52-6.11h.98V.76h-.98v-4.69h-1.07V.32h-.97v-8.4h.97v3.31h1.07zM7.3-4.01v1.84q.72-.01 1.4-.055t1.445-.175l.09.84a13.925 13.925 0 0 1-1.7.2q-.785.04-1.625.04H6.3v-3.52h2.38v-1.65h-2.4v-.84h3.39v3.32zm16.88-4.25h.98V.77h-.98v-4.44h-.96V.35h-.96v-8.42h.96v3.55h.96zm-4 .26v1.21h1.69v.83h-4.42v-.83h1.71V-8zm-.51 2.55a2.034 2.034 0 0 1 .79.15 1.758 1.758 0 0 1 .62.43 2 2 0 0 1 .405.665 2.409 2.409 0 0 1 .145.855 2.421 2.421 0 0 1-.145.85 1.937 1.937 0 0 1-.405.665 1.849 1.849 0 0 1-.62.43 1.977 1.977 0 0 1-.79.155 1.977 1.977 0 0 1-.79-.155 1.849 1.849 0 0 1-.62-.43 1.937 1.937 0 0 1-.4-.665 2.421 2.421 0 0 1-.145-.85 2.409 2.409 0 0 1 .135-.85 2 2 0 0 1 .4-.665 1.758 1.758 0 0 1 .62-.43 2.034 2.034 0 0 1 .795-.155zm0 3.34a.946.946 0 0 0 .75-.335 1.335 1.335 0 0 0 .29-.905 1.355 1.355 0 0 0-.29-.91.94.94 0 0 0-.75-.34.94.94 0 0 0-.75.34 1.355 1.355 0 0 0-.29.91 1.335 1.335 0 0 0 .29.905.946.946 0 0 0 .745.335zm14.07-3.9H35v.85h-1.26v2.2h-1.05v-5.3h1.05zM31.845-4.7l.11.84q-.44.09-.88.15t-.935.09q-.495.03-1.075.045t-1.32.015h-.73v-4.05h4.02v.84h-2.99v2.37q.65 0 1.17-.015t.965-.045q.445-.03.85-.09t.815-.15zm-1.04 1.92a5.982 5.982 0 0 1 1.25.12 3.173 3.173 0 0 1 .95.35 1.741 1.741 0 0 1 .6.56 1.349 1.349 0 0 1 .21.74 1.367 1.367 0 0 1-.21.75 1.741 1.741 0 0 1-.6.56 3.266 3.266 0 0 1-.95.355 5.751 5.751 0 0 1-1.25.125 5.751 5.751 0 0 1-1.25-.125 3.266 3.266 0 0 1-.95-.355 1.741 1.741 0 0 1-.6-.56 1.367 1.367 0 0 1-.21-.75 1.349 1.349 0 0 1 .21-.74 1.741 1.741 0 0 1 .6-.56 3.173 3.173 0 0 1 .95-.35 5.982 5.982 0 0 1 1.25-.12zm0 2.72a3.542 3.542 0 0 0 1.465-.245.768.768 0 0 0 .525-.7.759.759 0 0 0-.525-.7 3.608 3.608 0 0 0-1.465-.24 3.608 3.608 0 0 0-1.465.24.759.759 0 0 0-.525.7.768.768 0 0 0 .525.7 3.542 3.542 0 0 0 1.465.245zm14-8.2h.98V.77h-.98v-4.59h-1.07V.32h-.97v-8.4h.97v3.41h1.07zm-5.27 1.04v4.83q.6-.02 1.25-.075t1.4-.2l.11.88a14.2 14.2 0 0 1-1.69.22q-.78.05-1.5.05h-.6V-7.22zm13.98 3.35h1.95v.82H47.3v-.82h1.94v-1.2a2.08 2.08 0 0 1-.79-.555 1.186 1.186 0 0 1-.28-.785 1.2 1.2 0 0 1 .225-.715 1.8 1.8 0 0 1 .645-.535 3.7 3.7 0 0 1 1.015-.335 7.066 7.066 0 0 1 1.335-.115 7.066 7.066 0 0 1 1.335.115 3.7 3.7 0 0 1 1.015.335 1.8 1.8 0 0 1 .645.535 1.2 1.2 0 0 1 .225.715 1.174 1.174 0 0 1-.285.785 2.207 2.207 0 0 1-.805.565zm-2.13-3.44a4.466 4.466 0 0 0-1.6.225q-.565.225-.565.675t.565.68a4.377 4.377 0 0 0 1.6.23 4.335 4.335 0 0 0 1.59-.23q.56-.23.56-.68t-.56-.675a4.423 4.423 0 0 0-1.59-.225zm-1.12 2.52v.92h2.22v-.92q-.25.04-.525.06t-.575.02q-.3 0-.585-.02t-.535-.06zm1.1 2.32a5.082 5.082 0 0 1 2.31.42 1.308 1.308 0 0 1 .8 1.2 1.308 1.308 0 0 1-.8 1.2 5.082 5.082 0 0 1-2.31.42 5.115 5.115 0 0 1-2.28-.42 1.307 1.307 0 0 1-.83-1.2 1.307 1.307 0 0 1 .805-1.2 5.087 5.087 0 0 1 2.305-.42zm0 2.45A4.475 4.475 0 0 0 52.9-.225q.535-.205.535-.625t-.535-.625a4.475 4.475 0 0 0-1.535-.205 4.43 4.43 0 0 0-1.53.205q-.53.2-.53.625t.53.625a4.43 4.43 0 0 0 1.53.205zm9.22-4.99a5.658 5.658 0 0 1-2.4-.4 1.25 1.25 0 0 1-.825-1.15 1.256 1.256 0 0 1 .825-1.16 5.658 5.658 0 0 1 2.4-.4 5.664 5.664 0 0 1 2.39.4 1.256 1.256 0 0 1 .83 1.16 1.251 1.251 0 0 1-.83 1.15 5.664 5.664 0 0 1-2.39.4zm0-2.34a4.911 4.911 0 0 0-1.6.2q-.545.2-.545.59t.545.58a4.911 4.911 0 0 0 1.6.2 4.911 4.911 0 0 0 1.6-.2q.545-.2.545-.58t-.545-.59a4.911 4.911 0 0 0-1.6-.2zM56.5-4.48h8.18v.82H56.5zm2.01 3.63v.75h5.4v.79h-6.42v-2.27h5.15v-.65h-5.17v-.78h6.18v2.16zm10.27-2.57-.36-.81a5.273 5.273 0 0 0 1.21-.285 4.079 4.079 0 0 0 .955-.495 2.615 2.615 0 0 0 .645-.64 1.466 1.466 0 0 0 .27-.71h-2.78v-.83h2.79v-1.07h1.03v1.07h2.8v.83h-2.79a1.466 1.466 0 0 0 .27.71 2.615 2.615 0 0 0 .645.64 4.079 4.079 0 0 0 .955.495 5.273 5.273 0 0 0 1.21.285l-.37.81a5.345 5.345 0 0 1-1.96-.605 3.562 3.562 0 0 1-1.285-1.155 3.521 3.521 0 0 1-1.285 1.15 5.544 5.544 0 0 1-1.955.61zm7.33.59v.85h-3.57V.79h-1.03v-2.77h-3.56v-.85zm9.4-1.87v.86h-1.37v4.6h-1.03v-9.03h1.03v3.57zm-7.92-2.61h4.19a8.141 8.141 0 0 1-.22 1.9 6.172 6.172 0 0 1-.71 1.74 6.8 6.8 0 0 1-1.26 1.525A8.3 8.3 0 0 1 77.705-.88l-.57-.79a5.971 5.971 0 0 0 3.61-4.8h-3.16zm15.47-.95h.98V.77h-.98v-4.44h-.96V.35h-.96v-8.42h.96v3.55h.96zm-4 .26v1.21h1.69v.83h-4.42v-.83h1.71V-8zm-.51 2.55a2.034 2.034 0 0 1 .79.15 1.758 1.758 0 0 1 .62.43 2 2 0 0 1 .4.665 2.409 2.409 0 0 1 .145.855 2.421 2.421 0 0 1-.145.85 1.937 1.937 0 0 1-.4.665 1.849 1.849 0 0 1-.62.43 1.977 1.977 0 0 1-.79.155 1.977 1.977 0 0 1-.79-.155 1.849 1.849 0 0 1-.62-.43 1.937 1.937 0 0 1-.41-.665 2.421 2.421 0 0 1-.145-.85 2.409 2.409 0 0 1 .145-.85 2 2 0 0 1 .405-.665 1.758 1.758 0 0 1 .62-.43 2.034 2.034 0 0 1 .79-.155zm0 3.34a.946.946 0 0 0 .75-.335 1.335 1.335 0 0 0 .29-.905 1.355 1.355 0 0 0-.29-.91.94.94 0 0 0-.75-.34.94.94 0 0 0-.75.34 1.355 1.355 0 0 0-.29.91 1.335 1.335 0 0 0 .29.905.946.946 0 0 0 .745.335zm7.82-1.73L96-4.65a5.276 5.276 0 0 0 1.19-.3 4 4 0 0 0 .955-.52 2.671 2.671 0 0 0 .645-.675 1.541 1.541 0 0 0 .26-.77H96.3v-.83h6.65v.83h-2.73a1.541 1.541 0 0 0 .26.77 2.671 2.671 0 0 0 .645.675 4 4 0 0 0 .955.52 5.276 5.276 0 0 0 1.19.3l-.37.81a5.579 5.579 0 0 1-1.98-.69 3.47 3.47 0 0 1-1.29-1.27 3.489 3.489 0 0 1-1.28 1.27 5.33 5.33 0 0 1-1.985.69zm7.35.66-.01.83h-3.59V.78h-1.03v-3.13h-3.54v-.83zm7.76-5.08h.98V.77h-.98zm-1.84 3.16v-2.99h.97V.35h-.97v-4.61h-1.33v-.84zm-2.12-2.33v1.58a5.775 5.775 0 0 0 .105 1.095 4.955 4.955 0 0 0 .32 1.04 3.941 3.941 0 0 0 .55.91 3.3 3.3 0 0 0 .785.7l-.58.8a3.171 3.171 0 0 1-1.035-1.005 5.415 5.415 0 0 1-.635-1.385 5.443 5.443 0 0 1-.68 1.52 3.437 3.437 0 0 1-1.1 1.07l-.63-.78a3.262 3.262 0 0 0 .835-.72 4.343 4.343 0 0 0 .6-.95 4.893 4.893 0 0 0 .355-1.1 5.875 5.875 0 0 0 .115-1.155v-1.62zm12.68 6.25h1.93v.84h-8.18v-.84h1.91v-2.35a2.319 2.319 0 0 1-.845-.775 1.947 1.947 0 0 1-.305-1.075 1.952 1.952 0 0 1 .245-.975 2.253 2.253 0 0 1 .69-.745 3.367 3.367 0 0 1 1.055-.475 5.082 5.082 0 0 1 1.33-.165 5.082 5.082 0 0 1 1.33.165 3.3 3.3 0 0 1 1.05.475 2.325 2.325 0 0 1 .69.745 1.921 1.921 0 0 1 .25.975 1.922 1.922 0 0 1-.3 1.07 2.42 2.42 0 0 1-.845.78zm-2.17-5.75a3.788 3.788 0 0 0-.94.11 2.43 2.43 0 0 0-.735.31 1.5 1.5 0 0 0-.475.485 1.235 1.235 0 0 0-.17.645 1.261 1.261 0 0 0 .17.65 1.479 1.479 0 0 0 .475.49 2.43 2.43 0 0 0 .735.31 3.788 3.788 0 0 0 .94.11 3.728 3.728 0 0 0 .935-.11 2.435 2.435 0 0 0 .73-.31 1.479 1.479 0 0 0 .475-.49 1.261 1.261 0 0 0 .17-.65 1.235 1.235 0 0 0-.17-.645 1.5 1.5 0 0 0-.475-.485 2.435 2.435 0 0 0-.73-.31 3.728 3.728 0 0 0-.94-.11zm-1.14 3.79v1.96h2.28v-1.97a3.5 3.5 0 0 1-.55.1 5.731 5.731 0 0 1-.59.03 5.156 5.156 0 0 1-1.145-.12zm7.37 2.03V.13h-1.18v-1.24z" transform="translate(180 444)"/>
        <path id="패스_2479" data-name="패스 2479" class="cls-3" d="m-87.235-3.42-.36-.81a5.273 5.273 0 0 0 1.21-.285 4.079 4.079 0 0 0 .955-.495 2.615 2.615 0 0 0 .645-.64 1.466 1.466 0 0 0 .27-.71h-2.78v-.83h2.79v-1.07h1.03v1.07h2.8v.83h-2.79a1.466 1.466 0 0 0 .27.71 2.615 2.615 0 0 0 .645.64 4.079 4.079 0 0 0 .955.495 5.273 5.273 0 0 0 1.21.285l-.37.81a5.345 5.345 0 0 1-1.955-.605 3.562 3.562 0 0 1-1.285-1.155 3.521 3.521 0 0 1-1.285 1.15 5.544 5.544 0 0 1-1.955.61zm7.33.59v.85h-3.57V.79H-84.5v-2.77h-3.56v-.85zm5.83-2.72h1.66v-2.7h1.03v6.71h-1.03V-4.7h-1.66zm.58 2.02-.5.81a3.645 3.645 0 0 1-1.33-.715 3.326 3.326 0 0 1-.85-1.115 3.621 3.621 0 0 1-.855 1.21 3.567 3.567 0 0 1-1.345.78l-.51-.8a3.7 3.7 0 0 0 .925-.465 3.069 3.069 0 0 0 .68-.645 2.764 2.764 0 0 0 .42-.78 2.647 2.647 0 0 0 .145-.87v-.17h-1.9v-.83h1.9v-1.09h1.04v1.09h1.89v.83h-1.9v.17a2.347 2.347 0 0 0 .145.815 2.514 2.514 0 0 0 .425.735 3.076 3.076 0 0 0 .69.61 3.611 3.611 0 0 0 .925.43zm-2.71 3.29h5.05V.6h-6.08v-2.72h1.03zm9.45-4.05v1.24h-1.18v-1.24zm7.42 3.11h3.59v.85h-8.18v-.85h3.56V-3H-63v-4.66h1.02v1.52h4.28v-1.52h1.02V-3h-2.65zm-2.65-4.13v1.48h4.28v-1.48zm8.03.83-.37-.8a5.871 5.871 0 0 0 1.155-.22 4.221 4.221 0 0 0 .915-.39 2.39 2.39 0 0 0 .625-.51 1.216 1.216 0 0 0 .285-.59h-2.63v-.83h6.67v.83h-2.65a1.216 1.216 0 0 0 .285.59 2.39 2.39 0 0 0 .625.51 4.221 4.221 0 0 0 .915.39 5.871 5.871 0 0 0 1.155.22l-.36.8a5.731 5.731 0 0 1-2.08-.59 2.781 2.781 0 0 1-1.23-1.16 2.849 2.849 0 0 1-1.235 1.16 5.685 5.685 0 0 1-2.075.59zm-.78.46h8.17v.83h-8.17zm4.07 1.48a4.957 4.957 0 0 1 2.285.435 1.343 1.343 0 0 1 .825 1.225A1.334 1.334 0 0 1-48.36.34a4.985 4.985 0 0 1-2.305.43 7.007 7.007 0 0 1-1.3-.11 3.524 3.524 0 0 1-.98-.32 1.677 1.677 0 0 1-.615-.52 1.2 1.2 0 0 1-.215-.7 1.2 1.2 0 0 1 .215-.7 1.72 1.72 0 0 1 .615-.525 3.414 3.414 0 0 1 .98-.325 7.007 7.007 0 0 1 1.3-.11zm0 2.5a4.376 4.376 0 0 0 1.535-.21q.535-.21.535-.63t-.535-.635a4.282 4.282 0 0 0-1.535-.215 4.24 4.24 0 0 0-1.53.215q-.53.215-.53.635t.53.63a4.332 4.332 0 0 0 1.53.21zm14.61-5.58v.83h-6.21v-3.16h6.15v.83h-5.13v1.5zm-7.22 1.58h8.16v.85h-8.16zm4.05 1.52a5.006 5.006 0 0 1 2.285.43 1.326 1.326 0 0 1 .825 1.21A1.334 1.334 0 0 1-36.92.34a4.985 4.985 0 0 1-2.305.43 7.007 7.007 0 0 1-1.3-.11A3.524 3.524 0 0 1-41.5.34a1.677 1.677 0 0 1-.615-.52 1.2 1.2 0 0 1-.215-.7 1.177 1.177 0 0 1 .215-.7 1.7 1.7 0 0 1 .615-.51 3.524 3.524 0 0 1 .98-.32 7.007 7.007 0 0 1 1.295-.11zm0 2.49a4.282 4.282 0 0 0 1.535-.215q.535-.215.535-.635t-.535-.635a4.282 4.282 0 0 0-1.535-.215 4.24 4.24 0 0 0-1.53.215q-.53.215-.53.635t.53.635a4.24 4.24 0 0 0 1.53.215zm11.87-8.23h.98V.76h-.98zm-1.81 3.42v-3.25h.96V.34h-.96v-4.33h-.96a4.99 4.99 0 0 1-.185 1.19 3.217 3.217 0 0 1-.4.895 1.79 1.79 0 0 1-.59.565 1.481 1.481 0 0 1-.75.2 1.462 1.462 0 0 1-.79-.225 1.923 1.923 0 0 1-.615-.64 3.416 3.416 0 0 1-.395-1.01 5.842 5.842 0 0 1-.14-1.335 5.842 5.842 0 0 1 .14-1.335 3.416 3.416 0 0 1 .39-1.015 1.875 1.875 0 0 1 .615-.635 1.486 1.486 0 0 1 .79-.22 1.562 1.562 0 0 1 1.33.72 3.843 3.843 0 0 1 .59 2zm-2.89 2.72a.814.814 0 0 0 .74-.575 4.184 4.184 0 0 0 .26-1.665 4.145 4.145 0 0 0-.26-1.66.813.813 0 0 0-.74-.57.813.813 0 0 0-.74.57 4.145 4.145 0 0 0-.26 1.66 4.184 4.184 0 0 0 .26 1.665.814.814 0 0 0 .74.575zm16.52-3.28h1.2v.85h-1.2v3.07h-1.04v-6.78h1.04zm-2.34 1.01-1.01-.11a10.448 10.448 0 0 0 .175-1.275q.035-.545.045-.965h-3.53v-.84h4.54v.52q0 .46-.025 1.125a10.326 10.326 0 0 1-.195 1.545zm.75.45.07.75q-.7.12-1.44.2t-1.465.115q-.725.04-1.4.055t-1.27.015l-.11-.84h.87q.45 0 .93-.02V-5.52h1.02v1.82q.72-.03 1.425-.08t1.37-.16zm-3.22 1.86v1.84h5.1V.6h-6.14v-2.68zM-8.1-7.23v.82h-5.33v-.82h2.15v-1.04h1.03v1.04zm1.71 1.85h1.28v.85h-1.28v3.04h-1.03v-6.77h1.03zm-2.19 1.1a1.534 1.534 0 0 1-.16.705 1.588 1.588 0 0 1-.45.54 2.1 2.1 0 0 1-.69.345 3.091 3.091 0 0 1-.89.12 3.1 3.1 0 0 1-.885-.12 2.089 2.089 0 0 1-.695-.345 1.588 1.588 0 0 1-.45-.54 1.534 1.534 0 0 1-.16-.705 1.512 1.512 0 0 1 .16-.695 1.588 1.588 0 0 1 .45-.54 2.161 2.161 0 0 1 .695-.35 2.989 2.989 0 0 1 .885-.125 2.975 2.975 0 0 1 .89.125 2.169 2.169 0 0 1 .69.35 1.588 1.588 0 0 1 .45.54 1.512 1.512 0 0 1 .155.695zm-3.39 0a.781.781 0 0 0 .33.67 1.446 1.446 0 0 0 .87.24 1.469 1.469 0 0 0 .87-.24.777.777 0 0 0 .335-.67.777.777 0 0 0-.335-.67 1.469 1.469 0 0 0-.875-.24 1.446 1.446 0 0 0-.87.24.781.781 0 0 0-.33.67zm.9 2.27v1.77h5.04V.6h-6.08v-2.61zm15.05.89h2.21v.85H-2v-.85H.145v-1.94H-1.3v-.83H0v-2.76h-1.33v-.83h6.79v.83H4.125v2.76h1.3v.83h-1.45zM1.025-6.65v2.76h2.08v-2.76zm.15 3.59v1.94h1.78v-1.94zm12.41-5.21h1.04V.79h-1.04zm-3.06.76v1.48a4.673 4.673 0 0 0 .165 1.23 4.7 4.7 0 0 0 .47 1.13 4.226 4.226 0 0 0 .74.94 3.457 3.457 0 0 0 .965.655l-.6.82A3.909 3.909 0 0 1 10.91-2.32a5.042 5.042 0 0 1-.885-1.64 5.488 5.488 0 0 1-.9 1.755 3.958 3.958 0 0 1-1.4 1.155l-.61-.86a3.33 3.33 0 0 0 .98-.67 4.344 4.344 0 0 0 .75-.98 5.075 5.075 0 0 0 .48-1.185A4.948 4.948 0 0 0 9.5-6.03v-1.48zm8.78 3.22v1.24h-1.18v-1.24zm9.94-1.61h1.2v.85h-1.2v2.37H28.2v-5.59h1.04zM26.9-4.77l-1-.09a9.605 9.605 0 0 0 .165-1.15q.035-.49.045-.89h-3.52v-.84h4.53v.54q0 .45-.025 1.05a8.177 8.177 0 0 1-.195 1.38zm.76.48.07.74q-.7.12-1.435.19t-1.455.11q-.72.04-1.4.05t-1.285.01l-.11-.84h.87q.45 0 .93-.01v-1.71h1.02v1.68q.72-.03 1.425-.08t1.365-.14zm-1.4 1.71a6.422 6.422 0 0 1 1.275.115 3.519 3.519 0 0 1 .965.33 1.673 1.673 0 0 1 .61.525 1.219 1.219 0 0 1 .21.7 1.219 1.219 0 0 1-.21.7 1.673 1.673 0 0 1-.61.525 3.519 3.519 0 0 1-.965.33 6.422 6.422 0 0 1-1.28.115A6.365 6.365 0 0 1 24.99.645a3.444 3.444 0 0 1-.96-.33 1.683 1.683 0 0 1-.605-.525 1.219 1.219 0 0 1-.21-.7 1.219 1.219 0 0 1 .21-.7 1.683 1.683 0 0 1 .605-.525 3.444 3.444 0 0 1 .96-.33 6.365 6.365 0 0 1 1.265-.115zm0 2.53a3.964 3.964 0 0 0 1.49-.22q.52-.22.52-.64t-.52-.64a3.964 3.964 0 0 0-1.49-.22 3.9 3.9 0 0 0-1.465.22q-.525.22-.525.64t.525.64a3.9 3.9 0 0 0 1.46.22zm11.32-6.48v-.05h-5.39v-.84h6.43v.89q0 .42-.005.87t-.04.965q-.035.515-.1 1.11t-.2 1.3l-1.04-.11a16.137 16.137 0 0 0 .305-2.33q.035-1.005.035-1.805zm-2.16 5.27h4.08v.85h-8.16v-.85h3.04v-3.18h1.04zm13.77-6.99h1.03v5.12h-1.03zm-.92 3.95-.5.8a3.872 3.872 0 0 1-1.345-.755 3.312 3.312 0 0 1-.865-1.185 3.82 3.82 0 0 1-.885 1.28 3.742 3.742 0 0 1-1.385.83l-.5-.81a3.465 3.465 0 0 0 .945-.485 3.335 3.335 0 0 0 .7-.685 2.923 2.923 0 0 0 .435-.825 2.816 2.816 0 0 0 .15-.9v-.87h1.05v.87a2.567 2.567 0 0 0 .15.87 2.8 2.8 0 0 0 .43.78 3.028 3.028 0 0 0 .69.64 3.649 3.649 0 0 0 .925.445zM44.305.66v-3.32h5.91V.66zm1.01-2.5v1.68H49.2v-1.68zm15.06-2.84v.85h-1.41v4.6h-1.03v-9.03h1.03v3.58zm-5.24-2.83v1.48a4.723 4.723 0 0 0 .155 1.195 4.857 4.857 0 0 0 .44 1.115 4.269 4.269 0 0 0 .69.935 3.3 3.3 0 0 0 .915.665l-.63.82a3.8 3.8 0 0 1-1.26-1.065 5.121 5.121 0 0 1-.82-1.6 5.518 5.518 0 0 1-.845 1.685 3.838 3.838 0 0 1-1.335 1.15l-.63-.83a3.456 3.456 0 0 0 .955-.7 4.42 4.42 0 0 0 .72-.975 5.052 5.052 0 0 0 .455-1.155 4.925 4.925 0 0 0 .155-1.24v-1.48zm12.43-.75h1.04V.77h-1.04zm-3.06 1.75v.86a3.928 3.928 0 0 0 .165 1.125 4.08 4.08 0 0 0 .475 1.04 4.311 4.311 0 0 0 .74.875 3.485 3.485 0 0 0 .96.62l-.57.81A3.813 3.813 0 0 1 64.9-2.22a5.1 5.1 0 0 1-.9-1.57 5.509 5.509 0 0 1-.885 1.7 3.794 3.794 0 0 1-1.39 1.14l-.59-.82a3.269 3.269 0 0 0 .955-.66 4.636 4.636 0 0 0 .735-.945A4.642 4.642 0 0 0 63.3-4.49a4.294 4.294 0 0 0 .165-1.16v-.86h-2.01v-.85h5.06v.85zM75.965-4l-.47.81a3.949 3.949 0 0 1-1.36-.68 3.224 3.224 0 0 1-.89-1.08 3.286 3.286 0 0 1-.87 1.185 3.761 3.761 0 0 1-1.39.745l-.49-.8a3.578 3.578 0 0 0 .94-.43 3.113 3.113 0 0 0 .695-.615 2.577 2.577 0 0 0 .435-.75 2.358 2.358 0 0 0 .15-.825v-.01h-1.96v-.82h1.96V-8.3h1.03v1.03h1.94v.82h-1.94v.01a2.069 2.069 0 0 0 .15.775 2.425 2.425 0 0 0 .435.7 2.936 2.936 0 0 0 .7.575 3.63 3.63 0 0 0 .935.39zm.82-4.25h1.03v5.32h-1.03zM71.905.66V-2.5h5.91V.66zm1.01-2.34v1.52h3.89v-1.52zm15.28-2.31v.81l-4.03 2.75v-1.08l3.15-2.06-3.15-2.19v-1.07z" transform="translate(180 583)"/>
        <g id="그룹_3852" data-name="그룹 3852" transform="translate(128 407.606)">
            <g id="그룹_3095" data-name="그룹 3095" class="cls-4">
                <g id="그룹_3094" data-name="그룹 3094">
                    <g id="그룹_3093" data-name="그룹 3093" class="cls-4">
                        <path id="패스_2218" data-name="패스 2218" class="cls-3" d="M8.577 1.883a6.694 6.694 0 1 1-6.694 6.694 6.7 6.7 0 0 1 6.694-6.694m0-.683a7.377 7.377 0 1 0 7.377 7.377A7.377 7.377 0 0 0 8.577 1.2" transform="translate(-.38 -.38)"/>
                        <path id="패스_2219" data-name="패스 2219" class="cls-3" d="M12.326 14.121H11.1v-1.28h1.218zm-.011-7.907-.206 5.647h-.8l-.164-4.426-.031-1.218z" transform="translate(-3.52 -1.969)"/>
                    </g>
                </g>
            </g>
        </g>
        <path id="패스_2477" data-name="패스 2477" d="M8.08-8.34v6.61H6.75v-6.61zM5.57-5.42a2.275 2.275 0 0 1-.19.93 2.183 2.183 0 0 1-.53.74 2.5 2.5 0 0 1-.8.485 2.721 2.721 0 0 1-.985.175 2.761 2.761 0 0 1-.99-.175 2.426 2.426 0 0 1-.795-.485 2.278 2.278 0 0 1-.53-.74 2.225 2.225 0 0 1-.19-.93 2.249 2.249 0 0 1 .195-.94 2.278 2.278 0 0 1 .53-.74 2.426 2.426 0 0 1 .795-.485 2.761 2.761 0 0 1 .99-.175 2.721 2.721 0 0 1 .985.175 2.5 2.5 0 0 1 .8.485 2.183 2.183 0 0 1 .53.74 2.3 2.3 0 0 1 .185.94zm-3.72 0a1.106 1.106 0 0 0 .355.88 1.269 1.269 0 0 0 .865.31 1.246 1.246 0 0 0 .865-.31 1.122 1.122 0 0 0 .345-.88 1.138 1.138 0 0 0-.345-.885 1.234 1.234 0 0 0-.865-.315 1.257 1.257 0 0 0-.865.315 1.121 1.121 0 0 0-.355.885zM3.27-.35h5.04V.7H1.95v-3.08h1.32zm14.41-3.66-.56 1.1a5.1 5.1 0 0 1-2.065-.87 4.3 4.3 0 0 1-1.305-1.51 4.359 4.359 0 0 1-1.3 1.515 4.924 4.924 0 0 1-2.06.865l-.56-1.1a4.394 4.394 0 0 0 1.38-.455 4.038 4.038 0 0 0 1.01-.755 3.048 3.048 0 0 0 .62-.935 2.578 2.578 0 0 0 .21-.995v-.66h1.41v.66a2.6 2.6 0 0 0 .21 1 3.048 3.048 0 0 0 .62.935 3.946 3.946 0 0 0 1.01.75 4.478 4.478 0 0 0 1.38.455zM9.63-1.33h8.34v1.07H9.63zm17.75-3.53v1.09h-1.34V.87h-1.32v-9.22h1.32v3.49zm-6.87.87v1.71q.97 0 1.815-.05t1.745-.19l.12 1.05q-.53.08-1.03.13t-1.01.075q-.51.025-1.045.035t-1.135.01h-.78v-6.37h4.33v1.07h-3.01v1.5h2.88v1.03zm13.51-2.42v-.04h-5.13V-7.5h6.45v1.09q0 .48-.005.97T35.3-4.415q-.03.535-.1 1.135T35-1.97l-1.31-.12q.12-.66.185-1.24t.1-1.11q.035-.53.04-1.015t.005-.955zm-5.99 4.99h8.33v1.08h-8.33zm15.8-6.92h1.25v5.43h-1.25v-2.21h-.74v2.13h-1.23v-5.19h1.23v2h.74zm-2.4 3.88.11 1.04q-.39.07-.765.11T40-3.245q-.395.025-.825.03t-.94.005H37.6v-2.81h2.21v-.75h-2.22V-7.8h3.49v2.73h-2.21v.82q.73-.01 1.33-.05a10.2 10.2 0 0 0 1.23-.16zM38.84.76v-3.29h6.24V.76zm1.3-2.26v1.22h3.65V-1.5zm16.45-6.19v.99H49.1v-.99h3.1v-.74h1.32v.74zm-3.07 4.32h3.51v1.02h-8.34v-1.02h3.51v-.47a4.739 4.739 0 0 1-1.8-.4.987.987 0 0 1-.62-.9q0-1.31 3.08-1.31t3.09 1.31a.987.987 0 0 1-.625.9 4.784 4.784 0 0 1-1.805.4zm-2.33-1.77q0 .23.395.33a5.756 5.756 0 0 0 1.275.1 5.756 5.756 0 0 0 1.275-.1q.395-.1.395-.33t-.395-.325a8.6 8.6 0 0 0-2.55 0q-.395.095-.395.325zm1.65 3.15a6.206 6.206 0 0 1 2.4.355 1.148 1.148 0 0 1 .8 1.075 1.14 1.14 0 0 1-.805 1.07 6.287 6.287 0 0 1-2.4.35 6.253 6.253 0 0 1-2.38-.35 1.14 1.14 0 0 1-.805-1.07 1.148 1.148 0 0 1 .805-1.075 6.172 6.172 0 0 1 2.385-.355zm0 1.91a6.153 6.153 0 0 0 1.41-.12q.44-.115.44-.365t-.44-.37a9.092 9.092 0 0 0-2.82 0q-.44.11-.44.37t.44.365a6.153 6.153 0 0 0 1.41.12zm9.88-1.2h3.52v1.07H57.9v-1.07h3.5v-1.69h-2.62v-4.81h1.31v1.43h3.94v-1.43h1.3v4.81h-2.61zm-2.63-4.03v1.29h3.94v-1.29zm15.59-3.05H77V.88h-1.32zm-2.74.72v1.34a5.7 5.7 0 0 0 .14 1.26 4.809 4.809 0 0 0 .42 1.16 3.761 3.761 0 0 0 .715.965 3.315 3.315 0 0 0 1.015.675l-.75 1.07a3.545 3.545 0 0 1-1.34-1.015 5.207 5.207 0 0 1-.84-1.5 5.394 5.394 0 0 1-.86 1.645 3.7 3.7 0 0 1-1.4 1.1l-.79-1.09a3.4 3.4 0 0 0 1.05-.705 3.945 3.945 0 0 0 .74-1.01 5.049 5.049 0 0 0 .435-1.22A6.112 6.112 0 0 0 71.62-6.3v-1.34zM78.33.82l.41-2.09h1.46L79.46.82zm9.77-4.31h3.52v1.05h-8.33v-1.05h3.49v-.77h-2.43v-3.76h1.31v.9h3.59v-.9h1.31v3.76H88.1zM85.66-6.1v.8h3.59v-.8zm-.04 4.2v1.55h5.07V.7H84.3v-2.6zm14.14-6.06v3.43h-6.25v-3.43zm-1.3 2.39v-1.36h-3.65v1.36zM92.48-3.8h8.34v1.04h-3.39v1.57h-1.32v-1.57h-3.63zm2.29 1.83v1.62h5.13V.7h-6.45v-2.67zm14.69-2.06-.6 1.02a3.626 3.626 0 0 1-1.305-.62 3.35 3.35 0 0 1-.845-.96 3.417 3.417 0 0 1-.84 1.105 3.427 3.427 0 0 1-1.35.705l-.62-1.03a3.35 3.35 0 0 0 .96-.43 2.685 2.685 0 0 0 .655-.61 2.479 2.479 0 0 0 .38-.725 2.5 2.5 0 0 0 .125-.775v-.03h-1.8v-1.04h1.8v-.96h1.32v.96h1.82v1.04h-1.82v.03a2.14 2.14 0 0 0 .125.715 2.124 2.124 0 0 0 .38.66 2.609 2.609 0 0 0 .66.55 3.739 3.739 0 0 0 .955.395zm-.53-1.88h1.41v-2.44h1.32v6.26h-1.32v-2.75h-1.41zm.33 3.31v.13a1.634 1.634 0 0 0 .175.72 2.109 2.109 0 0 0 .535.67 3.5 3.5 0 0 0 .9.545 4.909 4.909 0 0 0 1.29.335l-.48 1.03a4.974 4.974 0 0 1-1.92-.63 3.557 3.557 0 0 1-1.19-1.14A3.629 3.629 0 0 1 107.375.2a4.927 4.927 0 0 1-1.9.635L104.99-.2a4.706 4.706 0 0 0 1.27-.345 3.69 3.69 0 0 0 .915-.56 2.273 2.273 0 0 0 .55-.675 1.51 1.51 0 0 0 .185-.69v-.13zm6.95-2.34-.41-.99a5.55 5.55 0 0 0 1.97-.415 1.984 1.984 0 0 0 .93-.735h-2.51v-1.03H123v1.03h-2.51a1.984 1.984 0 0 0 .92.735 5.482 5.482 0 0 0 1.97.415l-.4.99a6.249 6.249 0 0 1-2.15-.465 3.053 3.053 0 0 1-1.24-.955 3.127 3.127 0 0 1-1.245.95 6.162 6.162 0 0 1-2.135.47zm7.54 1.28h-3.5v.58h2.49v2.37h-5.04v.52h5.28v.98h-6.59v-2.4h5.05v-.51h-5.06v-.96h2.55v-.58h-3.5v-1.03h8.32zm7.53-4.7h1.25V.85h-1.25zm-1.87 3.4V-8.2h1.23V.45h-1.23v-4.34h-.72a4.184 4.184 0 0 1-.615 2.125 1.605 1.605 0 0 1-1.375.755 1.515 1.515 0 0 1-.825-.23 1.956 1.956 0 0 1-.625-.66 3.519 3.519 0 0 1-.4-1.055 6.448 6.448 0 0 1-.14-1.4 6.379 6.379 0 0 1 .14-1.4 3.521 3.521 0 0 1 .4-1.05 1.956 1.956 0 0 1 .625-.66 1.515 1.515 0 0 1 .825-.23 1.619 1.619 0 0 1 1.345.69 3.893 3.893 0 0 1 .635 2.05zm-2.71 2.71q.38 0 .59-.51a4.5 4.5 0 0 0 .21-1.6 4.469 4.469 0 0 0-.21-1.58q-.21-.52-.59-.52t-.59.52a4.469 4.469 0 0 0-.21 1.58 4.5 4.5 0 0 0 .21 1.6q.21.51.59.51zm9.64-3.35v-1.45a1.655 1.655 0 0 1 .09-.605 1.609 1.609 0 0 1 .29-.51 1.634 1.634 0 0 1 .46-.375 1.607 1.607 0 0 1 .58-.19v.66a.951.951 0 0 0-.52.38 1.242 1.242 0 0 0-.14.63h.64v1.46zm2.82 5.6.28-2.17h-.85v-.95h.96l.17-1.37h-.9v-.96h1.02l.25-1.92h.94l-.24 1.92h1.12l.25-1.92h.95l-.23 1.92h.87v.96h-.99l-.17 1.37h.93v.95h-1.04L142.22 0h-.98l.27-2.17h-1.11L140.13 0zm1.34-3.12h1.12l.17-1.37h-1.12zm11.37-2.97h1.11V-5h-1.11v2.27h-1.32v-5.62h1.32zm-2.43 1.26-1.28-.1a9.159 9.159 0 0 0 .145-1.03q.035-.46.045-.84h-3.42v-1.05h4.72v.6q0 .46-.025 1.065a8.18 8.18 0 0 1-.185 1.355zm.61.42.08.94q-.71.12-1.445.19t-1.455.105q-.72.035-1.4.045t-1.305.01l-.13-1.05h.81q.42 0 .87-.01v-1.61h1.29v1.58q.69-.03 1.36-.075t1.325-.125zm-1.28 1.78a6.646 6.646 0 0 1 1.32.12 3.547 3.547 0 0 1 1 .345 1.838 1.838 0 0 1 .635.545 1.238 1.238 0 0 1 .225.73 1.245 1.245 0 0 1-.225.725 1.815 1.815 0 0 1-.635.55 3.547 3.547 0 0 1-1 .345 6.646 6.646 0 0 1-1.32.12 6.723 6.723 0 0 1-1.325-.12 3.62 3.62 0 0 1-1.01-.345 1.8 1.8 0 0 1-.64-.55 1.245 1.245 0 0 1-.225-.725 1.238 1.238 0 0 1 .225-.73 1.827 1.827 0 0 1 .64-.545 3.62 3.62 0 0 1 1.01-.345 6.723 6.723 0 0 1 1.325-.12zm0 2.45q1.83 0 1.83-.71t-1.83-.72a4.162 4.162 0 0 0-1.38.175q-.47.175-.47.545t.47.54a4.276 4.276 0 0 0 1.38.17zm12.12-2.09-1.32-.15a16.539 16.539 0 0 0 .315-2.3q.055-1 .055-1.8h-5.37v-1.04h6.69v.88q0 .43-.005.9t-.04 1.005q-.035.535-.11 1.155t-.215 1.35zm-2.9.96h4.07v1.06h-8.33v-1.06h2.94v-3.17h1.32zm6.39-7.44v1.45a1.466 1.466 0 0 1-.085.605 1.688 1.688 0 0 1-.295.51 1.585 1.585 0 0 1-.455.37 1.781 1.781 0 0 1-.585.2v-.66a.965.965 0 0 0 .515-.385 1.213 1.213 0 0 0 .145-.625h-.64V-8.75zm9.99.39h1.25V.85h-1.25v-4.39h-.7V.47h-1.23v-8.65h1.23v3.58h.7zm-3.79.26v1.14h1.53v1.05h-4.4v-1.05h1.57V-8.1zm-.65 2.59a2.019 2.019 0 0 1 .81.16 1.856 1.856 0 0 1 .64.455 2.108 2.108 0 0 1 .42.7 2.529 2.529 0 0 1 .15.885 2.488 2.488 0 0 1-.15.88 2.119 2.119 0 0 1-.42.7 1.856 1.856 0 0 1-.64.455 2.019 2.019 0 0 1-.81.16 2.019 2.019 0 0 1-.81-.16 1.857 1.857 0 0 1-.64-.455 2.119 2.119 0 0 1-.42-.7 2.488 2.488 0 0 1-.15-.88 2.529 2.529 0 0 1 .15-.885 2.108 2.108 0 0 1 .42-.7 1.857 1.857 0 0 1 .64-.455 2.019 2.019 0 0 1 .81-.16zm0 3.29a.773.773 0 0 0 .62-.285 1.215 1.215 0 0 0 .24-.805 1.235 1.235 0 0 0-.24-.81.768.768 0 0 0-.62-.29.768.768 0 0 0-.62.29 1.235 1.235 0 0 0-.24.81 1.215 1.215 0 0 0 .24.805.773.773 0 0 0 .62.285zm13.3-6.14h1.32V.88h-1.32zm-2.74.72v1.34a5.7 5.7 0 0 0 .14 1.26 4.81 4.81 0 0 0 .42 1.16 3.761 3.761 0 0 0 .715.965 3.315 3.315 0 0 0 1.015.675l-.75 1.07a3.545 3.545 0 0 1-1.34-1.015 5.207 5.207 0 0 1-.84-1.5 5.394 5.394 0 0 1-.86 1.645 3.7 3.7 0 0 1-1.4 1.1l-.79-1.09a3.4 3.4 0 0 0 1.05-.705 3.945 3.945 0 0 0 .74-1.01 5.049 5.049 0 0 0 .435-1.22 6.112 6.112 0 0 0 .145-1.335v-1.34zm12.28-.72h1.25V.86h-1.25v-4.59h-.74V.45h-1.23v-8.66h1.23v3.42h.74zm-5.09 4.39v1.65q.76 0 1.365-.04t1.255-.14l.12 1.06q-.4.07-.78.11t-.775.06q-.4.02-.835.025t-.96 0h-.64V-7.4h3.72v1.05h-2.47v1.36h2.28v1.02zm13.63-2.44v-.04h-5.13V-7.5h6.45v1.09q0 .48-.005.97t-.035 1.025q-.03.535-.1 1.135t-.2 1.31l-1.31-.12q.12-.66.185-1.24t.1-1.11q.035-.53.04-1.015t.005-.955zm-5.99 4.99h8.33v1.08h-8.33zm15.22-5.43v-.45h-5v-.89h6.3v2.17h-4.98v.48H212v.89h-6.44v-2.2zm-6.02 2.64h8.34v.95h-8.34zm2.26 3.6v.5h5.34v.89h-6.65v-2.22h5.09v-.47h-5.1v-.89h6.41v2.19zm16.46-6h1.22v1.07h-1.22v1.76h-1.32v-4.58h1.32zm-2.03 1.3.13 1.03q-.45.1-.9.16t-.95.095q-.505.035-1.09.045t-1.325.01h-.77v-3.9h4.12v1.03h-2.81v1.83q.59 0 1.08-.015t.92-.055q.43-.04.815-.095t.78-.135zm-2.73 4.45v.58h5.02V.75h-6.33v-2.57h4.77v-.54h-4.78V-3.4h6.08v2.54zm15.26-4.02v1.09h-1.34V.86h-1.32v-9.21h1.32v3.47zm-6.08-2.83a2.071 2.071 0 0 1 .965.23 2.239 2.239 0 0 1 .765.655 3.3 3.3 0 0 1 .5 1.03 4.663 4.663 0 0 1 .185 1.365 4.714 4.714 0 0 1-.185 1.37 3.359 3.359 0 0 1-.5 1.04 2.218 2.218 0 0 1-.765.66 2.071 2.071 0 0 1-.965.23 2.071 2.071 0 0 1-.965-.23 2.264 2.264 0 0 1-.77-.66 3.217 3.217 0 0 1-.5-1.04 4.836 4.836 0 0 1-.18-1.37 4.784 4.784 0 0 1 .18-1.365 3.162 3.162 0 0 1 .5-1.03 2.286 2.286 0 0 1 .77-.655 2.071 2.071 0 0 1 .965-.23zm0 5.38a.948.948 0 0 0 .83-.535 3.091 3.091 0 0 0 .32-1.565 3.062 3.062 0 0 0-.32-1.56.949.949 0 0 0-.83-.53.945.945 0 0 0-.835.53 3.1 3.1 0 0 0-.315 1.56 3.132 3.132 0 0 0 .315 1.565.944.944 0 0 0 .835.535zm7.61-1.46-.48-1.03a5.565 5.565 0 0 0 1.245-.29 3.873 3.873 0 0 0 .91-.47 2.171 2.171 0 0 0 .58-.595 1.705 1.705 0 0 0 .255-.655h-2.65v-1.05h6.83v1.05h-2.61a1.705 1.705 0 0 0 .255.655 2.2 2.2 0 0 0 .575.595 3.769 3.769 0 0 0 .9.47 5.559 5.559 0 0 0 1.235.29l-.47 1.03a5.61 5.61 0 0 1-2.04-.65 3.337 3.337 0 0 1-1.25-1.2 3.337 3.337 0 0 1-1.25 1.2 5.61 5.61 0 0 1-2.035.65zm7.45.53v1.05h-3.53V.88h-1.32v-3.09h-3.47v-1.05zm7.52-5.09h1.25V.86h-1.25zm-1.87 3.11V-8.2h1.23V.45h-1.23v-4.62h-1.15v-1.07zm-1.84-2.31v1.5a7.806 7.806 0 0 0 .08 1.115 4.855 4.855 0 0 0 .275 1.06 4.032 4.032 0 0 0 .51.935 3.029 3.029 0 0 0 .785.74l-.72 1.02a2.963 2.963 0 0 1-.97-.925 5.07 5.07 0 0 1-.59-1.265 5.4 5.4 0 0 1-.65 1.4 3.238 3.238 0 0 1-1.04 1l-.79-.99a3.149 3.149 0 0 0 .86-.76 4.1 4.1 0 0 0 .565-.98 5.347 5.347 0 0 0 .315-1.12 7.05 7.05 0 0 0 .1-1.18v-1.55zm12.75 6.27h1.85v1.07h-8.34v-1.07h1.84v-2.25a2.32 2.32 0 0 1-.83-.805 2.006 2.006 0 0 1-.28-1.085 2.029 2.029 0 0 1 .26-1.025 2.445 2.445 0 0 1 .715-.78 3.427 3.427 0 0 1 1.085-.5 5.1 5.1 0 0 1 1.37-.175 5.144 5.144 0 0 1 1.38.175 3.428 3.428 0 0 1 1.085.5 2.446 2.446 0 0 1 .715.78 2.029 2.029 0 0 1 .26 1.025 2.047 2.047 0 0 1-.3 1.085 2.415 2.415 0 0 1-.815.805zm-2.33-5.58a2.827 2.827 0 0 0-1.545.375 1.194 1.194 0 0 0-.585 1.065 1.194 1.194 0 0 0 .585 1.065 2.827 2.827 0 0 0 1.545.375 3.744 3.744 0 0 0 .875-.095 2.11 2.11 0 0 0 .675-.28 1.347 1.347 0 0 0 .435-.455 1.2 1.2 0 0 0 .155-.61 1.2 1.2 0 0 0-.155-.615 1.364 1.364 0 0 0-.435-.45 2.11 2.11 0 0 0-.675-.28 3.744 3.744 0 0 0-.875-.095zm-1.01 3.82v1.76h2.03v-1.76a5.531 5.531 0 0 1-1.02.09 5.474 5.474 0 0 1-1.01-.09zm7.73 1.76V.14h-1.46v-1.42z" transform="translate(48 477)"/>
        <path id="패스_2478" data-name="패스 2478" d="M-117.675-8.19v3.08h-6.21v-3.08h1.31v.61h3.59v-.61zm-1.31 2.11v-.54h-3.59v.54zm-5.96 1.47h8.32v1.04h-8.32zm2.27 3.9v.52h5.28v.98h-6.59v-2.4h5.05v-.47H-124v-.97h6.36v2.34zm11.75-.52h3.52v1.08h-8.34v-1.08h3.5V-2.6h-2.54v-3.12h5.14v-.99h-5.15v-1.05h6.45v3.07h-5.13v1.03h5.34v1.06h-2.79zm10.37-5.18v-.04h-5.13V-7.5h6.45v2.06q0 .49-.035 1.025-.03.535-.1 1.135t-.2 1.31l-1.31-.12q.12-.66.185-1.24t.1-1.11q.035-.53.04-1.015t0-.955zm-5.99 4.99h8.33v1.08h-8.33zm19.36-6.27v.99h-7.49v-.99h3.1v-.74h1.32v.74zm-3.07 4.32h3.51v1.02h-8.34v-1.02h3.51v-.47a4.739 4.739 0 0 1-1.8-.4.987.987 0 0 1-.62-.9q0-1.31 3.08-1.31t3.09 1.31a.987.987 0 0 1-.625.9 4.784 4.784 0 0 1-1.805.4zm-2.33-1.77q0 .23.4.33a5.756 5.756 0 0 0 1.275.1 5.756 5.756 0 0 0 1.275-.1q.4-.1.4-.33t-.4-.325a6.05 6.05 0 0 0-1.275-.095 6.05 6.05 0 0 0-1.275.095q-.4.095-.4.325zm1.65 3.15a6.206 6.206 0 0 1 2.4.355 1.148 1.148 0 0 1 .8 1.075 1.14 1.14 0 0 1-.8 1.07 6.287 6.287 0 0 1-2.4.35A6.253 6.253 0 0 1-93.32.51a1.14 1.14 0 0 1-.805-1.07 1.148 1.148 0 0 1 .805-1.075 6.172 6.172 0 0 1 2.385-.355zm0 1.91a6.153 6.153 0 0 0 1.41-.12q.44-.115.44-.365t-.44-.37a6.424 6.424 0 0 0-1.41-.11 6.424 6.424 0 0 0-1.41.11q-.44.11-.44.37t.44.365a6.153 6.153 0 0 0 1.41.12zm9.88-1.2h3.52v1.07h-8.34v-1.07h3.5v-1.69H-85v-4.81h1.31v1.43h3.94v-1.43h1.3v4.81h-2.61zm-2.63-4.03v1.29h3.94v-1.29zM-68.1-8.36h1.32V.88h-1.32zm-2.74.72v1.34a5.7 5.7 0 0 0 .14 1.26 4.809 4.809 0 0 0 .42 1.16 3.761 3.761 0 0 0 .715.965 3.315 3.315 0 0 0 1.015.675l-.75 1.07a3.545 3.545 0 0 1-1.34-1.015 5.207 5.207 0 0 1-.84-1.5 5.394 5.394 0 0 1-.86 1.645 3.7 3.7 0 0 1-1.4 1.1l-.79-1.09a3.4 3.4 0 0 0 1.05-.705 3.945 3.945 0 0 0 .74-1.01 5.049 5.049 0 0 0 .435-1.22 6.112 6.112 0 0 0 .15-1.335v-1.34zm5.39 8.46.41-2.09h1.46l-.74 2.09zm5.2-6.42v-1.45a1.656 1.656 0 0 1 .09-.605 1.609 1.609 0 0 1 .29-.51 1.634 1.634 0 0 1 .46-.375 1.607 1.607 0 0 1 .58-.19v.66a.951.951 0 0 0-.52.38 1.242 1.242 0 0 0-.14.63h.64v1.46zm8.6-2.76h1.32V.88h-1.32zm-3.63.65a2.071 2.071 0 0 1 .965.23 2.239 2.239 0 0 1 .765.655 3.3 3.3 0 0 1 .51 1.025 4.663 4.663 0 0 1 .185 1.365 4.714 4.714 0 0 1-.185 1.37 3.359 3.359 0 0 1-.505 1.04 2.218 2.218 0 0 1-.765.66 2.071 2.071 0 0 1-.965.23 2.071 2.071 0 0 1-.965-.23 2.218 2.218 0 0 1-.765-.66 3.359 3.359 0 0 1-.505-1.04 4.714 4.714 0 0 1-.19-1.365 4.663 4.663 0 0 1 .19-1.37 3.3 3.3 0 0 1 .505-1.03 2.239 2.239 0 0 1 .765-.655 2.071 2.071 0 0 1 .965-.225zm0 1.19a.949.949 0 0 0-.83.53 3.062 3.062 0 0 0-.32 1.56 3.091 3.091 0 0 0 .32 1.565.948.948 0 0 0 .83.535.948.948 0 0 0 .83-.535 3.091 3.091 0 0 0 .32-1.565 3.062 3.062 0 0 0-.32-1.56.949.949 0 0 0-.825-.53zm15.98 1.41h1.15v1.04h-8.34v-1.04h5.87a9.3 9.3 0 0 0 .145-1.01q.035-.44.045-.82h-5.03v-1.05h6.33v.63q0 .45-.02 1.005a8.431 8.431 0 0 1-.15 1.245zm-4.93 4.26v.62h5.31V.79h-6.63v-2.61h5.08v-.6h-5.09v-1.02h6.41v2.59zm11.1-3.43a6.615 6.615 0 0 1-1.365-.13 3.591 3.591 0 0 1-1.05-.38 2.018 2.018 0 0 1-.675-.6 1.364 1.364 0 0 1-.24-.79 1.364 1.364 0 0 1 .24-.79 2.018 2.018 0 0 1 .675-.6 3.591 3.591 0 0 1 1.05-.38 6.615 6.615 0 0 1 1.365-.13 6.688 6.688 0 0 1 1.37.13 3.59 3.59 0 0 1 1.055.38 2.018 2.018 0 0 1 .675.6 1.364 1.364 0 0 1 .24.79 1.364 1.364 0 0 1-.24.79 2.018 2.018 0 0 1-.675.6 3.59 3.59 0 0 1-1.055.38 6.688 6.688 0 0 1-1.365.13zm0-2.76a3.822 3.822 0 0 0-1.455.22.7.7 0 0 0-.515.64.689.689 0 0 0 .515.64 3.987 3.987 0 0 0 1.455.21 4.029 4.029 0 0 0 1.46-.21.69.69 0 0 0 .52-.64q0-.42-.52-.64a3.862 3.862 0 0 0-1.455-.22zm-4.16 3.39h8.32v1.05h-8.32zm2.33 1.67v1.63h5.06V.7h-6.38v-2.68zm16.58-3.15v1h-6.41v-4h6.34v1h-5.03v.5h4.81v.96h-4.81v.54zm-7.45 1.56h8.33v1.05h-8.33zm.93 2.67v-1.04h6.38V.87h-1.32V-.9zm13.28-5.23h1.38v-2.22h1.32v5.48h-1.32v-2.19h-1.38zm.55 1.98-.64 1.03a3.572 3.572 0 0 1-1.27-.715 3.51 3.51 0 0 1-.82-1.075 3.827 3.827 0 0 1-.845 1.235A3.462 3.462 0 0 1-16-2.87l-.67-1.04a3.366 3.366 0 0 0 .95-.495 3.126 3.126 0 0 0 .665-.68 2.9 2.9 0 0 0 .4-.8 3.324 3.324 0 0 0 .155-.855h-1.8V-7.8h4.95v1.06h-1.79a2.673 2.673 0 0 0 .14.78 2.632 2.632 0 0 0 .385.735 2.883 2.883 0 0 0 .645.625 3.314 3.314 0 0 0 .905.45zm-.96 1.48a6.571 6.571 0 0 1 1.315.12 3.475 3.475 0 0 1 .99.345 1.757 1.757 0 0 1 .625.555 1.321 1.321 0 0 1 .22.75 1.321 1.321 0 0 1-.22.75 1.757 1.757 0 0 1-.62.555 3.475 3.475 0 0 1-.99.345 6.571 6.571 0 0 1-1.315.12 6.646 6.646 0 0 1-1.32-.12 3.475 3.475 0 0 1-.995-.345 1.757 1.757 0 0 1-.625-.555 1.321 1.321 0 0 1-.22-.75 1.321 1.321 0 0 1 .22-.75 1.757 1.757 0 0 1 .625-.555 3.475 3.475 0 0 1 .995-.345 6.646 6.646 0 0 1 1.32-.12zm0 2.54q1.83 0 1.83-.77t-1.83-.77q-1.84 0-1.84.77t1.845.77zM1.505-8.36h1.25V.85h-1.25zm-1.86 3.15V-8.2h1.23V.44h-1.23v-4.58h-1.17v-1.07zm-1.87-1.15v.45a7.267 7.267 0 0 0 .09 1.145 4.793 4.793 0 0 0 .3 1.075 3.812 3.812 0 0 0 .55.935 2.971 2.971 0 0 0 .84.715l-.77.96a3.006 3.006 0 0 1-1.02-.94 5.054 5.054 0 0 1-.62-1.31A5.8 5.8 0 0 1-3.5-1.895 3.246 3.246 0 0 1-4.545-.86l-.78-.97a3.319 3.319 0 0 0 .85-.775 4.16 4.16 0 0 0 .565-.99A5.241 5.241 0 0 0-3.6-4.72a7.474 7.474 0 0 0 .1-1.19v-.45h-1.48v-1.07h4.1v1.07zm8.18.7v-1.39h-1.17V-8.1h6.85v1.05h-1.17v1.39h1.1v1.05h-6.72v-1.05zm3.2 0v-1.39h-1.89v1.39zm3.22 2.67h-3.5v.75h2.51v3h-6.36v-3h2.53v-.75h-3.5v-1.05h8.32zm-2.29 2.71v-.93h-3.77v.93zm9.53-8.08h1.32V.88h-1.32zm-3.4.62a2.9 2.9 0 0 1 1.005.17 2.5 2.5 0 0 1 .805.47 2.178 2.178 0 0 1 .535.715 2.125 2.125 0 0 1 .195.915 2.134 2.134 0 0 1-.195.91 2.164 2.164 0 0 1-.535.72 2.5 2.5 0 0 1-.805.47 2.9 2.9 0 0 1-1.005.17 2.9 2.9 0 0 1-1-.17 2.44 2.44 0 0 1-.8-.47 2.2 2.2 0 0 1-.53-.72 2.134 2.134 0 0 1-.2-.91 2.125 2.125 0 0 1 .2-.915 2.211 2.211 0 0 1 .53-.715 2.44 2.44 0 0 1 .8-.47 2.9 2.9 0 0 1 1-.17zm0 1.13a1.339 1.339 0 0 0-.895.3 1.04 1.04 0 0 0-.355.84 1.04 1.04 0 0 0 .355.84 1.339 1.339 0 0 0 .895.3 1.339 1.339 0 0 0 .9-.3 1.04 1.04 0 0 0 .355-.84 1.04 1.04 0 0 0-.355-.84 1.339 1.339 0 0 0-.9-.3zm-2.75 5.62-.17-1.07q.61 0 1.32-.005t1.47-.035q.76-.03 1.53-.09t1.5-.17l.08.95q-.74.15-1.505.235t-1.5.125q-.74.04-1.43.05t-1.295.01zm17.57-7.37h1.32V.88h-1.32zm-3.63.65a2.071 2.071 0 0 1 .965.23 2.239 2.239 0 0 1 .765.655A3.3 3.3 0 0 1 29.64-5.8a4.663 4.663 0 0 1 .185 1.365 4.714 4.714 0 0 1-.185 1.37 3.359 3.359 0 0 1-.505 1.04 2.218 2.218 0 0 1-.765.66 2.071 2.071 0 0 1-.965.23 2.071 2.071 0 0 1-.965-.23 2.218 2.218 0 0 1-.765-.66 3.359 3.359 0 0 1-.5-1.04 4.714 4.714 0 0 1-.185-1.37 4.663 4.663 0 0 1 .18-1.365 3.3 3.3 0 0 1 .5-1.03 2.239 2.239 0 0 1 .765-.655 2.071 2.071 0 0 1 .965-.225zm0 1.19a.949.949 0 0 0-.83.53 3.062 3.062 0 0 0-.32 1.56 3.091 3.091 0 0 0 .32 1.565.948.948 0 0 0 .83.535.948.948 0 0 0 .83-.535 3.091 3.091 0 0 0 .32-1.565 3.062 3.062 0 0 0-.32-1.56.949.949 0 0 0-.835-.53zm12.95 2.54h1.89v1.04h-8.32v-1.04h1.87v-1.11a1.477 1.477 0 0 1-1.04-1.35 1.245 1.245 0 0 1 .235-.74 1.881 1.881 0 0 1 .67-.56 3.8 3.8 0 0 1 1.05-.35 7.207 7.207 0 0 1 1.375-.12 7.266 7.266 0 0 1 1.385.12 3.8 3.8 0 0 1 1.05.35 1.881 1.881 0 0 1 .67.56 1.245 1.245 0 0 1 .235.74 1.206 1.206 0 0 1-.28.79 2.14 2.14 0 0 1-.79.57zm-2.27-3.23a4.373 4.373 0 0 0-1.455.19q-.515.19-.515.58t.515.57a4.373 4.373 0 0 0 1.455.19 4.4 4.4 0 0 0 1.475-.19q.5-.19.5-.57t-.5-.58a4.4 4.4 0 0 0-1.475-.19zm-.97 2.46v.77h1.92v-.76q-.22.02-.455.035t-.495.015a7.355 7.355 0 0 1-.97-.06zm.95 2.27a5.234 5.234 0 0 1 2.345.435 1.349 1.349 0 0 1 .855 1.235A1.355 1.355 0 0 1 40.41.435a5.234 5.234 0 0 1-2.345.435 5.2 5.2 0 0 1-2.34-.435 1.355 1.355 0 0 1-.85-1.245 1.349 1.349 0 0 1 .85-1.235 5.2 5.2 0 0 1 2.34-.435zm0 2.35q1.86 0 1.86-.68 0-.35-.46-.51a6.205 6.205 0 0 0-2.8 0q-.46.16-.46.51-.005.68 1.86.68zm12.95-7.26v1.03h-7.49v-1.03h3.1v-.97h1.32v.97zm-6.88 2.98a1.285 1.285 0 0 1 .835-1.175A5.287 5.287 0 0 1 47.285-6a5.321 5.321 0 0 1 2.32.415 1.285 1.285 0 0 1 .84 1.175 1.276 1.276 0 0 1-.84 1.17 5.378 5.378 0 0 1-2.32.41 5.343 5.343 0 0 1-2.315-.41 1.276 1.276 0 0 1-.835-1.17zm4.94 0q0-.32-.44-.465a4.637 4.637 0 0 0-1.35-.145 4.583 4.583 0 0 0-1.345.145q-.435.145-.435.465 0 .6 1.78.6t1.79-.6zm2.39 2.02v1.06h-3.52v2.2h-1.32v-2.2h-3.5v-1.06zm7.2-5.97H60V.85h-1.33zm-5.83.96h4.42a9.834 9.834 0 0 1-.2 2.01 6.1 6.1 0 0 1-.685 1.8 6.368 6.368 0 0 1-1.295 1.57 8.651 8.651 0 0 1-2.04 1.32l-.69-1.04a8.761 8.761 0 0 0 1.52-.9 5.45 5.45 0 0 0 1.07-1.06 4.587 4.587 0 0 0 .665-1.23 5.8 5.8 0 0 0 .3-1.42h-3.07zm18.6-.94v5.22h-1.32v-5.22zm-2.71.54v3.9h-4.47v-3.9zm-1.29 2.87v-1.83h-1.88v1.83zm4.15 3.28h-2.54a1.119 1.119 0 0 0 .25.47 2.092 2.092 0 0 0 .56.45 4.067 4.067 0 0 0 .875.365 6 6 0 0 0 1.195.215l-.42.98A5.8 5.8 0 0 1 69.56.36a3.225 3.225 0 0 1-1.215-.91 3.225 3.225 0 0 1-1.215.91 5.868 5.868 0 0 1-1.975.47l-.41-.98a6.4 6.4 0 0 0 1.21-.21 3.89 3.89 0 0 0 .88-.36 2.092 2.092 0 0 0 .56-.45 1.113 1.113 0 0 0 .25-.48H65.1v-.98h2.58v-.75h1.34v.75h2.57zm4.56-1.66-.46-1.04a5.6 5.6 0 0 0 1.265-.275 3.944 3.944 0 0 0 .92-.455 2.342 2.342 0 0 0 .59-.565 1.6 1.6 0 0 0 .275-.605h-2.72V-7.3h2.74v-1.03h1.32v1.03h2.76v1.05h-2.73a1.61 1.61 0 0 0 .275.595 2.384 2.384 0 0 0 .6.57 3.924 3.924 0 0 0 .925.46 5.592 5.592 0 0 0 1.255.275l-.47 1.04a5.561 5.561 0 0 1-1.995-.58 3.644 3.644 0 0 1-1.265-1.07 3.656 3.656 0 0 1-1.26 1.07 5.56 5.56 0 0 1-2.025.58zm7.45.47v1.07h-3.52V.88h-1.32v-2.65h-3.48v-1.07zm5.78-2.82h1.47v-2.69h1.32v6.82h-1.32V-4.6h-1.47zM90-3.64l-.63 1.03a3.63 3.63 0 0 1-1.31-.67 3.452 3.452 0 0 1-.85-1.04 3.328 3.328 0 0 1-.84 1.135 3.661 3.661 0 0 1-1.32.725l-.64-1.03a3.477 3.477 0 0 0 .96-.465 2.74 2.74 0 0 0 .65-.645 2.691 2.691 0 0 0 .38-.765 2.782 2.782 0 0 0 .125-.825v-.04h-1.8v-1.03h1.8v-1.02h1.32v1.02h1.82v1.03h-1.82v.04a2.5 2.5 0 0 0 .125.775 2.3 2.3 0 0 0 .39.72 2.975 2.975 0 0 0 .67.61 3.536 3.536 0 0 0 .97.445zM87.415-.35h4.96V.7H86.1v-2.8h1.32zm15.15-8.01h1.26V.85h-1.26v-4.59h-.83V.42h-1.23v-8.61h1.23v3.38h.83zm-4.95 1.03v4.81q.54-.02 1.135-.07t1.255-.17l.11 1.11a14.172 14.172 0 0 1-1.7.22q-.79.05-1.48.05H96.3v-5.95zm13.95 3.35h1.89v1.04h-8.32v-1.04h1.87v-1.11a1.477 1.477 0 0 1-1.04-1.35 1.245 1.245 0 0 1 .235-.74 1.881 1.881 0 0 1 .67-.56 3.8 3.8 0 0 1 1.05-.35 7.207 7.207 0 0 1 1.375-.12 7.266 7.266 0 0 1 1.385.12 3.8 3.8 0 0 1 1.05.35 1.881 1.881 0 0 1 .67.56 1.245 1.245 0 0 1 .235.74 1.206 1.206 0 0 1-.28.79 2.14 2.14 0 0 1-.79.57zm-2.27-3.23a4.373 4.373 0 0 0-1.455.19q-.515.19-.515.58t.515.57a4.373 4.373 0 0 0 1.455.19 4.4 4.4 0 0 0 1.475-.19q.5-.19.5-.57t-.5-.58a4.4 4.4 0 0 0-1.475-.19zm-.97 2.46v.77h1.92v-.76q-.22.02-.455.035t-.5.015a7.354 7.354 0 0 1-.965-.06zm.95 2.27a5.234 5.234 0 0 1 2.345.435 1.349 1.349 0 0 1 .855 1.235 1.355 1.355 0 0 1-.855 1.245 5.234 5.234 0 0 1-2.345.435 5.2 5.2 0 0 1-2.34-.435 1.355 1.355 0 0 1-.85-1.245 1.349 1.349 0 0 1 .85-1.235 5.2 5.2 0 0 1 2.34-.435zm0 2.35q1.86 0 1.86-.68 0-.35-.46-.51a6.205 6.205 0 0 0-2.8 0q-.46.16-.46.51 0 .68 1.86.68zm11.37-8.23h1.32V.88h-1.32zm-3.63.65a2.071 2.071 0 0 1 .965.23 2.239 2.239 0 0 1 .765.655 3.3 3.3 0 0 1 .505 1.03 4.663 4.663 0 0 1 .185 1.365 4.714 4.714 0 0 1-.185 1.37 3.359 3.359 0 0 1-.505 1.04 2.218 2.218 0 0 1-.765.66 2.071 2.071 0 0 1-.965.23 2.071 2.071 0 0 1-.965-.23 2.218 2.218 0 0 1-.765-.66 3.359 3.359 0 0 1-.5-1.04 4.714 4.714 0 0 1-.185-1.37 4.663 4.663 0 0 1 .18-1.37 3.3 3.3 0 0 1 .5-1.03 2.239 2.239 0 0 1 .765-.655 2.071 2.071 0 0 1 .97-.225zm0 1.19a.949.949 0 0 0-.83.53 3.062 3.062 0 0 0-.32 1.56 3.091 3.091 0 0 0 .32 1.565.948.948 0 0 0 .83.535.948.948 0 0 0 .83-.535 3.091 3.091 0 0 0 .32-1.565 3.062 3.062 0 0 0-.32-1.56.949.949 0 0 0-.83-.53zm-242.43 25.28h3.53v1.06h-8.34v-1.06h3.49v-1.64h-2.79v-1.05h1.2v-2.61h-1.25v-1.05h7v1.05h-1.25v2.61h1.22v1.05h-2.81zm-1.6-5.3v2.61h1.88v-2.61zm11.41-.98v1.04h-5.43v-1.04h2.05v-.89h1.33v.89zm3.05 1.44V15h-1.22v2.2h-1.32v-5.54h1.32v2.26zm-3.5 1.53a1.425 1.425 0 0 1-.165.68 1.519 1.519 0 0 1-.465.525 2.325 2.325 0 0 1-.715.335 3.286 3.286 0 0 1-.915.12 3.286 3.286 0 0 1-.915-.12 2.325 2.325 0 0 1-.715-.335 1.519 1.519 0 0 1-.465-.525 1.425 1.425 0 0 1-.165-.68 1.4 1.4 0 0 1 .165-.675 1.534 1.534 0 0 1 .465-.52 2.325 2.325 0 0 1 .715-.335 3.286 3.286 0 0 1 .915-.12 3.286 3.286 0 0 1 .915.12 2.325 2.325 0 0 1 .715.335 1.534 1.534 0 0 1 .465.52 1.4 1.4 0 0 1 .165.675zm-3.26 0a.569.569 0 0 0 .275.52 1.365 1.365 0 0 0 .725.17 1.365 1.365 0 0 0 .725-.17.569.569 0 0 0 .275-.52.56.56 0 0 0-.275-.51 1.365 1.365 0 0 0-.725-.17 1.365 1.365 0 0 0-.725.17.56.56 0 0 0-.275.51zm-.45 5.3V17.6h5.99v3.15zm1.3-2.11v1.08h3.4v-1.08zm15.27-6.99h1.32v9.23h-1.32zm-2.68 4.79v1.5q.57-.03 1.1-.07t1.075-.09l.08.96a23.068 23.068 0 0 1-2.97.285q-1.48.045-2.77.045l-.16-1.08h1.125q.585 0 1.195-.02v-1.53h-1.73v-3.97h4.75v1.05h-3.43v1.86h3.49v1.06zm11.93-4.8h1.32v9.24h-1.32v-4.85h-1.53a4.337 4.337 0 0 1-.245 1.185 3.012 3.012 0 0 1-.505.9 2.125 2.125 0 0 1-.72.565 2.045 2.045 0 0 1-.89.2 2.02 2.02 0 0 1-.95-.23 2.188 2.188 0 0 1-.755-.66 3.347 3.347 0 0 1-.5-1.04 4.836 4.836 0 0 1-.18-1.37 4.784 4.784 0 0 1 .18-1.365 3.289 3.289 0 0 1 .5-1.03 2.207 2.207 0 0 1 .755-.655 2.02 2.02 0 0 1 .95-.23 2.014 2.014 0 0 1 .865.185 2.2 2.2 0 0 1 .7.53 2.827 2.827 0 0 1 .51.84 4.237 4.237 0 0 1 .27 1.115h1.54zm-3.89 6.03a.927.927 0 0 0 .82-.535 3.175 3.175 0 0 0 .31-1.565 3.145 3.145 0 0 0-.31-1.56.927.927 0 0 0-.82-.53.917.917 0 0 0-.815.53 3.188 3.188 0 0 0-.305 1.56 3.219 3.219 0 0 0 .305 1.565.916.916 0 0 0 .815.535zm14.33-6.02v5.21h-1.33v-5.21zm-5.02 4.89a2.911 2.911 0 0 1-.99-.165 2.479 2.479 0 0 1-.795-.455 2.06 2.06 0 0 1-.525-.7 2.091 2.091 0 0 1-.19-.89 2.091 2.091 0 0 1 .19-.89 2.06 2.06 0 0 1 .525-.7 2.479 2.479 0 0 1 .795-.455 2.911 2.911 0 0 1 .99-.165 2.941 2.941 0 0 1 1 .165 2.479 2.479 0 0 1 .8.455 2.06 2.06 0 0 1 .525.7 2.091 2.091 0 0 1 .19.89 2.091 2.091 0 0 1-.19.89 2.06 2.06 0 0 1-.525.7 2.479 2.479 0 0 1-.8.455 2.941 2.941 0 0 1-1 .165zm0-3.32a1.275 1.275 0 0 0-.875.295 1.029 1.029 0 0 0-.335.815 1.029 1.029 0 0 0 .335.815 1.275 1.275 0 0 0 .875.3 1.3 1.3 0 0 0 .88-.3 1.022 1.022 0 0 0 .34-.815 1.022 1.022 0 0 0-.34-.815 1.3 1.3 0 0 0-.88-.295zm4.09 4.02v.31a2.535 2.535 0 0 0 .1.695 1.98 1.98 0 0 0 .305.625 2.273 2.273 0 0 0 .535.52 2.721 2.721 0 0 0 .785.37l-.65.96a2.968 2.968 0 0 1-1.085-.61 2.663 2.663 0 0 1-.655-.93 3.213 3.213 0 0 1-.635.965 2.863 2.863 0 0 1-1.035.675 2.694 2.694 0 0 1-1.035-.65 3.149 3.149 0 0 1-.635-.96 2.85 2.85 0 0 1-.66.9 3.111 3.111 0 0 1-1.05.615l-.65-.96a2.743 2.743 0 0 0 .785-.39 2.394 2.394 0 0 0 .535-.535 2.052 2.052 0 0 0 .305-.625 2.376 2.376 0 0 0 .1-.66v-.31h1.28v.31a2.675 2.675 0 0 0 .235 1.085 2.177 2.177 0 0 0 .785.915 2.44 2.44 0 0 0 .81-.955 2.543 2.543 0 0 0 .24-1.045v-.31zm6.64-5.13a4.639 4.639 0 0 1 1.355.19 3.475 3.475 0 0 1 1.09.54 2.564 2.564 0 0 1 .73.845 2.283 2.283 0 0 1 .265 1.1 2.254 2.254 0 0 1-.265 1.09 2.581 2.581 0 0 1-.73.84 3.475 3.475 0 0 1-1.09.54 4.639 4.639 0 0 1-1.355.19 4.653 4.653 0 0 1-1.35-.19 3.4 3.4 0 0 1-1.09-.54 2.6 2.6 0 0 1-.725-.84 2.254 2.254 0 0 1-.265-1.09 2.283 2.283 0 0 1 .265-1.1 2.587 2.587 0 0 1 .725-.845 3.4 3.4 0 0 1 1.09-.54 4.653 4.653 0 0 1 1.35-.19zm0 1.08a3.177 3.177 0 0 0-.855.11 2.2 2.2 0 0 0-.68.31 1.435 1.435 0 0 0-.445.495 1.393 1.393 0 0 0-.16.675 1.343 1.343 0 0 0 .16.66 1.5 1.5 0 0 0 .445.495 2.133 2.133 0 0 0 .68.315 3.177 3.177 0 0 0 .855.11 3.217 3.217 0 0 0 .865-.11 2.134 2.134 0 0 0 .68-.315 1.5 1.5 0 0 0 .445-.495 1.343 1.343 0 0 0 .16-.66 1.393 1.393 0 0 0-.16-.675 1.435 1.435 0 0 0-.445-.495 2.2 2.2 0 0 0-.68-.31 3.217 3.217 0 0 0-.865-.11zm-4.16 5.49h8.34v1.08h-8.34zm15.61-7.03h1.32v9.23h-1.32v-3.61h-1.69v1.35h-4.38v-6.16h4.38v1.27h1.69zm-2.99 5.93v-4.09h-1.78v4.09zm1.3-1.36h1.69v-1.43h-1.69zm4.24 4.6.41-2.09h1.46l-.74 2.09zm13.43-6.95v1.09h-1.22v2.24H-52.9v-5.55h1.32v2.22zm-2.97 1.99L-54 16.88a3.457 3.457 0 0 1-1.27-.7 3.51 3.51 0 0 1-.83-1.08 3.849 3.849 0 0 1-.845 1.18 3.436 3.436 0 0 1-1.345.77l-.69-1.03a3.462 3.462 0 0 0 .97-.475 2.91 2.91 0 0 0 .675-.665 2.743 2.743 0 0 0 .4-.79 3.106 3.106 0 0 0 .14-.85h-1.83v-1.05h4.98v1.05h-1.8a2.751 2.751 0 0 0 .14.8 2.614 2.614 0 0 0 .385.74 2.841 2.841 0 0 0 .65.625 3.545 3.545 0 0 0 .935.455zm-4.4 2.8v-1.05h6.15v3.26H-52.9v-2.21zm14.48-1.61V14.4h-1.68v-1.07h1.68v-1.68h1.32v5.4zm-.84-1.33-.69 1.04a3.461 3.461 0 0 1-1.225-.7 3.315 3.315 0 0 1-.785-1.08 3.752 3.752 0 0 1-.86 1.245 3.667 3.667 0 0 1-1.37.805l-.69-1.06a3.412 3.412 0 0 0 1.01-.505 2.976 2.976 0 0 0 .69-.715 2.875 2.875 0 0 0 .4-.86 3.569 3.569 0 0 0 .125-.94v-.82h1.34v.76a3.487 3.487 0 0 0 .115.9 2.626 2.626 0 0 0 .365.805 2.724 2.724 0 0 0 .64.66 3.264 3.264 0 0 0 .93.465zm-.95 1.56a6.571 6.571 0 0 1 1.315.12 3.375 3.375 0 0 1 .99.35 1.78 1.78 0 0 1 .625.565 1.362 1.362 0 0 1 .22.765 1.321 1.321 0 0 1-.22.75 1.8 1.8 0 0 1-.625.56 3.375 3.375 0 0 1-.99.35 6.571 6.571 0 0 1-1.315.12 6.646 6.646 0 0 1-1.32-.12 3.375 3.375 0 0 1-.995-.35 1.8 1.8 0 0 1-.625-.56 1.321 1.321 0 0 1-.22-.75 1.362 1.362 0 0 1 .22-.765 1.78 1.78 0 0 1 .625-.565 3.375 3.375 0 0 1 .995-.35 6.646 6.646 0 0 1 1.32-.12zm0 2.57q1.83 0 1.83-.77t-1.83-.78q-1.84 0-1.84.78t1.84.77zm13.16-4.69v1.09h-1.34v4.61h-1.32v-9.21h1.32v3.51zm-5.17-1.54v.51a4.389 4.389 0 0 0 .14 1.075 4.427 4.427 0 0 0 .415 1.055 4.075 4.075 0 0 0 .695.92 3.353 3.353 0 0 0 .99.68l-.73 1.04a3.507 3.507 0 0 1-1.31-1 5.314 5.314 0 0 1-.84-1.475 5.538 5.538 0 0 1-.86 1.62 3.712 3.712 0 0 1-1.34 1.09l-.74-1.05a3.217 3.217 0 0 0 .99-.695 4.3 4.3 0 0 0 .7-.97 4.682 4.682 0 0 0 .425-1.125 5.013 5.013 0 0 0 .14-1.16v-.51h-1.91V12.53h5.06v1.09zm12.47-1.98h1.25v9.21h-1.25zm-1.87 3.4V11.8h1.23v8.65h-1.23v-4.34h-.72a4.184 4.184 0 0 1-.615 2.125 1.605 1.605 0 0 1-1.375.755 1.515 1.515 0 0 1-.825-.23 1.956 1.956 0 0 1-.625-.66 3.52 3.52 0 0 1-.4-1.055 6.448 6.448 0 0 1-.14-1.4 6.379 6.379 0 0 1 .14-1.4 3.521 3.521 0 0 1 .4-1.05 1.956 1.956 0 0 1 .625-.66 1.515 1.515 0 0 1 .825-.23 1.619 1.619 0 0 1 1.345.69 3.893 3.893 0 0 1 .635 2.05zm-2.71 2.71q.38 0 .59-.51a4.5 4.5 0 0 0 .21-1.6 4.469 4.469 0 0 0-.21-1.58q-.21-.52-.59-.52t-.59.52a4.469 4.469 0 0 0-.21 1.58 4.5 4.5 0 0 0 .21 1.6q.21.51.59.51zm13.8-6.11h1.25v9.21h-1.25zm-1.94 3.53v-3.32h1.23v8.6H-17.3v-4.22h-1.44a6.117 6.117 0 0 1-1.03 1.47 6.871 6.871 0 0 1-1.63 1.25l-.75-.93a5.955 5.955 0 0 0 2.035-1.845 5.207 5.207 0 0 0 .775-2.385h-2.3v-1.05h3.61A11.706 11.706 0 0 1-18.1 14a6.555 6.555 0 0 1-.235 1.17zm14.39-3.52v4.61h-1.33v-4.61zm-2.6 2.37a1.958 1.958 0 0 1-.185.85 1.985 1.985 0 0 1-.515.67 2.409 2.409 0 0 1-.775.435 2.946 2.946 0 0 1-.975.155 3 3 0 0 1-.975-.155 2.39 2.39 0 0 1-.785-.435 2.042 2.042 0 0 1-.52-.67 1.915 1.915 0 0 1-.19-.85 1.883 1.883 0 0 1 .19-.845 2.058 2.058 0 0 1 .52-.665 2.39 2.39 0 0 1 .785-.435 3 3 0 0 1 .975-.155 2.946 2.946 0 0 1 .975.155 2.409 2.409 0 0 1 .775.435 2 2 0 0 1 .515.665 1.925 1.925 0 0 1 .185.845zm-3.64 0a.923.923 0 0 0 .34.775 1.341 1.341 0 0 0 .85.265 1.3 1.3 0 0 0 .84-.265.935.935 0 0 0 .33-.775.941.941 0 0 0-.33-.765 1.268 1.268 0 0 0-.84-.275 1.308 1.308 0 0 0-.85.275.929.929 0 0 0-.34.765zm1.42 5.71h5.05v1.03h-6.36v-2.55h4.82v-.56h-4.83v-1.01h6.14v2.51h-4.82zm11.37-5.86h1.38v-2.22h1.32v5.48h-1.32v-2.19h-1.38zm.55 1.98-.64 1.03a3.572 3.572 0 0 1-1.27-.715 3.51 3.51 0 0 1-.82-1.075 3.827 3.827 0 0 1-.845 1.235 3.462 3.462 0 0 1-1.355.805l-.67-1.04a3.366 3.366 0 0 0 .95-.495 3.126 3.126 0 0 0 .665-.68 2.9 2.9 0 0 0 .4-.8 3.324 3.324 0 0 0 .155-.855h-1.81V12.2H3.9v1.06H2.105a2.673 2.673 0 0 0 .14.78 2.632 2.632 0 0 0 .385.735 2.883 2.883 0 0 0 .645.625 3.314 3.314 0 0 0 .91.45zm-.96 1.48a6.571 6.571 0 0 1 1.315.12 3.475 3.475 0 0 1 .99.345 1.757 1.757 0 0 1 .625.555 1.388 1.388 0 0 1 0 1.5 1.757 1.757 0 0 1-.625.555 3.475 3.475 0 0 1-.99.345 6.571 6.571 0 0 1-1.315.12 6.646 6.646 0 0 1-1.32-.12 3.475 3.475 0 0 1-1-.345 1.757 1.757 0 0 1-.625-.555 1.388 1.388 0 0 1 0-1.5 1.757 1.757 0 0 1 .63-.55 3.475 3.475 0 0 1 1-.345 6.646 6.646 0 0 1 1.315-.125zm0 2.54q1.83 0 1.83-.77t-1.83-.77q-1.84 0-1.84.77t1.84.77zm14.91-4.95-.5 1.06a5.347 5.347 0 0 1-2.055-.7A3.825 3.825 0 0 1 14.285 14a3.812 3.812 0 0 1-1.3 1.275 5.392 5.392 0 0 1-2.06.7l-.5-1.06a5.2 5.2 0 0 0 1.38-.37 3.681 3.681 0 0 0 .985-.615 2.451 2.451 0 0 0 .59-.765 1.875 1.875 0 0 0 .195-.81v-.44h1.41v.44a1.837 1.837 0 0 0 .2.81 2.522 2.522 0 0 0 .595.765 3.681 3.681 0 0 0 .985.615 5.192 5.192 0 0 0 1.37.375zm.3 1.74v1.07h-3.53v3.14h-1.32v-3.14h-3.47v-1.07zm8.9-1.74-.5 1.06a5.347 5.347 0 0 1-2.055-.7A3.825 3.825 0 0 1 23.485 14a3.812 3.812 0 0 1-1.3 1.275 5.392 5.392 0 0 1-2.06.7l-.5-1.06a5.2 5.2 0 0 0 1.38-.37 3.681 3.681 0 0 0 .985-.615 2.451 2.451 0 0 0 .59-.765 1.875 1.875 0 0 0 .195-.81v-.44h1.41v.44a1.837 1.837 0 0 0 .2.81 2.522 2.522 0 0 0 .595.765 3.681 3.681 0 0 0 .985.615 5.192 5.192 0 0 0 1.37.375zm.3 1.74v1.07H24.1v3.14h-1.32v-3.14h-3.47v-1.07zm7.19 2.11h2.02v1.08h-8.35v-1.08h2.12v-1.4h-1.15v-3.1H34.6v-.98h-5.15v-1.05h6.45v3.06h-5.13v1.01h5.34v1.06h-1.29zm-2.91-1.4v1.4h1.61v-1.4zM46.2 15.16v1.09h-1.29v4.59h-1.32v-9.2h1.32v3.52zm-8.08-2.57h4.34a9.266 9.266 0 0 1-.21 1.995 6.322 6.322 0 0 1-.695 1.8 6.729 6.729 0 0 1-1.27 1.575 8.326 8.326 0 0 1-1.935 1.31l-.74-1.01a7.294 7.294 0 0 0 2.475-1.945 5.229 5.229 0 0 0 1.045-2.655h-3.01zm17.36-.94h1.32v9.21h-1.32zm-2.75 1.97v.51a4.663 4.663 0 0 0 .14 1.125 4.161 4.161 0 0 0 .43 1.065 3.845 3.845 0 0 0 .71.9 3.279 3.279 0 0 0 1.005.64l-.72 1.04a3.679 3.679 0 0 1-1.355-.985 4.759 4.759 0 0 1-.855-1.485 5.471 5.471 0 0 1-.865 1.62 3.619 3.619 0 0 1-1.365 1.08l-.75-1.05a3.353 3.353 0 0 0 1.01-.69 4.135 4.135 0 0 0 .715-.955 4.493 4.493 0 0 0 .425-1.12 5.159 5.159 0 0 0 .14-1.185v-.51h-1.92v-1.09h5.16v1.09zm12.8 1.62h1.18v1.06h-8.34v-1.06h5.85a8.5 8.5 0 0 0 .175-1.185q.035-.525.035-.985H59.4v-1.05h6.33v.74q0 .54-.025 1.12a9.5 9.5 0 0 1-.17 1.36zm-1.13 2.61v-.96h1.32v3.87h-6.35v-3.87h1.31v.96zm0 1.86v-.84h-3.72v.84zm10.87-8.06v4.83h-1.32v-4.83zm-1.82 3.56.08.9a25.059 25.059 0 0 1-2.95.265q-1.48.045-2.79.045l-.16-.99q1.13 0 2.34-.03v-.61h-1.55v-2.78h4.39v1h-3.04v.78h3.12v1H71.3v.57q.55-.02 1.09-.06t1.055-.09zm-3.12 4.56h5.15v1.02h-6.45v-2.48h4.94v-.49h-4.96v-1.01h6.26v2.45h-4.94zm16.75-4.85-.5 1.06a5.347 5.347 0 0 1-2.055-.7 3.825 3.825 0 0 1-1.3-1.28 3.812 3.812 0 0 1-1.3 1.275 5.392 5.392 0 0 1-2.06.7l-.5-1.06a5.2 5.2 0 0 0 1.38-.37 3.681 3.681 0 0 0 .985-.615 2.451 2.451 0 0 0 .59-.765 1.875 1.875 0 0 0 .195-.81v-.44h1.41v.44a1.837 1.837 0 0 0 .2.81 2.522 2.522 0 0 0 .595.765 3.681 3.681 0 0 0 .985.615 5.192 5.192 0 0 0 1.37.375zm.3 1.74v1.07h-3.53v3.14h-1.32v-3.14h-3.47v-1.07zm10.79-5.01v5.21h-1.33v-5.21zm-5.02 4.89a2.911 2.911 0 0 1-.99-.165 2.479 2.479 0 0 1-.795-.455 2.06 2.06 0 0 1-.525-.7 2.179 2.179 0 0 1 0-1.78 2.06 2.06 0 0 1 .525-.7 2.479 2.479 0 0 1 .795-.455 2.911 2.911 0 0 1 .99-.165 2.941 2.941 0 0 1 1 .165 2.479 2.479 0 0 1 .8.455 2.06 2.06 0 0 1 .525.7 2.179 2.179 0 0 1 0 1.78 2.06 2.06 0 0 1-.525.7 2.479 2.479 0 0 1-.8.455 2.941 2.941 0 0 1-1.005.165zm0-3.32a1.275 1.275 0 0 0-.875.295 1.159 1.159 0 0 0 0 1.63 1.275 1.275 0 0 0 .875.3 1.3 1.3 0 0 0 .88-.3 1.147 1.147 0 0 0 0-1.63 1.3 1.3 0 0 0-.885-.295zm4.09 4.02v.31a2.535 2.535 0 0 0 .1.695 1.98 1.98 0 0 0 .305.625 2.273 2.273 0 0 0 .535.52 2.721 2.721 0 0 0 .785.37l-.65.96a2.968 2.968 0 0 1-1.085-.61 2.663 2.663 0 0 1-.655-.93 3.213 3.213 0 0 1-.635.965 2.863 2.863 0 0 1-1.035.675 2.694 2.694 0 0 1-1.035-.65 3.149 3.149 0 0 1-.635-.96 2.85 2.85 0 0 1-.66.9 3.111 3.111 0 0 1-1.05.615l-.65-.96a2.743 2.743 0 0 0 .785-.39 2.394 2.394 0 0 0 .535-.535 2.052 2.052 0 0 0 .305-.625 2.376 2.376 0 0 0 .1-.66v-.31h1.28v.31a2.675 2.675 0 0 0 .235 1.085 2.177 2.177 0 0 0 .785.915 2.44 2.44 0 0 0 .81-.955 2.543 2.543 0 0 0 .24-1.045v-.31zm10.39-3.01-.47 1.02a5.4 5.4 0 0 1-2.005-.6 3.663 3.663 0 0 1-1.275-1.12 3.608 3.608 0 0 1-1.28 1.115 5.637 5.637 0 0 1-2.01.6l-.46-1.02a5.441 5.441 0 0 0 1.355-.315 3.725 3.725 0 0 0 .955-.525 2.119 2.119 0 0 0 .57-.655 1.484 1.484 0 0 0 .19-.7v-.28h1.36v.28a1.484 1.484 0 0 0 .19.7 2.119 2.119 0 0 0 .57.655 3.725 3.725 0 0 0 .955.525 5.441 5.441 0 0 0 1.35.32zm-7.91 1.44h8.32v1.04h-8.32zm5.97 2.27v-.77h1.3v3.58h-6.3v-3.58H102v.77zm0 1.79v-.8H102v.8zm9.6-8.09h1.32v9.21h-1.32zm-4.58.88v4.94q.91-.02 1.875-.11t1.995-.29l.14 1.1a18.065 18.065 0 0 1-2.31.34q-1.13.09-2.19.09h-.82v-6.07zm15.96 2.53v1.09h-1.34v4.74H124v-9.23h1.32v3.4zm-6.88-1.48v4q.99-.01 1.84-.075t1.75-.215l.13 1.09q-.52.09-1.025.15t-1.02.09q-.515.03-1.06.045t-1.145.015h-.79V12.5h4.3v1.07zm9.21 5.15v1.42h-1.46v-1.42zm1.02-7.47v1.45a1.466 1.466 0 0 1-.085.605 1.688 1.688 0 0 1-.295.51 1.585 1.585 0 0 1-.455.37 1.781 1.781 0 0 1-.585.2v-.66a.965.965 0 0 0 .515-.385 1.213 1.213 0 0 0 .145-.625h-.64V11.25zM-51 35.12v1.09h-1.32v4.67h-1.32v-9.24h1.32v3.48zm-6.87.87v1.67q1-.01 1.85-.07a17.142 17.142 0 0 0 1.76-.22l.12 1.07q-.52.09-1.025.15t-1.02.1q-.515.035-1.06.05t-1.145.015h-.78v-3.8h2.92V33.48h-2.93v-1.05h4.23v3.56zm14.69 1.74-1.32-.15a16.537 16.537 0 0 0 .315-2.3q.055-1 .055-1.8h-5.37v-1.04h6.69v.88q0 .43-.005.9t-.04 1q-.035.535-.11 1.155t-.215 1.355zm-2.9.96h4.07v1.06h-8.33v-1.06h2.94v-3.17h1.32zm14.45-4.9h1.22v1.09h-1.22v2.22h-1.32v-5.44h1.32zm-1.82 1.94-.69 1.02a3.534 3.534 0 0 1-1.235-.68 3.231 3.231 0 0 1-.8-1.04 3.651 3.651 0 0 1-.825 1.2 3.554 3.554 0 0 1-1.325.78l-.69-1.04a3.292 3.292 0 0 0 .99-.505 2.925 2.925 0 0 0 .67-.71 2.865 2.865 0 0 0 .38-.85 3.612 3.612 0 0 0 .12-.925v-.83h1.34v.94a2.839 2.839 0 0 0 .12.82 2.473 2.473 0 0 0 .37.745 2.748 2.748 0 0 0 .645.625 3.338 3.338 0 0 0 .93.45zm-1.19 1.58a6.365 6.365 0 0 1 1.3.12 3.376 3.376 0 0 1 .98.35 1.774 1.774 0 0 1 .62.555 1.319 1.319 0 0 1 .215.745 1.343 1.343 0 0 1-.215.75 1.753 1.753 0 0 1-.62.56 3.376 3.376 0 0 1-.98.35 6.365 6.365 0 0 1-1.3.12 6.44 6.44 0 0 1-1.3-.12 3.375 3.375 0 0 1-.985-.35 1.753 1.753 0 0 1-.62-.56 1.343 1.343 0 0 1-.215-.75 1.319 1.319 0 0 1 .215-.745 1.774 1.774 0 0 1 .62-.555 3.375 3.375 0 0 1 .985-.35 6.44 6.44 0 0 1 1.3-.12zm0 2.53a3.753 3.753 0 0 0 1.34-.185.614.614 0 0 0 .46-.575.609.609 0 0 0-.46-.565 3.753 3.753 0 0 0-1.34-.185q-1.81 0-1.81.75t1.81.76zm12.21-5.68h1.22v1.08h-1.22v3.07h-1.32v-6.66h1.32zm-2.04 1.31.13 1.04q-.42.09-.845.15t-.92.09q-.495.03-1.09.045t-1.365.015h-.77v-4.43h4.12v1.05h-2.81v2.32q.62 0 1.11-.015t.91-.045q.42-.03.79-.085t.74-.135zm-2.58 2.14v2.04h4.95v1.05h-6.27v-3.09zm13.22-5.97h1.25v9.21h-1.25zm-1.87 3.4V31.8h1.23v8.65h-1.23v-4.34h-.72a4.184 4.184 0 0 1-.615 2.125 1.605 1.605 0 0 1-1.375.755 1.515 1.515 0 0 1-.825-.23 1.956 1.956 0 0 1-.625-.66 3.52 3.52 0 0 1-.4-1.055 6.448 6.448 0 0 1-.14-1.4 6.379 6.379 0 0 1 .14-1.4 3.521 3.521 0 0 1 .4-1.05 1.956 1.956 0 0 1 .625-.66 1.515 1.515 0 0 1 .825-.23 1.619 1.619 0 0 1 1.345.69 3.893 3.893 0 0 1 .635 2.05zm-2.71 2.71q.38 0 .59-.51a4.5 4.5 0 0 0 .21-1.6 4.469 4.469 0 0 0-.21-1.58q-.21-.52-.59-.52t-.59.52a4.469 4.469 0 0 0-.21 1.58 4.5 4.5 0 0 0 .21 1.6q.21.51.59.51zm16.63-2.48-1.28-.15a7.406 7.406 0 0 0 .22-1.13q.05-.49.07-.91h-2.01v-1.06h3.29v.57q0 .51-.035 1.17a7.756 7.756 0 0 1-.255 1.51zm-4.18.01-1.27-.19a8.247 8.247 0 0 0 .33-1.135 6.107 6.107 0 0 0 .12-.875h-1.55v-1.06h2.85v.41q0 .21-.005.505a6.164 6.164 0 0 1-.05.655 7.525 7.525 0 0 1-.145.785 7.453 7.453 0 0 1-.28.905zm1.92.55H-.7v1.06h-8.29v-1.06h3.66v-1.6h1.29zm-4.07 2.84v-1.04h6.37v3.19h-1.32v-2.15zm16.83.12h2.08v1.06H2.45v-1.06h2.06v-1.73H3.16v-1.04h1.2v-2.59H3.11v-1.05h7v1.05H8.86v2.59h1.23v1.04H8.72zm-3.05-5.36v2.59h1.88v-2.59zm.15 3.63v1.73h1.59v-1.73zM18 31.64h1.33v9.21H18zm-5.83.96h4.42a9.834 9.834 0 0 1-.2 2.01 6.1 6.1 0 0 1-.685 1.805 6.368 6.368 0 0 1-1.3 1.57A8.651 8.651 0 0 1 12.37 39.3l-.69-1.04a8.761 8.761 0 0 0 1.52-.9 5.45 5.45 0 0 0 1.07-1.06 4.588 4.588 0 0 0 .665-1.23 5.8 5.8 0 0 0 .305-1.42h-3.07zm15.34-.96h1.25v9.21h-1.25v-4.39h-.7v4.01h-1.23v-8.65h1.23v3.58h.7zm-3.79.26v1.14h1.53v1.05h-4.4v-1.05h1.57V31.9zm-.65 2.59a2.019 2.019 0 0 1 .81.16 1.856 1.856 0 0 1 .64.455 2.108 2.108 0 0 1 .42.7 2.529 2.529 0 0 1 .15.885 2.488 2.488 0 0 1-.15.88 2.119 2.119 0 0 1-.42.695 1.857 1.857 0 0 1-.64.455 2.13 2.13 0 0 1-1.62 0 1.856 1.856 0 0 1-.64-.455 2.119 2.119 0 0 1-.42-.695 2.488 2.488 0 0 1-.15-.88 2.529 2.529 0 0 1 .15-.885 2.108 2.108 0 0 1 .42-.7 1.856 1.856 0 0 1 .64-.455 2.019 2.019 0 0 1 .81-.16zm0 3.29a.773.773 0 0 0 .62-.285 1.215 1.215 0 0 0 .24-.805 1.236 1.236 0 0 0-.24-.81.808.808 0 0 0-1.24 0 1.236 1.236 0 0 0-.24.81 1.215 1.215 0 0 0 .24.805.773.773 0 0 0 .62.285zm7.87-1.57-.48-1.03a5.565 5.565 0 0 0 1.245-.29 3.873 3.873 0 0 0 .91-.47 2.171 2.171 0 0 0 .58-.595 1.705 1.705 0 0 0 .255-.655H30.8v-1.05h6.83v1.05h-2.61a1.705 1.705 0 0 0 .255.655 2.2 2.2 0 0 0 .575.595 3.769 3.769 0 0 0 .9.47 5.559 5.559 0 0 0 1.235.29l-.47 1.03a5.61 5.61 0 0 1-2.04-.65 3.337 3.337 0 0 1-1.25-1.2 3.337 3.337 0 0 1-1.25 1.2 5.61 5.61 0 0 1-2.035.65zm7.45.53v1.05h-3.53v3.09h-1.32v-3.09h-3.47v-1.05zm7.52-5.09h1.25v9.21h-1.25zm-1.87 3.11V31.8h1.23v8.65h-1.23v-4.62h-1.15v-1.07zm-1.84-2.31v1.5a7.805 7.805 0 0 0 .08 1.115 4.856 4.856 0 0 0 .275 1.06 4.033 4.033 0 0 0 .51.935 3.029 3.029 0 0 0 .785.74l-.72 1.02a2.963 2.963 0 0 1-.97-.925 5.069 5.069 0 0 1-.59-1.265 5.4 5.4 0 0 1-.65 1.4 3.238 3.238 0 0 1-1.04 1l-.79-.99a3.149 3.149 0 0 0 .86-.76 4.1 4.1 0 0 0 .565-.98 5.346 5.346 0 0 0 .315-1.12 7.05 7.05 0 0 0 .1-1.18v-1.55zm12.75 6.27h1.85v1.07h-8.34v-1.07h1.84v-2.25a2.32 2.32 0 0 1-.83-.805 2.006 2.006 0 0 1-.28-1.085 2.029 2.029 0 0 1 .26-1.025 2.445 2.445 0 0 1 .715-.78 3.427 3.427 0 0 1 1.085-.5 5.489 5.489 0 0 1 2.75 0 3.427 3.427 0 0 1 1.085.5 2.446 2.446 0 0 1 .715.78 2.146 2.146 0 0 1-.035 2.11 2.415 2.415 0 0 1-.815.805zm-2.33-5.58a2.827 2.827 0 0 0-1.545.375 1.262 1.262 0 0 0 0 2.13 2.827 2.827 0 0 0 1.545.375 3.744 3.744 0 0 0 .875-.1 2.11 2.11 0 0 0 .675-.28 1.347 1.347 0 0 0 .435-.455 1.288 1.288 0 0 0 0-1.225 1.364 1.364 0 0 0-.435-.45 2.11 2.11 0 0 0-.675-.28 3.744 3.744 0 0 0-.875-.09zm-1.01 3.82v1.76h2.03v-1.76a5.531 5.531 0 0 1-1.02.09 5.474 5.474 0 0 1-1.01-.09zm7.73 1.76v1.42h-1.46v-1.42z" transform="translate(180.5 510)"/>
    </g>
</svg>
