<svg xmlns="http://www.w3.org/2000/svg" width="36" height="36" viewBox="0 0 36 36">
    <g data-name="그룹 5165">
        <g data-name="그룹 5065" transform="translate(-198 -344)">
            <circle data-name="타원 182" cx="18" cy="18" r="18" transform="translate(198 344)" style="fill:rgba(255,0,142,.7)"/>
            <path data-name="패스 2496" d="M2.33-5.66v-1.39H1.16V-8.1h6.85v1.05H6.84v1.39h1.1v1.05H1.22v-1.05zm3.2 0v-1.39H3.64v1.39zm3.22 2.67h-3.5v.75h2.51v3H1.4v-3h2.53v-.75H.43v-1.05h8.32zM6.46-.28v-.93H2.69v.93zm8.15-6.19h1.4v-1.88h1.32v4.68h-1.32v-1.75h-1.4zm.51 1.78-.61 1.03a3.455 3.455 0 0 1-1.3-.65 3.43 3.43 0 0 1-.825-1 3.651 3.651 0 0 1-.86 1.12 3.409 3.409 0 0 1-1.36.72L9.55-4.5a3.313 3.313 0 0 0 .935-.43 2.967 2.967 0 0 0 .66-.605 2.642 2.642 0 0 0 .4-.705 2.423 2.423 0 0 0 .16-.72H9.9v-1.05h4.95v1.05h-1.8a2.11 2.11 0 0 0 .14.685 2.179 2.179 0 0 0 .385.645 2.812 2.812 0 0 0 .64.545 3.467 3.467 0 0 0 .905.395zM12.57-.26h5.02V.76h-6.32v-2.53h4.75v-.51h-4.77V-3.3h6.08v2.48h-4.76zM7.68 5.79H8.9v1.09H7.68V9.1H6.36V3.66h1.32zM5.86 7.73l-.69 1.02a3.534 3.534 0 0 1-1.235-.68 3.231 3.231 0 0 1-.795-1.04 3.651 3.651 0 0 1-.835 1.2 3.554 3.554 0 0 1-1.325.78L.29 7.97a3.292 3.292 0 0 0 .99-.505 2.924 2.924 0 0 0 .67-.71 2.865 2.865 0 0 0 .38-.85 3.612 3.612 0 0 0 .12-.925v-.83h1.34v.94a2.838 2.838 0 0 0 .12.82 2.473 2.473 0 0 0 .37.745 2.748 2.748 0 0 0 .645.625 3.338 3.338 0 0 0 .935.45zM4.67 9.31a6.365 6.365 0 0 1 1.295.12 3.376 3.376 0 0 1 .98.35 1.774 1.774 0 0 1 .62.555 1.319 1.319 0 0 1 .215.745 1.343 1.343 0 0 1-.215.75 1.753 1.753 0 0 1-.62.56 3.376 3.376 0 0 1-.98.35 6.365 6.365 0 0 1-1.295.12 6.44 6.44 0 0 1-1.3-.12 3.375 3.375 0 0 1-.985-.35 1.753 1.753 0 0 1-.62-.56 1.343 1.343 0 0 1-.215-.75 1.319 1.319 0 0 1 .215-.745 1.774 1.774 0 0 1 .62-.555 3.375 3.375 0 0 1 .985-.35 6.439 6.439 0 0 1 1.3-.12zm0 2.53a3.753 3.753 0 0 0 1.34-.185.583.583 0 0 0 0-1.14 3.753 3.753 0 0 0-1.34-.185q-1.81 0-1.81.75t1.81.76zm6.86-5.5V4.95h-1.17V3.9h6.85v1.05h-1.17v1.39h1.1v1.05h-6.72V6.34zm3.2 0V4.95h-1.89v1.39zm3.22 2.67h-3.5v.75h2.51v3H10.6v-3h2.53v-.75h-3.5V7.96h8.32zm-2.29 2.71v-.93h-3.77v.93z" transform="translate(206.711 359.35)" style="fill:#fff"/>
        </g>
    </g>
</svg>
