<svg xmlns="http://www.w3.org/2000/svg" width="18" height="18" viewBox="0 0 18 18">
  <defs>
    <style>
      .cls-1 {
        fill: #eaebef;
      }

      .cls-2 {
        fill: #b2b2b2;
      }
    </style>
  </defs>
  <g id="그룹_7004" data-name="그룹 7004" transform="translate(-117 -391.877)">
    <circle id="타원_296" data-name="타원 296" class="cls-1" cx="9" cy="9" r="9" transform="translate(117 391.877)"/>
    <path id="패스_2728" data-name="패스 2728" class="cls-2" d="M3.339-1.438H2.077a4.21,4.21,0,0,1-.006-1.207,2.655,2.655,0,0,1,.263-.81A2.048,2.048,0,0,1,2.752-4q.24-.218.453-.425a2.244,2.244,0,0,0,.358-.447,1.137,1.137,0,0,0,.145-.6A1.223,1.223,0,0,0,3.5-6.2a.781.781,0,0,0-.682-.3,1.007,1.007,0,0,0-.771.324,1.58,1.58,0,0,0-.346.994H.3a3.2,3.2,0,0,1,.3-1.24,2.451,2.451,0,0,1,.615-.8,2.09,2.09,0,0,1,.8-.419,2.694,2.694,0,0,1,.849-.095,3.212,3.212,0,0,1,.922.173,2.24,2.24,0,0,1,.743.425,1.947,1.947,0,0,1,.492.665,2.128,2.128,0,0,1,.179.894,2.447,2.447,0,0,1-.162.972,2.107,2.107,0,0,1-.4.615,3.943,3.943,0,0,1-.5.441,2.57,2.57,0,0,0-.469.453,1.692,1.692,0,0,0-.307.642A2.82,2.82,0,0,0,3.339-1.438Zm.179.916V1.065H1.887V-.522Z" transform="translate(123.191 404.278)"/>
  </g>
</svg>
