<svg xmlns="http://www.w3.org/2000/svg" width="58" height="14" viewBox="0 0 58 14">
    <g data-name="그룹 6198">
        <g data-name="사각형 5640" style="fill:rgba(255,255,255,.72);stroke:#e0e0e0;stroke-width:.8px">
            <path style="stroke:none" d="M0 0h58v14H0z"/>
            <path style="fill:none" d="M.4.4h57.2v13.2H.4z"/>
        </g>
        <path data-name="패스 2763" d="M5.68-6.688h1V.68h-1zM4.12-4.36v-2.2h.98V.36h-.98V-3.5H2.672v-.86zM1.664-5.976v4q.5-.016.976-.056a9.869 9.869 0 0 0 .984-.136l.128.88a9.657 9.657 0 0 1-1.288.176q-.616.04-1.32.04H.632v-4.9zm11.088-.712h1.056V.7h-1.056zm-2.9.52a1.657 1.657 0 0 1 .772.184 1.791 1.791 0 0 1 .612.524 2.641 2.641 0 0 1 .4.824 3.73 3.73 0 0 1 .148 1.092 3.771 3.771 0 0 1-.148 1.1 2.687 2.687 0 0 1-.4.832 1.775 1.775 0 0 1-.612.528 1.657 1.657 0 0 1-.776.184 1.657 1.657 0 0 1-.772-.184 1.775 1.775 0 0 1-.612-.528 2.687 2.687 0 0 1-.4-.832 3.771 3.771 0 0 1-.148-1.1 3.73 3.73 0 0 1 .144-1.092 2.641 2.641 0 0 1 .4-.824 1.791 1.791 0 0 1 .612-.524 1.657 1.657 0 0 1 .776-.184zm0 .952a.759.759 0 0 0-.664.424 2.45 2.45 0 0 0-.256 1.248 2.473 2.473 0 0 0 .256 1.252.758.758 0 0 0 .664.428.758.758 0 0 0 .664-.428 2.473 2.473 0 0 0 .256-1.252 2.45 2.45 0 0 0-.256-1.248.759.759 0 0 0-.668-.424zm10.34-1.472h1.056V.7h-1.056v-3.948h-1.32v2.216h-3.536V-6.1h1.048v1.776h1.448V-6.1h1.04v2h1.32zm-2.36 4.816V-3.5h-1.448v1.632zm11.392-2V-3h-1.032V.672h-1.056v-7.36h1.056v2.816zM22.76-5.928h3.472a7.412 7.412 0 0 1-.168 1.6 5.058 5.058 0 0 1-.556 1.44 5.383 5.383 0 0 1-1.016 1.26 6.661 6.661 0 0 1-1.548 1.044l-.592-.808a5.836 5.836 0 0 0 1.98-1.556 4.183 4.183 0 0 0 .836-2.124H22.76zm12.128-.752 1.056.008v4.36h-1.056v-.768h-1.624v-.848h1.624v-.72h-1.5a4.334 4.334 0 0 1-3.12 2.336l-.408-.824a4.478 4.478 0 0 0 1.924-.9 2.254 2.254 0 0 0 .78-1.34H30.28v-.84h3.42q0 .176-.016.356t-.048.364h1.256zM30.92-1.168V-2h5.024V.656h-1.056v-1.824zm11.272-5.52h1.056V.7h-1.056zM37.5-6.1h1.048v1.784h1.536V-6.1h1.048v5.08H37.5zm1.048 2.608v1.632h1.536v-1.628zM50.32-1.928l-1.056-.1a14.411 14.411 0 0 0 .212-1.772q.036-.764.036-1.4h-4.36v-.84h5.416v1.412q0 .364-.024.78-.02.416-.072.892t-.152 1.028zm-1.56.88h2.416V-.2H44.5v-.848h1.4v-2.328h1.04v2.328h.784v-2.328h1.036z" transform="translate(3 10)" style="fill:#06be34"/>
    </g>
</svg>
