<svg xmlns="http://www.w3.org/2000/svg" width="20" height="20" viewBox="0 0 20 20">
  <defs>
    <style>
      .cls-1 {
        fill: #fff;
      }
    </style>
  </defs>
  <g id="그룹_7011" data-name="그룹 7011" transform="translate(-40 -472)">
    <rect id="사각형_5424" data-name="사각형 5424" class="cls-1" width="20" height="20" transform="translate(40 472)"/>
    <path id="패스_2490" data-name="패스 2490" d="M85,27.375A4.839,4.839,0,0,1,80.2,22.5h1.6l-2.4-2.437L77,22.5h1.6A6.452,6.452,0,0,0,85,29a6.346,6.346,0,0,0,4.906-2.329l-1.138-1.157A4.762,4.762,0,0,1,85,27.375ZM91.4,22.5A6.451,6.451,0,0,0,85,16a6.347,6.347,0,0,0-4.906,2.33l1.138,1.156A4.762,4.762,0,0,1,85,17.625,4.837,4.837,0,0,1,89.8,22.5H88.2l2.4,2.437L93,22.5Z" transform="translate(-35 460)"/>
  </g>
</svg>
