<svg id="그룹_3869" data-name="그룹 3869" xmlns="http://www.w3.org/2000/svg" width="48" height="48" viewBox="0 0 48 48">
    <defs>
        <clipPath id="clip-path">
            <path id="사각형_3185" data-name="사각형 3185" style="fill:none" d="M0 0h48v48H0z"/>
        </clipPath>
        <style>
            .cls-2{clip-path:url(#clip-path)}
        </style>
    </defs>
    <g id="그룹_3868" data-name="그룹 3868" class="cls-2">
        <g id="그룹_3867" data-name="그룹 3867">
            <g id="그룹_3866" data-name="그룹 3866" class="cls-2">
                <path id="패스_2379" data-name="패스 2379" d="M23.5 44.5a21 21 0 1 1 21-21 21.025 21.025 0 0 1-21 21" transform="translate(.5 .5)" style="fill:#fff"/>
                <path id="패스_2380" data-name="패스 2380" d="M23.6 3.2A20.4 20.4 0 1 1 3.2 23.6 20.423 20.423 0 0 1 23.6 3.2m0-1.2a21.6 21.6 0 1 0 21.6 21.6A21.6 21.6 0 0 0 23.6 2" transform="translate(.4 .4)" style="fill:#b2b2b2"/>
                <path id="패스_2381" data-name="패스 2381" d="M29.91 18.435H21.1a.7.7 0 0 0-.7.7v2.814a.7.7 0 0 0 .7.7h4.961A6.617 6.617 0 0 1 23.211 26l2.111 3.666a10.589 10.589 0 0 0 5.4-9.26 7.2 7.2 0 0 0-.116-1.39.708.708 0 0 0-.695-.578" transform="translate(4.079 3.687)" style="fill:#167ee6"/>
                <path id="패스_2382" data-name="패스 2382" d="M24.848 25.14a6.548 6.548 0 0 1-2.386.826h-.017a6.926 6.926 0 0 1-.882.06 6.573 6.573 0 0 1-5.686-3.289l-3.666 2.111a10.785 10.785 0 0 0 9.347 5.4c.122 0 .244 0 .366-.006a10.789 10.789 0 0 0 5.034-1.442z" transform="translate(2.442 4.547)" style="fill:#0f993e"/>
                <path id="패스_2383" data-name="패스 2383" d="M15.229 20.9a6.519 6.519 0 0 1 .889-3.283l-3.666-2.111a10.747 10.747 0 0 0 0 10.788l3.666-2.111a6.519 6.519 0 0 1-.889-3.283" transform="translate(2.2 3.101)" style="fill:#ffd500"/>
                <path id="패스_2384" data-name="패스 2384" d="M28.633 13.652a10.773 10.773 0 0 0-6.072-2.6q-.493-.047-1-.047a10.784 10.784 0 0 0-9.347 5.4l3.666 2.111a6.553 6.553 0 0 1 8.949-2.416 6.481 6.481 0 0 1 .69.457 11.869 11.869 0 0 1 .277.211.709.709 0 0 0 .889-.088l1.994-1.994a.711.711 0 0 0-.013-1l-.034-.03" transform="translate(2.443 2.2)" style="fill:#d93f21"/>
            </g>
        </g>
    </g>
</svg>
