<svg xmlns="http://www.w3.org/2000/svg" width="48" height="48" viewBox="0 0 48 48">
    <defs>
        <clipPath id="clip-path">
            <path id="사각형_2485" data-name="사각형 2485" class="cls-1" d="M0 0h48v48H0z"/>
        </clipPath>
        <style>
            .cls-1{fill:none}.cls-7{fill:#fae100}
        </style>
    </defs>
    <g id="그룹_2820" data-name="그룹 2820" transform="translate(-46 -543)">
        <path id="패스_2132" data-name="패스 2132" d="M23.489 2A21.489 21.489 0 1 1 2 23.489 21.49 21.49 0 0 1 23.489 2" transform="translate(46.389 543.388)" style="fill:#ffce00"/>
        <path id="패스_2137" data-name="패스 2137" d="M21.94 11C15.345 11 10 15.139 10 20.246c0 3.32 2.265 6.237 5.665 7.866-.251.913-.9 3.308-1.036 3.822-.161.635.238.627.5.456l4.594-3.057a15.3 15.3 0 0 0 2.216.159c6.595 0 11.941-4.139 11.941-9.245S28.531 11 21.936 11" transform="translate(47.939 545.132)" style="fill:#381e1f"/>
        <path id="패스_2138" data-name="패스 2138" class="cls-7" d="M13.121 16.24c-.743 0-.74 1.276 0 1.276h1.265s.008 3.453 0 4.249c0 .579 1.316.609 1.313.029l.006-4.157a6.635 6.635 0 0 1 1.26-.091.657.657 0 0 0 0-1.307z" transform="translate(48.436 546.148)"/>
        <path id="패스_2139" data-name="패스 2139" class="cls-1" d="M13.121 16.239c-.743 0-.74 1.277 0 1.277h1.265s.008 3.454 0 4.248c0 .579 1.316.609 1.313.03l.007-4.157a6.723 6.723 0 0 1 1.257-.091.657.657 0 0 0 0-1.307z" transform="translate(48.438 546.147)"/>
        <path id="패스_2140" data-name="패스 2140" class="cls-7" d="m18.561 17.8.7 2.163H17.8zm-.788-1.014c-.312.673-1.436 3.849-1.809 4.688-.27.61.9 1.106 1.164.5l.252-.869h2.314s-.079.036.228.832c.25.643 1.451.195 1.2-.448-.355-.922-1.584-4.236-1.809-4.7a.963.963 0 0 0-.833-.374.735.735 0 0 0-.709.374" transform="translate(49.088 546.18)"/>
        <path id="패스_2141" data-name="패스 2141" class="cls-1" d="m18.56 17.8.706 2.164H17.8zm-.788-1.018c-.312.673-1.436 3.849-1.81 4.688-.27.609.9 1.106 1.165.5l.251-.869h2.315s-.08.036.228.832c.248.643 1.449.195 1.2-.448-.356-.92-1.584-4.236-1.81-4.7a.965.965 0 0 0-.832-.374h-.067a.732.732 0 0 0-.642.376" transform="translate(49.086 546.18)"/>
        <path id="패스_2142" data-name="패스 2142" class="cls-7" d="M20.58 16.975c0 1.08.006 4.558.006 4.558s-.1.692.5.692h2.538c.596 0 .591-1.242 0-1.242s-1.679-.006-1.679-.006v-4.005a.7.7 0 0 0-1.368 0" transform="translate(49.99 546.182)"/>
        <path id="패스_2143" data-name="패스 2143" class="cls-1" d="M21.135 16.426a.69.69 0 0 0-.554.542v.007c0 1.08.007 4.558.007 4.558s-.1.694.5.694 1.945-.007 2.541-.007.591-1.24 0-1.24-1.68-.006-1.68-.006v-4.005a.693.693 0 0 0-.683-.555.71.71 0 0 0-.131.013" transform="translate(49.99 546.182)"/>
        <path id="패스_2144" data-name="패스 2144" class="cls-7" d="M23.7 16.8c.013.474-.016 4.754-.016 5.073 0 .5 1.293.5 1.293 0v-1.681l.381-.3 1.668 2.234c.337.436 1.393-.352 1.06-.79l-1.77-2.287s1.2-1.276 1.676-1.738c.276-.27-.579-1.115-.856-.845l-2.149 2.11s.017-1.16 0-1.8c-.007-.244-.312-.362-.624-.362-.333 0-.675.135-.666.4" transform="translate(50.592 546.181)"/>
        <path id="패스_2145" data-name="패스 2145" class="cls-1" d="M23.7 16.805c.012.474-.017 4.754-.017 5.073 0 .5 1.294.5 1.294 0v-1.686l.381-.3 1.668 2.233c.337.438 1.393-.351 1.059-.788l-1.769-2.287s1.2-1.277 1.675-1.739c.277-.269-.579-1.115-.855-.845l-2.149 2.111s.016-1.162 0-1.8c-.007-.242-.312-.361-.624-.361-.333 0-.675.135-.666.4" transform="translate(50.592 546.181)"/>
    </g>
</svg>
