<svg xmlns="http://www.w3.org/2000/svg" width="120" height="30" viewBox="0 0 120 30">
  <defs>
    <style>
      .cls-1 {
        fill: #fff;
        opacity: 0;
      }

      .cls-2 {
        fill: #231815;
      }
    </style>
  </defs>
  <g id="그룹_4149" data-name="그룹 4149" transform="translate(-120 -53)">
    <rect id="사각형_3674" data-name="사각형 3674" class="cls-1" width="120" height="30" transform="translate(120 53)"/>
    <g id="그룹_4135" data-name="그룹 4135" transform="translate(20297.482 16562.652)">
      <g id="그룹_4133" data-name="그룹 4133" transform="translate(-20165.482 -16503.652)">
        <path id="패스_2408" data-name="패스 2408" class="cls-2" d="M68.031,105.772c-2.983,0-4.8-1.557-4.831-3.9h3.629a1.124,1.124,0,0,0,1.273,1.155c.551,0,1.074-.278,1.074-.837,0-.623-.828-.8-1.881-.974-1.7-.272-3.947-.778-3.947-3.4,0-2.167,1.869-3.567,4.675-3.567,2.787,0,4.593,1.465,4.637,3.656H69.129c0-.691-.47-1.011-1.153-1.011-.6,0-1.011.3-1.011.8,0,.616.837.759,1.877.942,1.73.3,4.028.659,4.028,3.4,0,2.261-1.93,3.739-4.84,3.739Z" transform="translate(-63.2 -90.654)"/>
        <path id="패스_2409" data-name="패스 2409" class="cls-2" d="M89.744,99.908a6.674,6.674,0,0,1-.078.986H81.537a2.12,2.12,0,0,0,2.235,1.882,2.2,2.2,0,0,0,1.979-1.014H89.5A6.013,6.013,0,0,1,77.826,100a5.965,5.965,0,0,1,11.918-.095ZM81.6,98.831H86.03a2.2,2.2,0,0,0-2.258-1.664A2.115,2.115,0,0,0,81.6,98.831Z" transform="translate(-66.627 -90.654)"/>
        <path id="패스_2410" data-name="패스 2410" class="cls-2" d="M96.158,89.554h3.77v14.9h-3.77Z" transform="translate(-70.923 -89.554)"/>
        <path id="패스_2411" data-name="패스 2411" class="cls-2" d="M104.709,89.554h3.77v14.9h-3.77Z" transform="translate(-72.926 -89.554)"/>
        <path id="패스_2412" data-name="패스 2412" class="cls-2" d="M112.427,100.01c0-3.353,2.569-5.762,6.138-5.762s6.138,2.409,6.138,5.762-2.58,5.762-6.138,5.762S112.427,103.351,112.427,100.01Zm8.5,0a2.361,2.361,0,1,0-2.361,2.416A2.294,2.294,0,0,0,120.925,100.01Z" transform="translate(-74.735 -90.654)"/>
        <path id="패스_2413" data-name="패스 2413" class="cls-2" d="M141.361,94.716l-4.4,10.807h-3.416l-4.459-10.807h4.132l2.069,6.4,2.046-6.4Z" transform="translate(-78.638 -90.764)"/>
        <path id="패스_2414" data-name="패스 2414" class="cls-2" d="M157.674,99.908a6.777,6.777,0,0,1-.077.986h-8.129a2.12,2.12,0,0,0,2.236,1.882,2.2,2.2,0,0,0,1.979-1.014h3.753A6.013,6.013,0,0,1,145.757,100a5.964,5.964,0,0,1,11.917-.095Zm-8.139-1.077h4.425a2.2,2.2,0,0,0-2.257-1.664A2.114,2.114,0,0,0,149.535,98.831Z" transform="translate(-82.544 -90.654)"/>
        <path id="패스_2415" data-name="패스 2415" class="cls-2" d="M164.089,89.554h3.77v14.9h-3.77Z" transform="translate(-86.84 -89.554)"/>
        <path id="패스_2416" data-name="패스 2416" class="cls-2" d="M183.72,94.716l-4.588,10.46c-1.475,3.35-2.832,4.56-5.658,4.56h-1.291V106.5h1.036c1.443,0,1.878-.376,2.39-1.738l-4.524-10.043h4.1l2.323,6.031,2.165-6.031Z" transform="translate(-88.479 -90.903)"/>
      </g>
    </g>
  </g>
</svg>
