<svg xmlns="http://www.w3.org/2000/svg" xmlns:xlink="http://www.w3.org/1999/xlink" width="332" height="205" viewBox="0 0 332 205">
    <defs>
        <linearGradient id="a" y1=".5" x2="1" y2=".5" gradientUnits="objectBoundingBox">
            <stop offset="0" stop-color="#ff6700"/>
            <stop offset="1" stop-color="#ff008e"/>
        </linearGradient>
        <linearGradient id="c" x1="0" y1="0" x2="1" y2="1.668" xlink:href="#a"/>
        <linearGradient id="d" x1="-.579" y1="-1.533" x2="1.591" y2="1" xlink:href="#a"/>
        <filter id="b" x="0" y="0" width="332" height="205" filterUnits="userSpaceOnUse">
            <feOffset/>
            <feGaussianBlur stdDeviation="4" result="blur"/>
            <feFlood flood-color="#eaebef"/>
            <feComposite operator="in" in2="blur"/>
            <feComposite in="SourceGraphic"/>
        </filter>
    </defs>
    <g data-name="그룹 5915">
        <g style="filter:url(#b)">
            <rect data-name="사각형 848" width="308" height="181" rx="10" transform="translate(12 12)" style="fill:#fff"/>
        </g>
        <path data-name="패스 1071" d="M39 43.502a.5.5 0 0 1-.322-.118l-7-5.913a.5.5 0 0 1-.005-.759l7-6.087a.5.5 0 0 1 .656.755l-6.56 5.7 6.554 5.537a.5.5 0 0 1-.323.882z"/>
        <path data-name="패스 2704" d="M72.448 29.14v7.66h-2v-7.66zM67.5 36.724v-3.632h-1.7v-1.68h1.7v-2.048h1.968v7.36zm-.448-1.856L66 36.484a4.439 4.439 0 0 1-1.52-1.024 5.011 5.011 0 0 1-.976-1.5 5.562 5.562 0 0 1-1.024 1.7 5.059 5.059 0 0 1-1.616 1.208L59.7 35.3a4.389 4.389 0 0 0 1.28-.848 4.707 4.707 0 0 0 .864-1.128 4.915 4.915 0 0 0 .488-1.312 6.471 6.471 0 0 0 .152-1.384V29.7h2.064v.96a6.259 6.259 0 0 0 .136 1.32 4.369 4.369 0 0 0 .432 1.176 3.785 3.785 0 0 0 .776.984 3.988 3.988 0 0 0 1.164.728zm-2.508 7.264h8.368v1.632H62.464v-4h7.9v-.8h-7.936v-1.616h10.016v3.936h-7.9zM84.816 29.14h2.112v8.176h-2.112v-3.648h-2.288v-1.68h2.288zm-1.984 5.84.144 1.7q-.768.128-1.52.2t-1.544.112q-.792.04-1.656.048t-1.872.008h-1.216v-4.5h4.544v-1.184h-4.56v-1.68h6.64v4.432h-4.528v1.232q1.616 0 2.928-.072a23.657 23.657 0 0 0 2.64-.296zm2.016 4.22v-1.28h2.08v5.796h-9.856v-5.792h2.1V39.2zm0 2.816v-1.2h-5.68v1.2zm18.16-7.324v1.744h-2.144v7.44h-2.112V29.14h2.112v5.552zm-9.728-4.528a3.313 3.313 0 0 1 1.544.368 3.582 3.582 0 0 1 1.224 1.048 5.282 5.282 0 0 1 .808 1.648 7.461 7.461 0 0 1 .3 2.184 7.542 7.542 0 0 1-.3 2.188 5.374 5.374 0 0 1-.808 1.668 3.549 3.549 0 0 1-1.224 1.056 3.313 3.313 0 0 1-1.544.368 3.313 3.313 0 0 1-1.544-.368 3.623 3.623 0 0 1-1.236-1.056 5.147 5.147 0 0 1-.8-1.668 7.738 7.738 0 0 1-.288-2.192 7.654 7.654 0 0 1 .288-2.18 5.059 5.059 0 0 1 .8-1.648 3.657 3.657 0 0 1 1.232-1.048 3.313 3.313 0 0 1 1.548-.368zm0 8.608a1.517 1.517 0 0 0 1.328-.856 4.946 4.946 0 0 0 .512-2.5 4.9 4.9 0 0 0-.512-2.5 1.518 1.518 0 0 0-1.328-.848 1.512 1.512 0 0 0-1.336.848 4.964 4.964 0 0 0-.5 2.5 5.012 5.012 0 0 0 .5 2.5 1.51 1.51 0 0 0 1.336.856zm20.864-9.648h2.112v14.784h-2.112zm-5.808 1.04a3.313 3.313 0 0 1 1.544.368 3.582 3.582 0 0 1 1.22 1.048 5.282 5.282 0 0 1 .808 1.648 7.461 7.461 0 0 1 .3 2.184 7.542 7.542 0 0 1-.3 2.192 5.374 5.374 0 0 1-.808 1.664 3.549 3.549 0 0 1-1.22 1.056 3.313 3.313 0 0 1-1.544.368 3.313 3.313 0 0 1-1.544-.368 3.549 3.549 0 0 1-1.224-1.056 5.374 5.374 0 0 1-.808-1.668 7.542 7.542 0 0 1-.3-2.192 7.461 7.461 0 0 1 .3-2.184 5.282 5.282 0 0 1 .808-1.648 3.582 3.582 0 0 1 1.224-1.048 3.313 3.313 0 0 1 1.544-.364zm0 1.9a1.518 1.518 0 0 0-1.328.848 4.9 4.9 0 0 0-.512 2.5 4.946 4.946 0 0 0 .512 2.5 1.517 1.517 0 0 0 1.328.856 1.517 1.517 0 0 0 1.328-.856 4.946 4.946 0 0 0 .512-2.5 4.9 4.9 0 0 0-.512-2.5 1.518 1.518 0 0 0-1.328-.844zm20.528-2.924h2.112v14.784h-2.112zm-7.1 3.024v6.48q.96 0 1.768-.024t1.528-.072q.72-.048 1.376-.128t1.328-.208l.192 1.744q-.752.144-1.5.232t-1.576.136q-.832.048-1.792.064t-2.144.012h-1.3v-9.952h7.12v1.712z"/>
        <path data-name="패스 2701" d="M116.706 79.024h1.416v7.644h1.548V88h-4.944v-1.332h1.752v-4.884l.048-.78-1.464 1.332-.948-1.08zm3.9 9.96.494-2.508h1.75l-.888 2.508zm6.48-10.1a3.3 3.3 0 0 1 1.146.192 2.66 2.66 0 0 1 .894.534 2.419 2.419 0 0 1 .582.822 2.606 2.606 0 0 1 .21 1.056 2.8 2.8 0 0 1-.174.906 4.378 4.378 0 0 1-.414.834 6.8 6.8 0 0 1-.57.768q-.318.372-.654.72l-1.86 1.872a2.86 2.86 0 0 1 .462-.078q.222-.018.426-.018h2.88V88h-6.252v-.96l3.012-2.964a8.811 8.811 0 0 0 1.08-1.276 2.252 2.252 0 0 0 .396-1.28 1.224 1.224 0 0 0-.342-.942 1.312 1.312 0 0 0-.93-.318 1.275 1.275 0 0 0-.852.294 1.621 1.621 0 0 0-.492.69 1.263 1.263 0 0 0-.066.276q-.018.144-.03.324l-1.572-.264a3.087 3.087 0 0 1 1.05-2.04 3.232 3.232 0 0 1 2.07-.66zm9.708.144V80.5h-3.372l-.3 1.752a5.253 5.253 0 0 1 .534-.066q.258-.018.5-.018a3.474 3.474 0 0 1 1.272.216 2.61 2.61 0 0 1 .924.594 2.512 2.512 0 0 1 .564.888 3.126 3.126 0 0 1 .192 1.11 3.307 3.307 0 0 1-.26 1.324 3.015 3.015 0 0 1-.714 1.022 3.216 3.216 0 0 1-1.08.66 3.8 3.8 0 0 1-1.344.234 3.647 3.647 0 0 1-1.536-.324 4.244 4.244 0 0 1-1.164-.756l.84-1.224a5.752 5.752 0 0 0 .9.612 2.155 2.155 0 0 0 1.056.264 1.619 1.619 0 0 0 1.26-.474 1.807 1.807 0 0 0 .434-1.266 1.5 1.5 0 0 0-.42-1.128 1.651 1.651 0 0 0-1.25-.384 5.136 5.136 0 0 0-.66.09 4.384 4.384 0 0 0-.648.186l-1.008-.3q.276-1.74.462-2.826t.282-1.662zm7.152 0V80.5h-3.372l-.3 1.752a5.253 5.253 0 0 1 .534-.066q.258-.018.5-.018a3.474 3.474 0 0 1 1.272.216 2.61 2.61 0 0 1 .924.594 2.512 2.512 0 0 1 .564.888 3.126 3.126 0 0 1 .192 1.11A3.307 3.307 0 0 1 144 86.3a3.015 3.015 0 0 1-.714 1.026 3.216 3.216 0 0 1-1.08.66 3.8 3.8 0 0 1-1.344.234 3.647 3.647 0 0 1-1.536-.324 4.244 4.244 0 0 1-1.164-.76l.838-1.224a5.752 5.752 0 0 0 .9.612 2.155 2.155 0 0 0 1.056.264 1.619 1.619 0 0 0 1.26-.474 1.807 1.807 0 0 0 .432-1.266 1.5 1.5 0 0 0-.42-1.128 1.651 1.651 0 0 0-1.248-.384 5.136 5.136 0 0 0-.66.09 4.384 4.384 0 0 0-.648.186l-1.008-.3q.276-1.74.462-2.826t.282-1.662zm-22.162 13.886h1.089v9.933h-1.089zm-2.084 3.949v-3.707h1.067v9.218H119.7v-4.6h-1.826a6.737 6.737 0 0 1-1.155 1.6 8.6 8.6 0 0 1-1.749 1.37l-.649-.8a6.746 6.746 0 0 0 2.326-2.144 5.953 5.953 0 0 0 .891-2.75H114.8v-.915h3.861a9.792 9.792 0 0 1-.1 1.408 7.222 7.222 0 0 1-.319 1.32zm11.83-3.963h1.144v9.966h-1.144zm-3.366.836v1.631a5.213 5.213 0 0 0 .7 2.6 4.649 4.649 0 0 0 .812 1.033 3.8 3.8 0 0 0 1.062.72l-.66.9a4.3 4.3 0 0 1-1.491-1.172 5.546 5.546 0 0 1-.974-1.8 6.037 6.037 0 0 1-.984 1.931 4.354 4.354 0 0 1-1.545 1.271l-.671-.946a3.663 3.663 0 0 0 1.078-.737 4.779 4.779 0 0 0 .825-1.078 5.583 5.583 0 0 0 .528-1.3 5.443 5.443 0 0 0 .187-1.414v-1.636zm14.278-.517v3.072h-6.688v-3.069zm-1.111 2.181v-1.3h-4.455v1.3zm2.277 2.486h-3.938v.825h2.805v2.365h-5.654v.814h5.94v.869H135.7v-2.486h5.665v-.7h-5.688v-.858h2.849v-.829h-3.916v-.9h9z"/>
        <path data-name="패스 2702" d="M192.446 78.88a3.3 3.3 0 0 1 1.146.192 2.66 2.66 0 0 1 .894.534 2.419 2.419 0 0 1 .582.822 2.606 2.606 0 0 1 .21 1.056 2.8 2.8 0 0 1-.178.906 4.378 4.378 0 0 1-.414.834 6.8 6.8 0 0 1-.57.768q-.318.372-.654.72l-1.86 1.872a2.86 2.86 0 0 1 .462-.078q.222-.018.426-.018h2.88V88h-6.252v-.96l3.012-2.964a8.811 8.811 0 0 0 1.084-1.276 2.252 2.252 0 0 0 .4-1.284 1.224 1.224 0 0 0-.342-.942 1.312 1.312 0 0 0-.93-.318 1.275 1.275 0 0 0-.852.294 1.621 1.621 0 0 0-.492.69 1.263 1.263 0 0 0-.066.276q-.018.144-.03.324l-1.572-.264a3.087 3.087 0 0 1 1.05-2.04 3.232 3.232 0 0 1 2.066-.656zm5.916 7.584v1.7h-1.752v-1.7zm4.248-7.44h1.416v7.644h1.548V88h-4.944v-1.332h1.752v-4.884l.048-.784-1.464 1.336-.948-1.08zm12.89 2.148h1.464v1.3H215.5v3.576h-1.586V77.98h1.586zm-3.11-2.28v5.328h-5.268v-5.328zm-1.56 4.08V80.14h-2.16v2.832zm-.876 2.28v2.328h5.94v1.26h-7.524v-3.588zm-13.818 9.73h1.4v.935h-1.4v2.123H195V92.9h1.133zm-1.782 1.628.055.825q-.748.11-1.523.176t-1.535.1q-.759.038-1.485.05t-1.375.011l-.121-.924h1.166v-2.405h-.9v-.9h5.313v.9h-.9v2.277l.66-.044q.326-.022.645-.066zm-3.729-2.167v2.387q.319-.011.655-.017t.665-.028v-2.342zm.231 6.557v.869h5.61v.891h-6.721v-2.6h5.269v-.792h-5.291v-.88h6.413V101zm12.694-.254h3.95v.935h-9v-.935h3.917v-1.694h-2.827v-3.2h5.72V94.52h-5.742v-.913h6.864v3.146H200.7v1.386h5.952v.913h-3.102zm12.2-7.832h1.144v9.933h-1.145v-2.332h-2.123v-.869h2.123zm-3.939 4.444a3.409 3.409 0 0 1-1.011-.143 2.443 2.443 0 0 1-.8-.407 1.881 1.881 0 0 1-.523-.633 1.785 1.785 0 0 1-.187-.819 1.727 1.727 0 0 1 .187-.8 1.9 1.9 0 0 1 .523-.63 2.443 2.443 0 0 1 .8-.407 3.652 3.652 0 0 1 2.024 0 2.379 2.379 0 0 1 .792.407 1.927 1.927 0 0 1 .517.627 1.727 1.727 0 0 1 .187.8 1.785 1.785 0 0 1-.187.819 1.909 1.909 0 0 1-.517.633 2.379 2.379 0 0 1-.792.407 3.409 3.409 0 0 1-1.013.146zm0-3.124a1.718 1.718 0 0 0-1.056.3.973.973 0 0 0-.4.825.973.973 0 0 0 .4.825 1.718 1.718 0 0 0 1.056.3 1.7 1.7 0 0 0 1.04-.3.968.968 0 0 0 .4-.825.968.968 0 0 0-.4-.825 1.7 1.7 0 0 0-1.04-.3zm3.245 3.509.066.836q-.693.121-1.4.2t-1.405.121v3.641h-1.133v-3.588q-.66.022-1.282.033T208.72 99l-.143-.935q.7 0 1.5-.006t1.634-.038q.836-.033 1.688-.1t1.657-.178z"/>
        <path data-name="패스 2703" d="M268.1 78.88a3.419 3.419 0 0 1 1.146.2 2.788 2.788 0 0 1 .876.516 2.188 2.188 0 0 1 .558.756 2.15 2.15 0 0 1 .18.936 1.912 1.912 0 0 1-.384 1.242 2.74 2.74 0 0 1-.96.75 2.323 2.323 0 0 1 1.146.822 2.29 2.29 0 0 1 .354 1.318 2.787 2.787 0 0 1-.276 1.212 2.663 2.663 0 0 1-.7.882 2.977 2.977 0 0 1-1 .534 3.982 3.982 0 0 1-1.206.18 3.881 3.881 0 0 1-1.198-.168 2.779 2.779 0 0 1-.906-.486 2.763 2.763 0 0 1-.654-.78 5.148 5.148 0 0 1-.444-1.05l1.468-.576a2.465 2.465 0 0 0 .228.576 2.344 2.344 0 0 0 .384.522 1.981 1.981 0 0 0 .5.378 1.278 1.278 0 0 0 .6.144 1.9 1.9 0 0 0 .69-.114 1.5 1.5 0 0 0 .492-.3 1.183 1.183 0 0 0 .294-.426 1.314 1.314 0 0 0 .1-.492 2.372 2.372 0 0 0-.066-.576.858.858 0 0 0-.282-.45 1.515 1.515 0 0 0-.63-.288 4.889 4.889 0 0 0-1.122-.1v-1.2a4.45 4.45 0 0 0 .978-.108 1.548 1.548 0 0 0 .594-.27.921.921 0 0 0 .3-.408 1.537 1.537 0 0 0 .084-.522 1.176 1.176 0 0 0-.318-.93A1.3 1.3 0 0 0 268 80.3a1.562 1.562 0 0 0-.648.12 1.241 1.241 0 0 0-.438.324 1.556 1.556 0 0 0-.276.486 3.83 3.83 0 0 0-.162.606q-.384-.06-.774-.138t-.786-.138a3.244 3.244 0 0 1 1.09-2.032 3.279 3.279 0 0 1 2.094-.648zm6.8.144h1.42v7.644h1.548V88h-4.944v-1.332h1.752v-4.884l.048-.784-1.464 1.336-.948-1.08zm7.276 9.204a4.238 4.238 0 0 1-1.284-.186 3.019 3.019 0 0 1-1.008-.528 2.366 2.366 0 0 1-.654-.84 2.607 2.607 0 0 1-.23-1.122 2.483 2.483 0 0 1 .36-1.344 2.288 2.288 0 0 1 1.148-.888 2.294 2.294 0 0 1-.888-.82 2.174 2.174 0 0 1-.312-1.16 2.325 2.325 0 0 1 .216-1.008 2.327 2.327 0 0 1 .594-.78 2.726 2.726 0 0 1 .906-.5 3.549 3.549 0 0 1 1.152-.18 3.643 3.643 0 0 1 1.17.18 2.786 2.786 0 0 1 .918.5 2.293 2.293 0 0 1 .6.78 2.325 2.325 0 0 1 .216 1.008 2.174 2.174 0 0 1-.318 1.16 2.22 2.22 0 0 1-.906.816 2.288 2.288 0 0 1 1.152.888 2.483 2.483 0 0 1 .36 1.344 2.607 2.607 0 0 1-.234 1.122 2.366 2.366 0 0 1-.654.84 3.019 3.019 0 0 1-1.008.532 4.281 4.281 0 0 1-1.296.186zm0-5.5a1.328 1.328 0 0 0 .6-.126 1.183 1.183 0 0 0 .408-.324 1.3 1.3 0 0 0 .228-.444 1.685 1.685 0 0 0 .072-.474 1.228 1.228 0 0 0-.33-.87 1.273 1.273 0 0 0-.978-.354 1.234 1.234 0 0 0-.966.354 1.255 1.255 0 0 0-.318.87 1.685 1.685 0 0 0 .072.474 1.362 1.362 0 0 0 .222.444 1.137 1.137 0 0 0 .4.324 1.29 1.29 0 0 0 .59.13zm0 4.176a1.618 1.618 0 0 0 1.134-.374 1.292 1.292 0 0 0 .414-1 1.429 1.429 0 0 0-.424-1.112 1.6 1.6 0 0 0-1.122-.39 1.531 1.531 0 0 0-1.1.39 1.463 1.463 0 0 0-.408 1.11 1.321 1.321 0 0 0 .4 1 1.552 1.552 0 0 0 1.106.38zm-14.04 8.078h1.4v.935h-1.4v2.123H267V92.9h1.133zm-1.782 1.628.055.825q-.748.11-1.523.176t-1.535.1q-.759.038-1.485.05t-1.375.011l-.121-.924h1.166v-2.405h-.9v-.9h5.313v.9h-.9v2.277l.66-.044q.326-.022.645-.066zm-3.729-2.167v2.387q.319-.011.655-.017t.665-.028v-2.342zm.231 6.557v.869h5.61v.891h-6.721v-2.6h5.269v-.792h-5.291v-.88h6.413V101zm12.694-.254h3.95v.935h-9v-.935h3.917v-1.694h-2.827v-3.2h5.72V94.52h-5.742v-.913h6.864v3.146H272.7v1.386h5.952v.913h-3.102zm12.122-7.821h1.128V98.8h-1.128zm-4.224.594a3.11 3.11 0 0 1 1.05.17 2.541 2.541 0 0 1 .831.478 2.17 2.17 0 0 1 .55.742 2.385 2.385 0 0 1 0 1.9 2.17 2.17 0 0 1-.55.743 2.541 2.541 0 0 1-.831.479 3.11 3.11 0 0 1-1.05.17 3.158 3.158 0 0 1-1.056-.17 2.531 2.531 0 0 1-.836-.479 2.17 2.17 0 0 1-.55-.743 2.385 2.385 0 0 1 0-1.9 2.17 2.17 0 0 1 .55-.742 2.531 2.531 0 0 1 .836-.478 3.158 3.158 0 0 1 1.056-.17zm0 .935a1.585 1.585 0 0 0-1.1.385 1.308 1.308 0 0 0-.429 1.023 1.3 1.3 0 0 0 .429 1.038 1.613 1.613 0 0 0 1.1.374 1.6 1.6 0 0 0 1.094-.38 1.3 1.3 0 0 0 .434-1.029 1.3 1.3 0 0 0-.434-1.023 1.589 1.589 0 0 0-1.094-.388zm2.024 4.532a6.86 6.86 0 0 1 1.408.132 3.668 3.668 0 0 1 1.062.379 1.928 1.928 0 0 1 .671.605 1.432 1.432 0 0 1 .237.809 1.451 1.451 0 0 1-.237.819 1.928 1.928 0 0 1-.671.6 3.668 3.668 0 0 1-1.062.38 6.86 6.86 0 0 1-1.408.132 6.719 6.719 0 0 1-1.392-.132 3.749 3.749 0 0 1-1.062-.38 1.865 1.865 0 0 1-.671-.6 1.477 1.477 0 0 1-.231-.819 1.457 1.457 0 0 1 .231-.809 1.865 1.865 0 0 1 .671-.605 3.749 3.749 0 0 1 1.062-.379 6.719 6.719 0 0 1 1.392-.132zm0 .891a4 4 0 0 0-1.645.269.8.8 0 0 0 0 1.54 4 4 0 0 0 1.645.27 4.08 4.08 0 0 0 1.655-.27.8.8 0 0 0 0-1.54 4.08 4.08 0 0 0-1.655-.269z"/>
        <g data-name="그룹 1619" transform="translate(290 34)">
            <circle data-name="타원 109" cx="1.5" cy="1.5" r="1.5" transform="translate(-2)"/>
            <circle data-name="타원 112" cx="1.5" cy="1.5" r="1.5" transform="translate(4)"/>
            <circle data-name="타원 113" cx="1.5" cy="1.5" r="1.5" transform="translate(10)"/>
        </g>
        <g data-name="그룹 1623">
            <path data-name="패스 1070" d="M197.565 268.249a30 30 0 1 0 30 30 30.034 30.034 0 0 0-30-30zm0 58.54a28.54 28.54 0 1 1 28.541-28.54 28.573 28.573 0 0 1-28.541 28.54z" transform="translate(-135.566 -205.248)" style="fill:url(#a)"/>
            <g data-name="그룹 1620">
                <path data-name="패스 1072" d="M226.868 311.312a7.69 7.69 0 0 1-2.256 5.455l-2.42 2.42a2.292 2.292 0 1 1-3.242-3.241l2.42-2.42a3.132 3.132 0 1 0-4.43-4.43l-7.671 7.67a7.716 7.716 0 1 1 0-10.912 2.292 2.292 0 0 1-3.242 3.242 3.132 3.132 0 1 0 0 4.43l7.671-7.671a7.712 7.712 0 0 1 13.168 5.456z" transform="translate(-149.483 -222.743)" style="fill:url(#c)"/>
                <path data-name="패스 1073" d="M228.165 340.572a2.286 2.286 0 0 1-.671 1.621l-6.277 6.276-6.276-6.276a2.292 2.292 0 0 1 3.241-3.241l3.035 3.035 3.035-3.035a2.292 2.292 0 0 1 3.913 1.621z" transform="translate(-159.216 -241.318)" style="fill:url(#d)"/>
            </g>
        </g>
        <path data-name="패스 2700" d="M4.248.234a5.5 5.5 0 0 1-2.016-.387 6.223 6.223 0 0 1-1.71-.981l.972-1.332a6.719 6.719 0 0 0 1.332.828 3.493 3.493 0 0 0 1.474.306 1.941 1.941 0 0 0 1.334-.378 1.236 1.236 0 0 0 .414-.954.962.962 0 0 0-.189-.594 1.734 1.734 0 0 0-.5-.441 5.467 5.467 0 0 0-.7-.351q-.387-.162-.8-.324-.486-.2-.99-.432a4.224 4.224 0 0 1-.909-.567 2.823 2.823 0 0 1-.666-.792 2.167 2.167 0 0 1-.261-1.089 2.7 2.7 0 0 1 .243-1.152 2.773 2.773 0 0 1 .693-.918 3.133 3.133 0 0 1 1.107-.612 4.681 4.681 0 0 1 1.467-.216 4.447 4.447 0 0 1 1.811.352 6.907 6.907 0 0 1 1.4.819L6.786-7.7a6.194 6.194 0 0 0-1.053-.621 2.757 2.757 0 0 0-1.161-.243 1.74 1.74 0 0 0-1.2.351 1.131 1.131 0 0 0-.387.873.851.851 0 0 0 .18.549 1.839 1.839 0 0 0 .468.405 3.723 3.723 0 0 0 .675.324q.387.144.783.288.522.2 1.044.432a4.274 4.274 0 0 1 .936.567 2.642 2.642 0 0 1 .675.819 2.483 2.483 0 0 1 .264 1.184 2.837 2.837 0 0 1-.243 1.161 2.728 2.728 0 0 1-.72.963A3.428 3.428 0 0 1 5.868 0a5.121 5.121 0 0 1-1.62.234zm10.782 0a5.064 5.064 0 0 1-1.89-.351 4.416 4.416 0 0 1-1.53-1.008 4.737 4.737 0 0 1-1.026-1.62 5.948 5.948 0 0 1-.378-2.187 5.948 5.948 0 0 1 .378-2.187 5.1 5.1 0 0 1 1.008-1.638 4.375 4.375 0 0 1 1.449-1.035 4.142 4.142 0 0 1 1.683-.36 4.135 4.135 0 0 1 1.737.342 3.547 3.547 0 0 1 1.26.954 4.121 4.121 0 0 1 .774 1.476 6.646 6.646 0 0 1 .261 1.926 5.728 5.728 0 0 1-.027.585q-.027.261-.063.459H12.24a3.411 3.411 0 0 0 .945 2.223 2.9 2.9 0 0 0 2.115.8 3.961 3.961 0 0 0 1.242-.189 4.587 4.587 0 0 0 1.116-.549l.72 1.314a6.273 6.273 0 0 1-1.53.756 5.6 5.6 0 0 1-1.818.289zm-2.808-6.066h4.752a3.107 3.107 0 0 0-.567-2 1.993 1.993 0 0 0-1.647-.7 2.274 2.274 0 0 0-.882.18 2.383 2.383 0 0 0-.774.522 2.921 2.921 0 0 0-.576.846 3.689 3.689 0 0 0-.306 1.152zM21.69 0v-14.328h2.052V0zm5.634 0v-14.328h2.052V0zm9.72.234a4.559 4.559 0 0 1-1.764-.351 4.406 4.406 0 0 1-1.485-1.008 4.924 4.924 0 0 1-1.026-1.62 5.825 5.825 0 0 1-.387-2.187 5.947 5.947 0 0 1 .387-2.214 5.01 5.01 0 0 1 1.026-1.638A4.345 4.345 0 0 1 35.28-9.8a4.559 4.559 0 0 1 1.764-.351 4.559 4.559 0 0 1 1.764.351 4.345 4.345 0 0 1 1.485 1.017 5.01 5.01 0 0 1 1.026 1.638 5.947 5.947 0 0 1 .387 2.214 5.825 5.825 0 0 1-.387 2.187 4.924 4.924 0 0 1-1.026 1.62 4.406 4.406 0 0 1-1.485 1.007 4.559 4.559 0 0 1-1.764.351zm0-1.692a2.164 2.164 0 0 0 1.863-.942 4.267 4.267 0 0 0 .675-2.529 4.352 4.352 0 0 0-.675-2.547 2.152 2.152 0 0 0-1.863-.963 2.129 2.129 0 0 0-1.854.963 4.4 4.4 0 0 0-.666 2.547 4.225 4.225 0 0 0 .684 2.529 2.154 2.154 0 0 0 1.836.942zM46.926 0l-3.51-9.9h2.124l1.692 5.328q.2.756.423 1.476T48.1-1.62h.072q.216-.756.441-1.476t.423-1.476L50.724-9.9h2.016L49.32 0zm12.348.234a5.064 5.064 0 0 1-1.89-.351 4.416 4.416 0 0 1-1.53-1.008 4.737 4.737 0 0 1-1.026-1.62 5.948 5.948 0 0 1-.378-2.187 5.948 5.948 0 0 1 .378-2.187 5.1 5.1 0 0 1 1.008-1.638 4.375 4.375 0 0 1 1.449-1.035 4.142 4.142 0 0 1 1.683-.36 4.135 4.135 0 0 1 1.737.342 3.547 3.547 0 0 1 1.26.954 4.121 4.121 0 0 1 .774 1.476A6.647 6.647 0 0 1 63-5.454a5.727 5.727 0 0 1-.027.585q-.027.261-.063.459h-6.426a3.411 3.411 0 0 0 .945 2.223 2.9 2.9 0 0 0 2.115.8 3.961 3.961 0 0 0 1.242-.189 4.587 4.587 0 0 0 1.114-.548l.72 1.314a6.273 6.273 0 0 1-1.53.756 5.6 5.6 0 0 1-1.816.288zm-2.808-6.066h4.752a3.107 3.107 0 0 0-.567-2 1.993 1.993 0 0 0-1.651-.7 2.274 2.274 0 0 0-.882.18 2.383 2.383 0 0 0-.774.522 2.921 2.921 0 0 0-.576.846 3.689 3.689 0 0 0-.302 1.152zM65.934 0v-14.328h2.052V0zm13.752-9.9-4.86 14.04h-1.962l1.422-4.212L70.362-9.9h2.124l1.836 5.094q.216.666.441 1.386t.459 1.4h.09l.774-2.79L77.67-9.9zM82.692-2V.234h-2.124V-2zM90.63.234a4.926 4.926 0 0 1-1.872-.351 4.363 4.363 0 0 1-1.5-1.008 4.6 4.6 0 0 1-1-1.62 6.215 6.215 0 0 1-.36-2.187 5.827 5.827 0 0 1 .4-2.214 4.823 4.823 0 0 1 1.071-1.638 4.613 4.613 0 0 1 1.56-1.016 5.038 5.038 0 0 1 1.863-.351 3.815 3.815 0 0 1 1.665.333 5.522 5.522 0 0 1 1.233.8l-1.026 1.35a3.89 3.89 0 0 0-.837-.567 2.121 2.121 0 0 0-.945-.207 2.574 2.574 0 0 0-1.134.252 2.645 2.645 0 0 0-.9.711 3.425 3.425 0 0 0-.594 1.107 4.535 4.535 0 0 0-.216 1.44 4.653 4.653 0 0 0 .207 1.422 3.389 3.389 0 0 0 .567 1.1 2.516 2.516 0 0 0 .882.7 2.574 2.574 0 0 0 1.134.252A2.653 2.653 0 0 0 92-1.719a4.738 4.738 0 0 0 .99-.639l.844 1.368a4.694 4.694 0 0 1-1.512.918 4.845 4.845 0 0 1-1.692.306zm9.486 0a4.559 4.559 0 0 1-1.764-.351 4.406 4.406 0 0 1-1.485-1.008 4.924 4.924 0 0 1-1.026-1.62 5.825 5.825 0 0 1-.387-2.187 5.947 5.947 0 0 1 .387-2.214 5.01 5.01 0 0 1 1.026-1.638A4.345 4.345 0 0 1 98.352-9.8a4.559 4.559 0 0 1 1.764-.351 4.559 4.559 0 0 1 1.764.351 4.345 4.345 0 0 1 1.485 1.017 5.01 5.01 0 0 1 1.026 1.638 5.948 5.948 0 0 1 .387 2.214 5.825 5.825 0 0 1-.387 2.187 4.924 4.924 0 0 1-1.026 1.62 4.406 4.406 0 0 1-1.485 1.007 4.559 4.559 0 0 1-1.764.351zm0-1.692a2.164 2.164 0 0 0 1.863-.945 4.267 4.267 0 0 0 .675-2.529 4.352 4.352 0 0 0-.675-2.547 2.152 2.152 0 0 0-1.863-.963 2.129 2.129 0 0 0-1.854.963 4.4 4.4 0 0 0-.662 2.547 4.225 4.225 0 0 0 .68 2.532 2.154 2.154 0 0 0 1.836.942zM107.928 0v-9.9h1.692l.162 1.386h.054a6.851 6.851 0 0 1 1.386-1.161 3.074 3.074 0 0 1 1.674-.477 2.909 2.909 0 0 1 1.773.477 2.886 2.886 0 0 1 .963 1.341 8.518 8.518 0 0 1 1.521-1.314 3.026 3.026 0 0 1 1.7-.5 2.661 2.661 0 0 1 2.313 1.008 4.934 4.934 0 0 1 .729 2.916V0h-2.07v-5.976a3.249 3.249 0 0 0-.4-1.845 1.448 1.448 0 0 0-1.26-.549 3.354 3.354 0 0 0-2.232 1.35V0h-2.07v-5.976a3.249 3.249 0 0 0-.4-1.845 1.448 1.448 0 0 0-1.26-.549 3.354 3.354 0 0 0-2.232 1.35V0zm16.326 2.34 5-17.6h1.44l-5 17.6zm20.052-17.24h1.854V1.4h-1.854v-8.672h-2.844V-8.8h2.844zm-9.216 7.358v3.582q1.872 0 3.447-.1a29.755 29.755 0 0 0 3.231-.387l.162 1.512q-.918.162-1.782.261t-1.755.153q-.891.054-1.836.072t-2.007.018h-1.278v-6.605h5.436v-2.9h-5.472v-1.494h7.29v5.886zm27.684-7.058v5.42h-10.908v-5.42h1.834v1.35h7.236v-1.35zm-1.836 4.014v-1.3H153.7v1.3zm-10.98 2.556h14.724v1.476h-14.724zm3.618 6.552v1.3h9.72v1.42H151.74V-2.79h9.27v-1.152h-9.31v-1.386h11.124v3.852zM178.794-14.9h1.872V1.422h-1.872zm-8.748 7.5v3.42q1.926-.018 3.7-.135t3.7-.423l.2 1.512q-1.044.18-2.034.3t-1.98.18q-.99.063-1.989.081t-2.079.018h-1.386v-6.445h5.67v-3.024h-5.706v-1.512h7.578V-7.4zm27.882-7.47v9.954h-1.854v-9.954zm-3.546 7.092.216 1.512q-.954.162-1.863.261t-1.854.144q-.945.045-1.962.063t-2.187.018h-1.368v-4.806h5.58v-1.8h-5.616v-1.494h7.434v4.7H187.2v1.89q1.062 0 1.98-.027t1.782-.081q.864-.054 1.7-.144t1.72-.234zm-1.854 3.168a11.7 11.7 0 0 1 2.3.207 6.2 6.2 0 0 1 1.737.594 3.029 3.029 0 0 1 1.089.945 2.195 2.195 0 0 1 .378 1.26 2.195 2.195 0 0 1-.378 1.26 3.029 3.029 0 0 1-1.085.944 6.2 6.2 0 0 1-1.737.594 11.7 11.7 0 0 1-2.3.207 11.56 11.56 0 0 1-2.295-.207A6.2 6.2 0 0 1 188.5.6a3.029 3.029 0 0 1-1.089-.945 2.195 2.195 0 0 1-.378-1.26 2.195 2.195 0 0 1 .378-1.26 3.029 3.029 0 0 1 1.089-.945 6.2 6.2 0 0 1 1.728-.594 11.56 11.56 0 0 1 2.3-.204zm0 4.536a7.4 7.4 0 0 0 2.727-.387 1.247 1.247 0 0 0 .927-1.143 1.262 1.262 0 0 0-.927-1.152 9.495 9.495 0 0 0-5.427 0q-.954.4-.954 1.152t.954 1.143a7.438 7.438 0 0 0 2.7.389zm10.548-8.386 9.918-.378q.036-.648.036-1.269v-1.719h-9.5v-1.494h11.322v1.962q0 .882-.009 1.764t-.081 1.845q-.072.963-.216 2.043t-.414 2.358l-1.836-.162q.252-1.1.4-2.052t.216-1.872l-9.594.486zm-1.26 6.21H216.5v1.53h-14.684zm18.756-4.662-.666-1.458a9.5 9.5 0 0 0 2.142-.549 7.2 7.2 0 0 0 1.719-.936 4.809 4.809 0 0 0 1.161-1.215 2.774 2.774 0 0 0 .468-1.386h-4.95v-1.494h11.97v1.494H227.5a2.774 2.774 0 0 0 .468 1.386 4.808 4.808 0 0 0 1.161 1.215 7.2 7.2 0 0 0 1.719.936 9.5 9.5 0 0 0 2.142.549l-.666 1.458a10.041 10.041 0 0 1-3.564-1.242 6.247 6.247 0 0 1-2.322-2.286 6.28 6.28 0 0 1-2.3 2.286 9.6 9.6 0 0 1-3.566 1.242zM233.8-5.724l-.018 1.494h-6.462V1.4h-1.854v-5.63H219.1v-1.494zm16.67-1.458-.77 1.548a9.711 9.711 0 0 1-1.818-.549 8.861 8.861 0 0 1-1.692-.918 8.19 8.19 0 0 1-1.431-1.26 7.085 7.085 0 0 1-1.071-1.575 6.752 6.752 0 0 1-1.017 1.512 7.992 7.992 0 0 1-1.4 1.251 9.522 9.522 0 0 1-1.7.945 9.514 9.514 0 0 1-1.908.594l-.792-1.548a7.9 7.9 0 0 0 2.268-.729 7.842 7.842 0 0 0 1.854-1.269 5.9 5.9 0 0 0 1.251-1.638 4 4 0 0 0 .459-1.836v-1.224h1.962v1.224a4 4 0 0 0 .459 1.836 5.9 5.9 0 0 0 1.251 1.638 7.909 7.909 0 0 0 1.845 1.269 7.787 7.787 0 0 0 2.25.729zm-5.886 5.022h6.516v1.53h-14.724v-1.53h6.354v-3.8h1.854z" transform="translate(32 164)" style="fill:#4257b4"/>
    </g>
</svg>
