<svg xmlns="http://www.w3.org/2000/svg" width="28" height="28" viewBox="0 0 28 28">
  <defs>
    <style>
      .cls-1 {
        fill: aqua;
        opacity: 0;
      }

      .cls-2 {
        fill: none;
        stroke-linecap: round;
        stroke-linejoin: round;
      }

      .cls-3, .cls-4 {
        stroke: none;
      }

      .cls-4 {
        fill: #000;
      }
    </style>
  </defs>
  <g id="그룹_5809" data-name="그룹 5809" transform="translate(0 -0.217)">
    <rect id="사각형_3939" data-name="사각형 3939" class="cls-1" width="28" height="28" transform="translate(0 0.217)"/>
    <g id="그룹_966" data-name="그룹 966" transform="translate(3.999 6)">
      <g id="그룹_965" data-name="그룹 965">
        <g id="패스_830" data-name="패스 830" class="cls-2" transform="translate(-279.285 -101)">
          <path class="cls-3" d="M293.292,101a4.537,4.537,0,0,0-2.818.966,6.386,6.386,0,0,0-1.649,1.968,6.385,6.385,0,0,0-1.649-1.968,4.536,4.536,0,0,0-2.818-.966,5.152,5.152,0,0,0-5.071,5.237c0,.07-.006.058,0,.129,0,3.356,2.725,5.734,6.837,9.21.7.591,1.488,1.259,2.311,1.973a.6.6,0,0,0,.785,0c.822-.714,1.613-1.382,2.312-1.973,4.11-3.476,6.824-5.771,6.824-9.127a5.144,5.144,0,0,0-4.846-5.44C293.437,101,293.364,101,293.292,101Z"/>
          <path class="cls-4" d="M 293.2687683105469 102.9999694824219 C 292.7047119140625 103.0016860961914 292.1529235839844 103.191780090332 291.7136840820312 103.535774230957 C 291.2464599609375 103.9083786010742 290.8670349121094 104.3616638183594 290.5859985351562 104.8831024169922 C 290.2370300292969 105.5305252075195 289.5608825683594 105.9341888427734 288.8254089355469 105.9341659545898 C 288.0899047851562 105.9341506958008 287.4137878417969 105.5304718017578 287.0648498535156 104.8830261230469 C 286.7837524414062 104.3614883422852 286.4042663574219 103.9081268310547 285.9368286132812 103.5354690551758 C 285.4983520507812 103.1922302246094 284.9477844238281 103.0023193359375 284.3848266601562 102.9999771118164 C 283.5342407226562 103.0246658325195 282.7444763183594 103.3703918457031 282.1592407226562 103.9748306274414 C 281.5770874023438 104.5760650634766 281.267333984375 105.3626556396484 281.2870788574219 106.1896896362305 C 281.2871398925781 106.1923217773438 281.2872009277344 106.1949462890625 281.2872619628906 106.1975784301758 C 281.2883911132812 106.254997253418 281.2877197265625 106.3043594360352 281.2861633300781 106.3469085693359 C 281.2862243652344 106.3533096313477 281.2862548828125 106.3597106933594 281.2862548828125 106.3661117553711 C 281.2862548828125 107.4498519897461 281.7239685058594 108.4636154174805 282.7055358886719 109.653190612793 C 283.7558288574219 110.9260711669922 285.3196716308594 112.2780456542969 287.4150390625 114.0497360229492 L 287.4569702148438 114.0852279663086 C 287.8826904296875 114.4455490112305 288.3434753417969 114.8355560302734 288.8260498046875 115.2480392456055 C 289.3384704589844 114.8101959228516 289.8223266601562 114.4014358520508 290.2424011230469 114.0465621948242 C 294.3705444335938 110.5549697875977 296.3548889160156 108.7734756469727 296.3548889160156 106.4495849609375 C 296.3548889160156 106.4055862426758 296.3563232421875 106.3615951538086 296.3592224121094 106.3176956176758 C 296.4132080078125 105.5010757446289 296.1425170898438 104.7091598510742 295.5970153808594 104.0878067016602 C 295.0328674316406 103.4452285766602 294.24609375 103.060905456543 293.381591796875 103.0056610107422 C 293.3793640136719 103.0055160522461 293.3771362304688 103.00537109375 293.3749084472656 103.0052185058594 C 293.3354797363281 103.0025634765625 293.3005676269531 103.0008392333984 293.2687683105469 102.9999694824219 M 284.3743591308594 100.9999618530273 C 285.392822265625 100.9999618530273 286.3808898925781 101.3405532836914 287.1768188476562 101.9662322998047 C 287.8557434082031 102.5060424804688 288.4164123535156 103.1752395629883 288.825439453125 103.9341659545898 C 289.2344970703125 103.1752395629883 289.795166015625 102.5060424804688 290.4740905761719 101.9662322998047 C 291.2700500488281 101.3405151367188 292.2587280273438 100.9999313354492 293.2765808105469 100.9999618530273 C 293.2816772460938 100.9999618530273 293.2869567871094 100.9999694824219 293.2920837402344 100.9999923706055 C 293.3644409179688 101.0013809204102 293.436767578125 101.0048599243164 293.5091552734375 101.0097274780273 C 296.3716430664062 101.1926803588867 298.5413208007812 103.628791809082 298.3548889160156 106.4495849609375 C 298.3548889160156 109.8053283691406 295.6405639648438 112.100227355957 291.53076171875 115.5763092041016 C 290.8316650390625 116.1669006347656 290.0407104492188 116.8353958129883 289.218505859375 117.5491256713867 C 288.9945068359375 117.7439193725586 288.6578369140625 117.7439193725586 288.433837890625 117.5491256713867 C 287.6109008789062 116.8353958129883 286.8206787109375 116.1669006347656 286.1229248046875 115.5763092041016 C 282.0117492675781 112.100227355957 279.2862548828125 109.7218551635742 279.2862548828125 106.3661117553711 C 279.2814025878906 106.2958450317383 279.2890625 106.3076782226562 279.2876586914062 106.237419128418 C 279.2201843261719 103.4110565185547 281.49072265625 101.0660781860352 284.3588256835938 100.9999923706055 C 284.364013671875 100.9999694824219 284.3691711425781 100.9999618530273 284.3743591308594 100.9999618530273 Z"/>
        </g>
      </g>
    </g>
  </g>
</svg>
