<svg xmlns="http://www.w3.org/2000/svg" width="24" height="24" viewBox="0 0 24 24">
    <defs>
        <clipPath id="clip-path">
            <path id="사각형_2825" data-name="사각형 2825" transform="translate(0 .172)" style="fill:none" d="M0 0h24v24H0z"/>
        </clipPath>
        <style type="text/css">
            .cls-5{fill:#b2b2b2;}.cls-6{fill:#f7f7f7;}

            @media screen and (max-width: 1200px) {
                .cls-5{fill:#000;}.cls-6{fill:#fff;}
            }
        </style>
    </defs>
    <g id="그룹_4354" data-name="그룹 4354" transform="translate(-306 -53)">
        <g id="그룹_4352" data-name="그룹 4352" transform="translate(17595.109 16759)">
            <path id="사각형_2827" data-name="사각형 2827" class="cls-5" transform="translate(-17284 -16702)" d="M0 0h2v16H0z"/>
            <path id="패스_2308" data-name="패스 2308" class="cls-6" d="M9 20a3 3 0 1 1-3 3 3 3 0 0 1 3-3" transform="translate(-17292.109 -16714)"/>
            <path id="패스_2309" data-name="패스 2309" class="cls-5" d="M9 21.5A1.5 1.5 0 1 1 7.5 23 1.5 1.5 0 0 1 9 21.5M9 20a3 3 0 1 0 3 3 3 3 0 0 0-3-3" transform="translate(-17292.109 -16714)"/>
            <path id="사각형_2828" data-name="사각형 2828" class="cls-5" transform="translate(-17278 -16702)" d="M0 0h2v16H0z"/>
            <path id="패스_2310" data-name="패스 2310" class="cls-6" d="M19 10a3 3 0 1 1-3 3 3 3 0 0 1 3-3" transform="translate(-17296 -16709)"/>
            <path id="패스_2311" data-name="패스 2311" class="cls-5" d="M19 11.5a1.5 1.5 0 1 1-1.5 1.5 1.5 1.5 0 0 1 1.5-1.5m0-1.5a3 3 0 1 0 3 3 3 3 0 0 0-3-3" transform="translate(-17296 -16709)"/>
            <path id="사각형_2829" data-name="사각형 2829" class="cls-5" transform="translate(-17272 -16702)" d="M0 0h2v16H0z"/>
            <path id="패스_2312" data-name="패스 2312" class="cls-6" d="M29 17a3 3 0 1 1-3 3 3 3 0 0 1 3-3" transform="translate(-17299.891 -16713)"/>
            <path id="패스_2313" data-name="패스 2313" class="cls-5" d="M29 18.5a1.5 1.5 0 1 1-1.5 1.5 1.5 1.5 0 0 1 1.5-1.5m0-1.5a3 3 0 1 0 3 3 3 3 0 0 0-3-3" transform="translate(-17299.891 -16713)"/>
        </g>
    </g>
</svg>


